<?xml version="1.0" standalone="no"?>
<!DOCTYPE svg PUBLIC "-//W3C//DTD SVG 1.1//EN" "http://www.w3.org/Graphics/SVG/1.1/DTD/svg11.dtd" >
<svg xmlns="http://www.w3.org/2000/svg" xmlns:xlink="http://www.w3.org/1999/xlink" version="1.1">
<metadata>
Created by FontForge 20170731 at Mon Apr 13 20:07:52 2015
 By Aleksey,,,
Copyright (c) 2010-2011, Nathan Willis (nwillis@glyphography.com), with Reserved Font Name "News Cycle."
</metadata>
<defs>
<font id="NewsCycle-Bold" horiz-adv-x="939" >
  <font-face 
    font-family="News Cycle"
    font-weight="700"
    font-stretch="normal"
    units-per-em="2048"
    panose-1="2 0 8 3 0 0 0 0 0 0"
    ascent="1638"
    descent="-410"
    x-height="1055"
    cap-height="1515"
    bbox="-382 -676 2339 2574"
    underline-thickness="102"
    underline-position="-408"
    unicode-range="U+000D-FB04"
  />
<missing-glyph horiz-adv-x="748" 
d="M68 0v1365h544v-1365h-544zM136 68h408v1229h-408v-1229z" />
    <glyph glyph-name="ff" unicode="ff" horiz-adv-x="983" 
d="M536 1336q-59 16 -118 -11t-59 -90v-180h172v226q0 27 5 55zM895 1336q-150 0 -150 -101v-180h218v-181h-218v-874h-214v874h-172v-874h-214v874h-152v181h152v226q0 249 373 249q84 0 141 -39q85 39 191 39t113 -15v-179h-68z" />
    <glyph glyph-name="fi" unicode="fi" horiz-adv-x="925" 
d="M145 1281q0 249 373 249q117 0 307 -15v-243h-243v64q-9 1 -24 1t-53.5 -3.5t-68 -12t-53.5 -31t-24 -55.5v-180h452v-1055h-214v874h-238v-874h-214v874h-152v181h152v226z" />
    <glyph glyph-name="fl" unicode="fl" horiz-adv-x="941" 
d="M597 1336q-238 5 -238 -101v-180h238v281zM145 1281q0 249 373 249q85 2 244 -11l49 -4v-1518h-214v877h-238v-874h-214v874h-152v181h152v226z" />
    <glyph glyph-name="ffi" unicode="ffi" horiz-adv-x="1308" 
d="M536 1336q-177 0 -177 -101v-180h172v226q0 27 5 55zM518 1530q85 0 140 -39q94 39 228.5 39t324.5 -15v-243h-243v64q-9 1 -24 1t-53.5 -3.5t-68 -12t-53.5 -31t-24 -55.5v-180h452v-1055h-214v874h-238v-874h-214v874h-172v-874h-214v874h-152v181h152v226
q0 249 373 249z" />
    <glyph glyph-name="ffl" unicode="ffl" horiz-adv-x="1309" 
d="M940 1336q-195 0 -195 -101v-180h238v281h-43zM145 1281q0 249 373 249q102 0 141 -39q46 23 115 27l96 6q56 3 143.5 -0.5t102 -4t47.5 -2.5t34 -2v-1518h-214v877h-238v-874h-214v874h-172v-874h-214v874h-152v181h152v226zM536 1336q-59 16 -118 -11t-59 -90v-180h172
v226q0 27 5 55z" />
    <glyph glyph-name=".notdef" horiz-adv-x="748" 
d="M68 0v1365h544v-1365h-544zM136 68h408v1229h-408v-1229z" />
    <glyph glyph-name=".null" horiz-adv-x="0" 
 />
    <glyph glyph-name="nonmarkingreturn" unicode="&#xd;" horiz-adv-x="2048" 
 />
    <glyph glyph-name="space" unicode=" " horiz-adv-x="512" 
 />
    <glyph glyph-name="exclam" unicode="!" horiz-adv-x="342" 
d="M48 1446h243l-37 -1100h-168zM50 0v243h244v-243h-244z" />
    <glyph glyph-name="quotedbl" unicode="&#x22;" horiz-adv-x="578" 
d="M334 1000l80 250h-74v243h244v-197l-152 -296h-98zM23 1000l80 250h-74v243h244v-197l-152 -296h-98z" />
    <glyph glyph-name="numbersign" unicode="#" horiz-adv-x="1353" 
d="M590 652h158v242h-158v-242zM138 450v202h238v242h-238v202h238v422h214v-422h158v422h214v-422h246v-202h-246v-242h246v-202h-246v-450h-214v450h-158v-450h-214v450h-238z" />
    <glyph glyph-name="dollar" unicode="$" horiz-adv-x="1225" 
d="M718 185q147 22 147 213q0 101 -30 153t-117 85v-451zM375 1127q0 -66 22 -110t81 -69v366q-103 -44 -103 -187zM173 982.5q-24 66.5 -24 148t37 160t112.5 140t179.5 87.5v47h240v-44q154 -33 244 -150q34 -45 49 -74l16 -31l-171 -90q-33 88 -138 141v-449l55 -21
q152 -60 223 -140q55 -64 74 -114q35 -98 35 -172t-13 -127.5t-43.5 -109t-73.5 -98.5q-99 -100 -257 -102v-203h-240v224q-167 43 -273 171q-25 30 -36.5 48.5l-11.5 18.5l162 105l5.5 -12.5t17 -32.5t28.5 -41q40 -51 108 -73v527q-82 18 -145.5 65t-99.5 91t-60 110.5z
" />
    <glyph glyph-name="percent" unicode="%" horiz-adv-x="1075" 
d="M198 1241q0 -57 40 -97t97 -40t97 40t40 97t-40 97t-97 40t-97 -40t-40 -97zM48 1241q0 119 84.5 203t203 84t202.5 -84t84 -203t-84 -203t-202.5 -84t-203 84t-84.5 203zM629 266q0 -57 40 -97t97 -40t97 40t40 97t-40 97t-97 40t-97 -40t-40 -97zM479 266
q0 118 84.5 202.5t203 84.5t202.5 -84.5t84 -202.5t-84 -202.5t-202.5 -84.5t-203 84.5t-84.5 202.5zM15 19l888 1565l187 -105l-910 -1554z" />
    <glyph glyph-name="ampersand" unicode="&#x26;" horiz-adv-x="1424" 
d="M523 1204q0 -146 29 -216q205 106 205 230q0 54 -30.5 99.5t-85 45.5t-86.5 -45t-32 -114zM368 614q-55 -64 -55 -167t67 -186.5t170.5 -83.5t160.5 20t117 70q-36 39 -89 108l-256 345q-91 -78 -115 -106zM99 411q0 271 294 471q-33 62 -58.5 166.5t-25.5 179.5t42 149
t116 122t162.5 48t164.5 -46.5t115.5 -118.5t39.5 -142.5t-18 -124t-44.5 -91.5t-72 -77.5t-84.5 -64.5l-98 -60q64 -102 174.5 -239t153.5 -175q68 135 61 327h214q0 -262 -152 -465q64 -42 197 -38q33 1 47 1v-233q-158 0 -191 10.5t-62 22.5q-51 21 -108 78
q-78 -76 -176.5 -102.5t-223 -26.5t-232.5 58t-171.5 157t-63.5 214z" />
    <glyph glyph-name="quotesingle" unicode="'" horiz-adv-x="334" 
d="M44 1000l80 250h-74v243h244v-197l-152 -296h-98z" />
    <glyph glyph-name="parenleft" unicode="(" horiz-adv-x="607" 
d="M317 689q0 -95 16 -195q58 -355 256 -657l18 -28l-180 -126q-5 0 -69 106q-31 51 -67.5 119.5t-74 159t-68 186t-50 210.5t-19.5 225t20 225.5t49 209t93.5 246t165.5 297.5l20 28l180 -126l-18 -28q-12 -17 -42 -69.5t-57.5 -107.5t-60 -137t-56.5 -163t-40 -180.5
t-16 -194.5z" />
    <glyph glyph-name="parenright" unicode=")" horiz-adv-x="607" 
d="M290 689q0 130 -30.5 269.5t-68.5 237t-87.5 193.5t-69.5 129l-34 51l180 126l38 -53q23 -35 83 -145t106 -222t83.5 -273.5t37.5 -312.5t-36 -310t-87 -279q-105 -245 -189 -366l-36 -51l-180 126l34 51q20 33 69.5 129t87.5 193.5t68.5 237t30.5 269.5z" />
    <glyph glyph-name="asterisk" unicode="*" horiz-adv-x="692" 
d="M24 698l49 148l199 -63v203h149v-203l198 64l47 -147l-197 -62l117 -166l-118 -90l-122 174l-123 -173l-122 90l124 167z" />
    <glyph glyph-name="plus" unicode="+" horiz-adv-x="1006" 
d="M31 633v215h314v314h214v-314h313v-215h-313v-314h-214v314h-314z" />
    <glyph glyph-name="comma" unicode="," horiz-adv-x="444" 
d="M44 -296l80 250h-74v243h244v-197l-152 -296h-98z" />
    <glyph glyph-name="hyphen" unicode="-" horiz-adv-x="512" 
d="M0 488v181h512v-181h-512z" />
    <glyph glyph-name="period" unicode="." horiz-adv-x="343" 
d="M50 0v243h244v-243h-244z" />
    <glyph glyph-name="slash" unicode="/" horiz-adv-x="1003" 
d="M18 -14l762 1630l194 -90l-764 -1632z" />
    <glyph glyph-name="zero" unicode="0" horiz-adv-x="1146" 
d="M844 746q0 586 -259 586q-217 0 -270 -369q-14 -105 -14 -200t5.5 -159.5t17.5 -128.5t34 -114t52 -90q64 -82 175 -82q120 0 177 84q40 59 52.5 115t17.5 92t8 86q4 75 4 180zM62 735q0 75 6.5 147t23.5 152t43 150.5t67.5 135.5t94.5 111q116 102 290 102
q229 0 360 -213q136 -221 136 -576q0 -489 -226 -670q-108 -86 -270 -86q-235 0 -372 183q-153 205 -153 564z" />
    <glyph glyph-name="one" unicode="1" horiz-adv-x="903" 
d="M81 1400l327 115h174v-1285h220v-230h-703v230h244v1061l-194 -57z" />
    <glyph glyph-name="two" unicode="2" horiz-adv-x="1197" 
d="M73 0q0 137 16 192t35 101t46 86t67.5 90.5t92.5 97.5q118 109 234 184t157.5 109.5t69.5 76.5q49 71 49 200q0 69 -58 130q-62 67 -179 67q-158 0 -219 -133q-29 -66 -29 -143h-239q0 139 63.5 247.5t180 169t242 60.5t212 -35t143.5 -93q122 -123 122 -282
q0 -147 -92 -267q-75 -99 -199 -194l-74 -55q-124 -90 -247 -208.5t-131 -170.5h722v-230h-985z" />
    <glyph glyph-name="three" unicode="3" horiz-adv-x="1186" 
d="M52 249l159 129q102 -129 245 -176q57 -19 115 -19q118 0 188 62t70 178q0 92 -72 175q-75 88 -187 88h-211v204h211q149 0 197 154q13 41 13 85q0 84 -62 144.5t-162 60.5q-177 0 -324 -158l-141 132q70 98 205 162.5t306 64.5q86 0 165 -35.5t133 -90.5
q119 -122 119 -258q0 -175 -130 -314q-32 -33 -58 -45q85 -28 159 -136q78 -113 78 -244q0 -213 -168 -340q-118 -90 -300 -90q-360 0 -548 267z" />
    <glyph glyph-name="four" unicode="4" horiz-adv-x="1290" 
d="M373 552h374v578zM115 351v195l632 969h240v-963h230v-201h-230v-351h-240v351h-632z" />
    <glyph glyph-name="five" unicode="5" horiz-adv-x="1058" 
d="M69 291l159 114q36 -90 112 -158q73 -64 168 -64q102 0 178 81q84 92 84 265q0 187 -106 263q-56 40 -112.5 40t-98.5 -16.5t-69 -40.5q-57 -51 -63 -89h-203v829h808v-201h-569v-321q7 14 68 27.5t135.5 13.5t158.5 -36.5t148.5 -100.5t103 -159t38.5 -230t-61.5 -261
t-173.5 -195.5t-257 -69.5q-211 0 -355 155q-73 78 -93 154z" />
    <glyph glyph-name="six" unicode="6" horiz-adv-x="1180" 
d="M758.5 687q-72.5 80 -184.5 80q-101 0 -172 -76q-53 -58 -83 -158l-4 -13q12 -162 83.5 -245.5t174.5 -83.5q96 0 174 77q84 81 84 210t-72.5 209zM312 851q126 118 284 118q101 0 190 -38.5t151 -103.5q133 -140 133 -337q0 -148 -74 -273q-134 -227 -416 -227
q-245 0 -371.5 179.5t-126.5 512.5q0 401 161 620t456 219q94 0 173.5 -38t123.5 -82l-100 -176q-87 95 -213 95q-154 0 -260 -148q-83 -116 -111 -321z" />
    <glyph glyph-name="seven" unicode="7" horiz-adv-x="988" 
d="M67 1290v225h919v-227l-561 -1288h-251l562 1290h-669z" />
    <glyph glyph-name="eight" unicode="8" horiz-adv-x="1219" 
d="M594 907q244 112 244 245q0 47 -35.5 89t-88.5 65.5t-101 23.5t-99 -24.5t-89.5 -69t-38.5 -107t60.5 -124.5t147.5 -98zM406 565.5q-81 -89.5 -81 -159.5t49 -121q99 -102 263 -102q83 0 167 60q38 28 63.5 70t25.5 89q0 171 -296 298q-110 -45 -191 -134.5zM86 394
q0 169 148 302q74 65 165 109q-120 53 -186 142t-66 197t61 196.5t168.5 139.5t222.5 51t202 -32.5t147 -85.5q129 -114 129 -259q0 -155 -178 -292q-46 -37 -98 -65l60 -30q169 -87 229 -201q42 -79 42 -168t-41.5 -165.5t-109.5 -131.5q-148 -119 -320.5 -119t-299 50.5
t-201 145.5t-74.5 216z" />
    <glyph glyph-name="nine" unicode="9" horiz-adv-x="1180" 
d="M401.5 816q72.5 -80 184.5 -80q101 0 172 76q53 58 83 158l4 13q-12 162 -83.5 245.5t-174.5 83.5q-96 0 -174 -77q-84 -81 -84 -210t72.5 -209zM848 652q-126 -118 -284 -118q-101 0 -190 38.5t-151 103.5q-133 140 -133 337q0 148 74 273q134 227 416 227
q245 0 371.5 -179.5t126.5 -512.5q0 -401 -161 -620t-456 -219q-94 0 -173.5 38t-123.5 82l100 176q87 -95 213 -95q154 0 260 148q83 116 111 321z" />
    <glyph glyph-name="colon" unicode=":" horiz-adv-x="343" 
d="M50 812v243h244v-243h-244zM50 0v243h244v-243h-244z" />
    <glyph glyph-name="semicolon" unicode=";" horiz-adv-x="342" 
d="M50 812v243h244v-243h-244zM44 -296l80 250h-74v243h244v-197l-152 -296h-98z" />
    <glyph glyph-name="less" unicode="&#x3c;" horiz-adv-x="1029" 
d="M314 744l661 -528l-106 -128l-821 656l821 656l106 -128z" />
    <glyph glyph-name="equal" unicode="=" horiz-adv-x="942" 
d="M59 788v215h824v-215h-824zM59 440v215h824v-215h-824z" />
    <glyph glyph-name="greater" unicode="&#x3e;" horiz-adv-x="1029" 
d="M709 744l-661 528l106 128l821 -656l-821 -656l-106 128z" />
    <glyph glyph-name="question" unicode="?" horiz-adv-x="887" 
d="M233 0v243h243v-243h-243zM74 1289q70 140 159 191q81 46 188.5 46t192 -49t136 -136.5t51.5 -170t-19 -142.5t-48.5 -108.5t-66 -95.5t-72.5 -88.5t-66 -79.5q-67 -86 -67 -149v-164h-210v151q0 103 65 203q29 44 64 88l70 86q84 100 107 156.5t23 117t-47.5 122.5
t-113.5 62q-120 0 -189 -145z" />
    <glyph glyph-name="at" unicode="@" horiz-adv-x="1620" 
d="M706 744.5q-56 -62.5 -56 -152.5q0 -180 134 -180q52 0 105 44t61 72v257q-38 22 -84 22q-104 0 -160 -62.5zM960 321q-74 -91 -234 -91q-173 0 -251 162q-39 80 -39 170q0 180 117.5 309t282.5 129q76 0 124 -32l16 52h178v-615q0 -45 17.5 -60.5t31.5 -21.5
q21 -9 44 -9q48 0 83.5 93.5t35.5 238t-65 270.5t-189 199t-287 73q-162 0 -309 -88q-181 -106 -237 -322q-21 -80 -21 -180.5t39.5 -200t110.5 -176t179.5 -122t212.5 -45.5q182 0 256 50l24 16l99 -135q0 -11 -41 -35.5t-80 -41.5q-96 -40 -239.5 -40t-270.5 45t-214 120
t-149 173q-119 187 -119 408q0 156 46.5 283.5t122 210.5t175.5 140q187 106 401 106t381.5 -95.5t265.5 -265t98 -375.5q0 -195 -74 -334q-36 -69 -96.5 -109.5t-157 -40.5t-177 48t-91.5 139z" />
    <glyph glyph-name="A" unicode="A" horiz-adv-x="1130" 
d="M432 640h283l-141 489zM2 0l432 1515h262l432 -1515h-231l-125 439h-397l-125 -439h-248z" />
    <glyph glyph-name="B" unicode="B" horiz-adv-x="1148" 
d="M362 888h246q101 0 175 78q58 60 58 159q0 189 -233 189h-246v-426zM362 201h256q140 0 198 66q49 55 49 163q0 89 -67 168q-71 84 -180 84h-256v-481zM123 0v1515h487q214 0 333 -105q115 -101 115 -257q0 -257 -186 -328q-32 -13 -75 -23q126 -24 208 -121
q87 -103 87 -270q0 -238 -150 -337q-115 -74 -324 -74h-495z" />
    <glyph glyph-name="C" unicode="C" horiz-adv-x="1183" 
d="M79 570q-16 94 -16 190t15 189t44.5 181.5t77 163t108.5 130.5q130 119 323 119q245 0 387 -245q69 -119 93 -245v-1l-208 -56q-16 107 -38 156.5t-44 83t-48 55.5q-62 51 -140.5 51t-134.5 -35.5t-92 -93t-60 -134.5q-44 -142 -44 -320q0 -472 224 -564q48 -20 102 -20
t96.5 14t71.5 36.5t51.5 53.5t36 62.5t21.5 64.5q15 58 15 108l223 -31q-45 -192 -157 -333q-142 -176 -357 -176q-264 0 -425 251q-91 141 -125 345z" />
    <glyph glyph-name="D" unicode="D" horiz-adv-x="1229" 
d="M362 201h144q209 0 322 151q111 150 111 395q0 467 -299 550q-61 17 -134 17h-144v-1113zM123 0v1515h357q548 0 662 -441q36 -141 36 -297t-21.5 -263t-73.5 -203t-130 -164q-171 -147 -473 -147h-357z" />
    <glyph glyph-name="E" unicode="E" horiz-adv-x="1079" 
d="M123 0v1515h867v-201h-628v-419h437v-202h-437v-478h666v-215h-905z" />
    <glyph glyph-name="F" unicode="F" horiz-adv-x="1041" 
d="M123 0v1515h867v-201h-628v-419h437v-202h-437v-693h-239z" />
    <glyph glyph-name="G" unicode="G" horiz-adv-x="1262" 
d="M929 1035q-65 307 -272 307q-219 0 -307 -249q-49 -139 -49 -326q0 -450 191 -560q56 -32 119 -32t106.5 12.5t73 32t51.5 50.5t34 62t19 74q11 65 13 157h-291v202h526v-765h-194v120q-64 -78 -140 -111q-82 -35 -189 -35t-196 43.5t-154 119.5t-113 177
q-95 201 -95 455q0 243 91 436q101 213 279 294q97 44 186.5 44t143 -12.5t109 -45t100.5 -84.5q99 -113 162 -329z" />
    <glyph glyph-name="H" unicode="H" horiz-adv-x="1276" 
d="M123 0v1515h239v-619h552v619h239v-1515h-239v695h-552v-695h-239z" />
    <glyph glyph-name="I" unicode="I" horiz-adv-x="437" 
d="M99 0v1515h239v-1515h-239z" />
    <glyph glyph-name="J" unicode="J" horiz-adv-x="908" 
d="M2 291l141 72q38 -117 148 -168q44 -20 82.5 -20t59.5 6t36.5 14.5t27.5 24.5t20 31.5t13.5 39t8.5 42.5t5 48q2 41 2 100v1034h239v-1093q0 -364 -273 -433q-60 -15 -128.5 -15t-124 17t-92.5 41.5t-67.5 61t-46.5 64t-29 63.5q-15 39 -22 70z" />
    <glyph glyph-name="K" unicode="K" horiz-adv-x="1151" 
d="M123 0v1515h241v-674l505 674h252l-449 -591l477 -924h-263l-367 723l-155 -204v-519h-241z" />
    <glyph glyph-name="L" unicode="L" horiz-adv-x="1017" 
d="M123 0v1515h239v-1285h626v-230h-865z" />
    <glyph glyph-name="M" unicode="M" horiz-adv-x="1478" 
d="M350 1026v-1026h-234v1515h324l291 -1047h10l291 1047h324v-1515h-235v1026h-9l-284 -1026h-184l-284 1026h-10z" />
    <glyph glyph-name="N" unicode="N" horiz-adv-x="1272" 
d="M917 585v930h238v-1515h-190l-612 1162v-1162h-238v1515h308z" />
    <glyph glyph-name="O" unicode="O" horiz-adv-x="1274" 
d="M306 858q-4 -52 -4 -106.5t4 -107.5t14.5 -112t26.5 -109t43.5 -96.5t61.5 -79.5q77 -72 194 -72q325 0 325 578q0 471 -220 568q-48 21 -106.5 21t-108 -21t-84 -55.5t-62 -83.5t-43.5 -101t-26.5 -111.5t-14.5 -111.5zM73 601q-10 76 -10 151t9 151t30 154.5t52 148.5
t78.5 132.5t106.5 107.5q127 97 309 97q250 0 400 -206q162 -224 162 -585q0 -368 -156 -580q-146 -198 -406 -198q-247 0 -405 199q-134 168 -170 428z" />
    <glyph glyph-name="P" unicode="P" horiz-adv-x="1151" 
d="M861 1115q0 199 -334 199h-165v-455h165q154 0 244 66.5t90 189.5zM123 0v1515h517q282 0 395 -162q65 -94 65 -229q0 -240 -146 -372q-107 -95 -282 -95h-310v-657h-239z" />
    <glyph glyph-name="Q" unicode="Q" horiz-adv-x="1274" 
d="M306 858q-4 -52 -4 -106.5t4 -107.5t14.5 -112t26.5 -109t43.5 -96.5t61.5 -79.5q77 -72 194 -72q325 0 325 578q0 471 -220 568q-48 21 -106.5 21t-108 -21t-84 -55.5t-62 -83.5t-43.5 -101t-26.5 -111.5t-14.5 -111.5zM73 601q-10 76 -10 151t9 151t30 154.5t52 148.5
t78.5 132.5t106.5 107.5q127 97 309 97q250 0 400 -206q162 -224 162 -585q0 -368 -156 -580q-115 -155 -300 -189q2 -39 6 -47q6 -12 15 -21t19.5 -11t29.5 -5q24 -4 95 -4h230v-178h-141q-205 0 -245 6.5t-72.5 14.5t-46.5 18.5t-32.5 27.5t-25 38t-14.5 51q-9 35 -11 108
q-188 29 -318 192q-134 168 -170 428z" />
    <glyph glyph-name="R" unicode="R" horiz-adv-x="1121" 
d="M362 859h253q105 0 175 57q74 61 74 187q0 211 -335 211h-167v-455zM123 0v1515h509q351 0 444 -251q27 -73 27 -151t-17.5 -142t-51.5 -119q-75 -120 -221 -151l280 -701h-245l-262 657h-224v-657h-239z" />
    <glyph glyph-name="S" unicode="S" horiz-adv-x="1041" 
d="M24 388l192 63q1 0 4 -15t10.5 -39.5t21 -54t39.5 -59t61 -53.5q78 -55 194 -55t170.5 57t54.5 135.5t-16 127t-56 84.5q-67 60 -232 108q-291 85 -374 263q-43 93 -43 219q0 106 75 207q131 167 372 167q191 0 313 -115q87 -81 130 -204l19 -53q9 -24 12 -31l-195 -69
q-66 210 -206 259q-35 12 -73 12q-208 0 -208 -214q0 -98 58 -150q48 -45 126 -71l48 -16q41 -14 45 -15l44 -15q171 -60 231 -106q88 -68 115 -125q54 -117 54 -247q0 -102 -58 -207q-78 -141 -247 -185q-65 -17 -142 -17t-144.5 14t-116.5 38t-90 55t-69 65.5t-49 69
t-33.5 65.5t-20.5 55t-11.5 38t-4.5 14z" />
    <glyph glyph-name="T" unicode="T" horiz-adv-x="1062" 
d="M2 1314v201h1057v-201h-409v-1314h-239v1314h-409z" />
    <glyph glyph-name="U" unicode="U" horiz-adv-x="1234" 
d="M123 448v1067h239v-1010q0 -253 163 -314q42 -16 94 -16t94 14t68 35t45 53.5t28 59.5t15 64q6 48 6 104v1010h244v-1067q0 -229 -151 -363q-125 -111 -348 -111q-339 0 -450 257q-47 106 -47 217z" />
    <glyph glyph-name="V" unicode="V" horiz-adv-x="1104" 
d="M552 516l297 999h253l-450 -1515h-200l-450 1515h253z" />
    <glyph glyph-name="W" unicode="W" horiz-adv-x="1614" 
d="M2 1515h247l222 -1017h9l218 1017h226l214 -1017h12l222 1017h240l-351 -1515h-223l-222 1057h-10l-226 -1057h-227z" />
    <glyph glyph-name="X" unicode="X" horiz-adv-x="1106" 
d="M1104 0h-246l-302 536l-303 -536h-247l426 754l-430 761h244l302 -532l292 532h245l-417 -745z" />
    <glyph glyph-name="Y" unicode="Y" horiz-adv-x="1122" 
d="M680 701v-701h-238v701l-440 814h252l307 -573l307 573h252z" />
    <glyph glyph-name="Z" unicode="Z" horiz-adv-x="1157" 
d="M44 0v136l733 1172h-679v207h998v-161l-693 -1124h710v-230h-1069z" />
    <glyph glyph-name="bracketleft" unicode="[" horiz-adv-x="619" 
d="M88 -302v1948h478v-150h-240v-1648h240v-150h-478z" />
    <glyph glyph-name="backslash" unicode="\" horiz-adv-x="1007" 
d="M975 -14l-171 -81l-785 1621l194 90z" />
    <glyph glyph-name="bracketright" unicode="]" horiz-adv-x="619" 
d="M531 -302h-478v150h240v1648h-240v150h478v-1948z" />
    <glyph glyph-name="asciicircum" unicode="^" horiz-adv-x="636" 
d="M69 1198l248 248l249 -249l-94 -92l-153 153l-155 -155z" />
    <glyph glyph-name="underscore" unicode="_" horiz-adv-x="1126" 
d="M79 0v181h968v-181h-968z" />
    <glyph glyph-name="grave" unicode="`" horiz-adv-x="707" 
d="M154 1395l116 123l327 -338l-87 -86z" />
    <glyph glyph-name="a" unicode="a" 
d="M284 272q0 -59 29 -85.5t72 -26.5t64.5 5t42.5 15l37 19q16 9 36 25l29 23q8 7 26 23l18 17v247q-224 -52 -293 -112q-61 -54 -61 -150zM668 0q-30 18 -30 93l-19 -22q-86 -92 -246 -92q-194 0 -266 137q-37 68 -37 157t31.5 158.5t102.5 122.5q129 96 434 157
q0 71 -4.5 87t-10 30t-13.5 21.5t-20 16.5t-28 13q-39 10 -86.5 10t-89 -14.5t-66 -32.5t-44.5 -42q-26 -32 -37 -56l-140 86q44 91 76 121.5t63 52.5t66 35q84 31 171 31t138.5 -9.5t98 -34t76.5 -65.5q64 -89 64 -260v-552q0 -28 10.5 -79t19.5 -70h-214z" />
    <glyph glyph-name="b" unicode="b" horiz-adv-x="1004" 
d="M521 892q-117 0 -216 -103v-504q1 -1 14 -18.5t28 -32.5t38 -32q50 -39 116.5 -39t108.5 18.5t67 48.5t40 76q26 79 26 189.5t-13 181t-33.5 111t-51.5 64.5q-50 40 -124 40zM305 79q-8 -79 -16 -79h-226q28 64 28 143v1372h214v-530q18 27 75 57.5t135 30.5t143 -17.5
t110.5 -46.5t80 -72.5t54.5 -90.5t33 -107q21 -100 21 -204t-15 -177.5t-48.5 -142t-82.5 -120.5q-108 -113 -284 -113q-146 0 -222 97z" />
    <glyph glyph-name="c" unicode="c" horiz-adv-x="937" 
d="M59 520q0 314 137 447q108 106 302.5 106t304.5 -164q36 -53 50 -99l-181 -80q-8 82 -67 130q-40 32 -99 32q-233 0 -233 -363q0 -179 61 -272.5t178 -93.5q82 0 133 60q44 52 64 111l164 -72q-23 -89 -98 -169q-105 -111 -269 -111q-447 0 -447 538z" />
    <glyph glyph-name="d" unicode="d" horiz-adv-x="993" 
d="M711 789q-99 103 -216 103q-122 0 -175 -105q-47 -92 -47 -276q0 -203 66 -281q56 -67 166 -67q116 0 192 103q13 18 14 19v504zM925 143q0 -70 28 -143h-226q-3 5 -6 14l-10 65q-76 -97 -222 -97q-252 0 -366 233q-64 130 -64 293q0 381 188 501q100 64 256 64
q77 0 133.5 -30.5t74.5 -57.5v530h214v-1372z" />
    <glyph glyph-name="e" unicode="e" horiz-adv-x="936" 
d="M283 652h370q0 78 -27 135q-52 105 -144 105q-55 0 -96.5 -24.5t-62.5 -63.5q-40 -73 -40 -152zM71.5 345.5q-12.5 72.5 -12.5 183t26 214.5t67 165.5t99 99.5q99 65 233 65q126 0 220 -75q176 -142 168 -527h-599q0 -202 107 -272q55 -36 115.5 -36t100.5 15t64 34
t44 44q27 35 37 60l136 -88q-74 -129 -158 -184q-93 -62 -204.5 -62t-190 29t-128 77t-81 116.5t-44 141z" />
    <glyph glyph-name="f" unicode="f" horiz-adv-x="591" 
d="M507 1530q74 0 79 -15v-179h-68q-81 -1 -106 -19q-44 -33 -44 -82v-180h218v-181h-218v-874h-214v874h-152v181h152v226q0 249 353 249z" />
    <glyph glyph-name="g" unicode="g" horiz-adv-x="1008" 
d="M653.5 326q-78.5 -30 -158.5 -30t-131 20q-9 -9 -33 -25q-47 -32 -47 -67q0 -47 151 -65q28 -4 35 -4.5t36 -1t45 -1t51.5 -4.5t67.5 -11q172 -39 220 -82q100 -91 100 -217q0 -290 -492 -290q-205 0 -337 68q-141 72 -141 221q0 132 192 205q-60 8 -101 52.5t-41 105.5
q0 128 154 195q-52 27 -96 118.5t-44 193.5t57.5 188t155.5 132t219 46q56 0 115.5 -21.5t84.5 -43.5q86 62 184 66q14 1 46 1.5t46 0.5v-180h-4q-97 10 -130 -7q-10 -5 -9.5 -10t11.5 -36t17 -48q17 -56 17 -122.5t-28.5 -138.5t-81 -125t-131 -83zM354.5 840
q-56.5 -52 -56.5 -150.5t51.5 -155t152.5 -56.5q129 0 168 140q10 35 10 70.5t-10 69.5t-30 65q-45 69 -137 69t-148.5 -52zM242 -122q-9 -21 -9 -44.5t9 -40t22 -27t35.5 -18.5t41.5 -11.5t48 -5.5q40 -3 85.5 -3t66 0.5t54.5 2.5t56 6.5t48 12.5t40 20q36 28 36 69t-34 68
t-86 39.5t-104 19.5t-98.5 11t-58.5 9q-105 -42 -124 -64.5t-28 -43.5z" />
    <glyph glyph-name="h" unicode="h" horiz-adv-x="997" 
d="M901 791v-791h-214v735q0 72 -43.5 114.5t-103.5 42.5t-119 -35.5t-88 -70.5v-786h-214v1515h214v-572q130 130 270 130q126 0 209 -66q89 -71 89 -216z" />
    <glyph glyph-name="i" unicode="i" horiz-adv-x="434" 
d="M106 0v1055h214v-1055h-214zM91 1147v243h243v-243h-243z" />
    <glyph glyph-name="j" unicode="j" horiz-adv-x="398" 
d="M-60 -165q100 0 144 32.5t44 154.5v1033h214v-1062q0 -170 -55 -238q-21 -26 -38.5 -42.5t-49.5 -28t-54 -17.5t-63 -9q-53 -4 -134 -4zM114 1147v243h242v-243h-242z" />
    <glyph glyph-name="k" unicode="k" horiz-adv-x="925" 
d="M124 0v1515h214v-853l304 393h260l-306 -390l324 -665h-242l-230 476l-110 -139v-337h-214z" />
    <glyph glyph-name="l" unicode="l" horiz-adv-x="451" 
d="M124 -3v1518h214v-1518h-214z" />
    <glyph glyph-name="m" unicode="m" horiz-adv-x="1595" 
d="M324 943q130 130 289 130q94 0 166 -37t106 -112q149 149 296 149q127 0 219 -66q99 -71 99 -216v-791h-214v735q0 71 -52 114t-113.5 43t-120.5 -35.5t-88 -70.5v-786h-214v735q0 72 -43.5 114.5t-104 42.5t-129.5 -36.5t-96 -69.5v-786h-214v1055h214v-112z" />
    <glyph glyph-name="n" unicode="n" horiz-adv-x="988" 
d="M892 791v-791h-214v735q0 72 -43.5 114.5t-103.5 42.5t-119 -35.5t-88 -70.5v-786h-214v1055h214v-112q58 58 121.5 94t148.5 36q130 0 214 -70.5t84 -211.5z" />
    <glyph glyph-name="o" unicode="o" horiz-adv-x="982" 
d="M279 649q-6 -53 -6 -114t6 -110t21.5 -98t39.5 -85q54 -80 152 -80q217 0 217 365q0 214 -64 297q-52 68 -153 68q-185 0 -213 -243zM59 528q0 250 115.5 397.5t317.5 147.5q134 0 232 -68q199 -139 199 -478q0 -423 -264 -519q-73 -27 -166.5 -27t-167.5 27t-123 75
t-82 118q-61 130 -61 327z" />
    <glyph glyph-name="p" unicode="p" horiz-adv-x="1029" 
d="M332 266q99 -103 216 -103q122 0 175 105q47 92 47 276q0 203 -66 281q-56 67 -166 67q-115 0 -192 -103q-13 -18 -14 -19v-504zM332 976q76 97 222 97q252 0 366 -233q64 -130 64 -293q0 -381 -188 -501q-100 -64 -256 -64q-76 0 -133 30.5t-75 57.5v-480h-214v1465h214
v-79z" />
    <glyph glyph-name="q" unicode="q" horiz-adv-x="1009" 
d="M711 266v504q-1 1 -14 19q-76 103 -192 103q-110 0 -166 -67q-66 -78 -66 -281q0 -184 47 -276q53 -105 175 -105q117 0 216 103zM711 976l16 79h198v-1465h-214v480q-18 -27 -74.5 -57.5t-133.5 -30.5q-156 0 -256 64q-188 120 -188 501q0 163 64 293q114 233 366 233
q146 0 222 -97z" />
    <glyph glyph-name="r" unicode="r" horiz-adv-x="651" 
d="M110 0v1055h214v-145q4 5 18 26l24 36q74 101 244 101q18 0 36 -3v-179q-182 -3 -262 -101q-36 -44 -60 -113v-677h-214z" />
    <glyph glyph-name="s" unicode="s" horiz-adv-x="890" 
d="M67 212l148 90q35 -50 65 -80q71 -70 179 -70q87 0 124 36q34 33 34 100q0 76 -49 114q-44 33 -87 45l-94 27q-163 46 -235 124q-73 79 -73 209q0 111 91 186q96 80 275 80q161 0 277 -110q50 -47 63 -79l-124 -98q-70 85 -140 105q-36 11 -94.5 11t-100 -30t-41.5 -88
q0 -67 59 -104q52 -33 105 -49l90 -25q212 -60 263 -203q21 -58 21 -137.5t-49.5 -145.5t-130.5 -102t-163.5 -36t-136 10t-103.5 35q-97 49 -173 185z" />
    <glyph glyph-name="t" unicode="t" horiz-adv-x="614" 
d="M17 874v181h157v385h214v-385h221v-181h-221v-566q0 -85 30.5 -116.5t102.5 -31.5q29 0 58.5 4t29.5 5v-151q-54 -25 -83.5 -32t-72 -7t-63 1t-50 7t-51 16.5t-44.5 30.5t-38 48q-33 64 -33 166v626h-157z" />
    <glyph glyph-name="u" unicode="u" horiz-adv-x="998" 
d="M118 264v791h214v-735q0 -72 43.5 -114.5t103 -42.5t119 35.5t88.5 70.5v786h214v-1055h-214v112q-130 -130 -270 -130q-126 0 -209 66q-89 71 -89 216z" />
    <glyph glyph-name="v" unicode="v" horiz-adv-x="901" 
d="M5 1055h226l217 -744l221 744h226l-324 -1055h-248z" />
    <glyph glyph-name="w" unicode="w" horiz-adv-x="1318" 
d="M510 0h-218l-286 1055h222l184 -684l156 684h184l156 -682l183 682h223l-288 -1055h-218l-148 652z" />
    <glyph glyph-name="x" unicode="x" horiz-adv-x="899" 
d="M2 1055h230l195 -311l204 311h229l-321 -490l355 -565h-230l-220 350l-211 -350h-231l326 536z" />
    <glyph glyph-name="y" unicode="y" horiz-adv-x="903" 
d="M2 1055h238l222 -633l198 633h238l-352 -1087q-53 -164 -88 -216t-63.5 -82t-61.5 -48q-105 -59 -310 -28l-9 1l10 199q37 -16 97.5 -16t97 16t59 41t38.5 55.5t24 61.5q15 61 16 112z" />
    <glyph glyph-name="z" unicode="z" horiz-adv-x="795" 
d="M2 0v137l474 737h-420v181h716v-120l-470 -741h488v-194h-788z" />
    <glyph glyph-name="braceleft" unicode="{" horiz-adv-x="789" 
d="M123 581v188q114 1 162 61.5t48 183.5q0 50 -39 114q-14 23 -26.5 68.5t-12.5 108t15 117.5q64 248 453 248v-171q-151 0 -222 -75q-31 -34 -46.5 -71t-15.5 -67t20 -77q58 -139 58 -219q0 -118 -64 -207t-164 -108q100 -19 164 -108t64 -188t-58 -238q-20 -47 -20 -77
t16 -67q60 -146 268 -146v-171q-205 0 -318 67q-53 32 -87 79t-48.5 102t-14.5 143t51 171q27 44 27 94q0 123 -48 183.5t-162 61.5z" />
    <glyph glyph-name="bar" unicode="|" horiz-adv-x="358" 
d="M64 -141v1704h239v-1704h-239z" />
    <glyph glyph-name="braceright" unicode="}" horiz-adv-x="789" 
d="M666 581q-113 -1 -161.5 -61.5t-48.5 -183.5q0 -52 27 -95q51 -80 51 -177.5t-23.5 -163.5t-76.5 -116q-109 -104 -368 -104v171q207 0 268 146q16 37 16 67t-20 76q-58 140 -58 239t64 188t164 108q-100 19 -164 108t-64 207q0 80 58 220q20 46 20 76t-15.5 67t-46.5 71
q-70 75 -222 75v171q366 0 444 -220q24 -66 24 -137t-12 -116.5t-27 -68.5q-39 -62 -39 -114q0 -123 48.5 -183.5t161.5 -61.5v-188z" />
    <glyph glyph-name="asciitilde" unicode="~" horiz-adv-x="797" 
d="M751 1312q-71 -200 -223 -200q-84 0 -149.5 45t-105 45t-59.5 -21t-37 -62l-130 60q23 91 89.5 145t121.5 54t94 -14.5t63 -31.5q64 -46 112 -46q38 0 55 23q22 31 35 65z" />
    <glyph glyph-name="uni00A0" unicode="&#xa0;" horiz-adv-x="512" 
 />
    <glyph glyph-name="exclamdown" unicode="&#xa1;" horiz-adv-x="342" 
d="M294 -169h-243l37 1100h168zM292 1277v-243h-244v243h244z" />
    <glyph glyph-name="cent" unicode="&#xa2;" horiz-adv-x="996" 
d="M333 760q-20 -85 -20 -236.5t19.5 -233.5t86.5 -107v691q-66 -29 -86 -114zM104 622q5 51 17 112t36 114t58 100q73 99 204 115v223h214v-218q62 -13 111.5 -48t75.5 -77q56 -87 67 -147l5 -27l-172 -40q0 67 -46 122q-17 21 -41 33v-711q41 18 71.5 60.5t39.5 76.5
l10 33l158 -57l-8 -28q-45 -141 -160 -222q-51 -37 -111 -49v-228h-214v233q-132 16 -205 119q-72 100 -94 212q-21 110 -21 179t5 120z" />
    <glyph glyph-name="sterling" unicode="&#xa3;" horiz-adv-x="1118" 
d="M386 488q0 -236 -30 -265h314q158 0 238 77q19 17 30 42l135 -150q0 -1 -3 -8t-8 -16t-20.5 -30t-34.5 -37t-53.5 -36t-75.5 -33q-99 -32 -236 -32h-536v132q16 39 34 149t18 185v120h-134v220h134v124q0 270 47 378q51 116 141 163q112 60 290 60q34 0 87.5 -6t54.5 -10
v-181l-102 3q-161 0 -218 -62q-34 -38 -44.5 -73.5t-15.5 -62t-7 -64.5q-5 -64 -5 -159v-110h278v-220h-278v-98z" />
    <glyph glyph-name="currency" unicode="&#xa4;" horiz-adv-x="780" 
d="M256 745q0 -57 40 -97t97 -40t97 40t40 97t-40 97t-97 40t-97 -40t-40 -97zM147 596q-41 66 -41 149q0 82 41 148l-102 102l93 93l101 -101q68 45 154 45q83 0 148 -41l99 99l95 -95l-98 -98q43 -67 43 -152q0 -87 -45 -155l98 -98l-93 -93l-99 99q-66 -40 -148 -40
q-84 0 -151 43l-102 -102l-95 95z" />
    <glyph glyph-name="yen" unicode="&#xa5;" horiz-adv-x="1122" 
d="M4 1515h254l303 -565l303 565h254l-447 -827h245v-149h-240v-117h240v-149h-240v-273h-230v273h-220v149h220v117h-220v149h225z" />
    <glyph glyph-name="brokenbar" unicode="&#xa6;" horiz-adv-x="368" 
d="M64 794v769h239v-769h-239zM64 -141v761h239v-761h-239z" />
    <glyph glyph-name="section" unicode="&#xa7;" horiz-adv-x="892" 
d="M789 436q8 -16 14 -33q21 -58 21 -137.5t-49.5 -145.5t-130.5 -102t-163 -36t-136 10t-104 35q-97 49 -173 185l148 90q35 -50 65 -80q71 -70 179 -70q87 0 124 36q34 33 34 100q0 76 -49 114q-44 33 -87 45l-94 27q-163 46 -235 124q-73 79 -73 209q0 76 39 132
q-39 68 -39 164q0 111 91 186q96 80 275 80q161 0 277 -110q50 -47 63 -79l-124 -98q-70 85 -140 105q-35 11 -94 11t-100.5 -30t-41.5 -88q0 -67 59 -104q52 -33 105 -49l90 -25q212 -60 263 -203q21 -58 21 -135q0 -70 -35 -128zM288 805q-2 -10 -2 -21q0 -67 59 -104
q52 -33 105 -49l90 -25q42 -12 78 -27q-1 34 -6 52q-7 22 -16 37.5t-27.5 29.5t-32.5 22t-40 17.5t-42 14.5l-66 18q-55 15 -100 35z" />
    <glyph glyph-name="dieresis" unicode="&#xa8;" horiz-adv-x="655" 
d="M396 1203v243h242v-243h-242zM16 1203v243h242v-243h-242z" />
    <glyph glyph-name="copyright" unicode="&#xa9;" horiz-adv-x="1098" 
d="M757 639q-50 -189 -202 -189q-72 0 -123 42q-99 79 -99 250q0 117 54 201q57 90 168 90q114 0 167 -114q17 -38 23 -68l-89 -21q-12 72 -58 103q-21 14 -51.5 14t-55.5 -30q-47 -56 -47 -175q0 -206 112 -206q66 0 99 83q7 18 8 32zM59 742q0 99 39 190t105 156.5
t156.5 104.5t190 39t190 -39t156.5 -104.5t104.5 -156.5t38.5 -190t-38.5 -190t-104.5 -156.5t-156.5 -104.5t-190 -39t-190 39t-156.5 104.5t-105 156.5t-39 190zM164 744q0 -105 51.5 -194t140.5 -140.5t193.5 -51.5t193.5 51.5t140.5 140.5t51.5 194t-51.5 194
t-140.5 140.5t-193.5 51.5t-193.5 -51.5t-140.5 -140.5t-51.5 -194z" />
    <glyph glyph-name="ordfeminine" unicode="&#xaa;" horiz-adv-x="554" 
d="M246 1123q39 0 102 55v108q-80 -18 -117.5 -41.5t-37.5 -66.5q0 -55 53 -55zM348 1093q-49 -49 -101.5 -49t-80 12t-40.5 32q-26 37 -26 80q0 85 56 127t192 68q0 62 -30 72q-16 5 -39 5t-41 -6.5t-29 -14.5t-19 -18q-12 -14 -16 -24l-61 38q27 57 65 79q43 25 113 25
t110 -34.5t40 -126.5v-240q0 -39 13 -65h-93q-13 8 -13 40z" />
    <glyph glyph-name="guillemotleft" unicode="&#xab;" horiz-adv-x="1022" 
d="M110 1276l296 298l102 -108l-188 -190l190 -192l-106 -106zM478 1276l296 298l102 -108l-188 -190l190 -192l-106 -106z" />
    <glyph glyph-name="logicalnot" unicode="&#xac;" horiz-adv-x="1201" 
d="M79 667v182h976v-510h-180v328h-796z" />
    <glyph glyph-name="uni00AD" unicode="&#xad;" horiz-adv-x="1130" 
d="M101 666v149h928v-149h-928z" />
    <glyph glyph-name="registered" unicode="&#xae;" horiz-adv-x="1098" 
d="M568 787q70 0 70 65q0 32 -24.5 43.5t-78.5 11.5h-53v-120h86zM379 492v510h217q113 0 147 -104q8 -24 8 -55t-22.5 -79t-66.5 -64l90 -208h-116l-93 203h-61v-203h-103zM59 742q0 99 39 190t105 156.5t156.5 104.5t190 39t190 -39t156.5 -104.5t104.5 -156.5t38.5 -190
t-38.5 -190t-104.5 -156.5t-156.5 -104.5t-190 -39t-190 39t-156.5 104.5t-105 156.5t-39 190zM164 744q0 -105 51.5 -194t140.5 -140.5t193.5 -51.5t193.5 51.5t140.5 140.5t51.5 194t-51.5 194t-140.5 140.5t-193.5 51.5t-193.5 -51.5t-140.5 -140.5t-51.5 -194z" />
    <glyph glyph-name="macron" unicode="&#xaf;" horiz-adv-x="807" 
d="M99 1203v149h609v-149h-609z" />
    <glyph glyph-name="degree" unicode="&#xb0;" horiz-adv-x="798" 
d="M262 1241q0 -57 40 -97t97 -40t97 40t40 97t-40 97t-97 40t-97 -40t-40 -97zM112 1241q0 119 84.5 203t203 84t202.5 -84t84 -203t-84 -203t-202.5 -84t-203 84t-84.5 203z" />
    <glyph glyph-name="plusminus" unicode="&#xb1;" horiz-adv-x="915" 
d="M34 189v215h841v-215h-841zM34 799v215h314v314h214v-314h313v-215h-313v-314h-214v314h-314z" />
    <glyph glyph-name="two.superior" unicode="&#xb2;" horiz-adv-x="501" 
d="M94 1055q0 77 36 127q41 55 105 96.5t78 62.5t14 51.5t-19 49.5t-56.5 19t-54.5 -26t-17 -58h-73q0 64 42.5 104.5t107.5 40.5t104 -38t39 -75.5t-9.5 -61t-28.5 -43.5q-28 -31 -70 -61.5t-79 -66t-39 -51.5h219v-70h-299z" />
    <glyph glyph-name="three.superior" unicode="&#xb3;" horiz-adv-x="510" 
d="M113 1448q49 69 155 69q52 0 89 -37t37 -76t-19.5 -71.5t-37.5 -40.5q27 -9 49.5 -43t22.5 -80t-37.5 -84.5t-104.5 -38.5q-108 0 -166 81l48 39q51 -59 98 -59q90 0 90 73q0 29 -22.5 54t-56.5 25h-64v62h64q31 0 47.5 22t16.5 49t-18.5 45.5t-61 18.5t-87.5 -48z" />
    <glyph glyph-name="acute" unicode="&#xb4;" horiz-adv-x="665" 
d="M554 1396l-356 -301l-87 86l327 338z" />
    <glyph glyph-name="micro" unicode="&#xb5;" horiz-adv-x="1022" 
d="M332 -410h-214v1465h214v-735q0 -72 43.5 -114.5t103 -42.5t119 35.5t88.5 70.5v786h214v-1055h-214v112q-130 -130 -270 -130q-44 0 -84 8v-400z" />
    <glyph glyph-name="paragraph" unicode="&#xb6;" horiz-adv-x="1140" 
d="M658 813h138v501h-138v-501zM292 1130q-2 -25 -2 -53t3 -56t12.5 -63t23.5 -63q35 -65 101 -67v471q-126 -12 -138 -169zM52 1061q0 50 5 89t18.5 83t34 83.5t53.5 76.5t75 63q91 59 228 59h558v-1515h-228v611h-138v-611h-228v611q-204 0 -315 209q-63 119 -63 241z" />
    <glyph glyph-name="periodcentered" unicode="&#xb7;" horiz-adv-x="343" 
d="M50 744v243h244v-243h-244z" />
    <glyph glyph-name="cedilla" unicode="&#xb8;" horiz-adv-x="340" 
d="M194 0q96 -96 96 -215q0 -83 -112 -117q-66 -20 -172 -15v152q125 0 125 46q0 80 -56 149h119z" />
    <glyph glyph-name="one.superior" unicode="&#xb9;" horiz-adv-x="458" 
d="M116 1480l99 35h53v-391h67v-69h-213v69h74v322l-59 -17z" />
    <glyph glyph-name="ordmasculine" unicode="&#xba;" horiz-adv-x="567" 
d="M283 1127q95 0 95 159q0 77 -20.5 118t-74 41t-74.5 -41t-21 -118q0 -159 95 -159zM283 1048q-188 0 -188 238q0 109 49.5 173.5t137.5 64.5t138.5 -65t50.5 -173q0 -238 -188 -238z" />
    <glyph glyph-name="guillemotright" unicode="&#xbb;" horiz-adv-x="955" 
d="M878 1276l-296 -298l-102 108l188 190l-190 192l106 106zM510 1276l-296 -298l-102 108l188 190l-190 192l106 106z" />
    <glyph glyph-name="onequarter" unicode="&#xbc;" horiz-adv-x="1153" 
d="M681 275h186v288zM552 175v97l315 483h119v-480h115v-100h-115v-175h-119v175h-315zM58 1458l163 57h87v-640h109v-115h-350v115h121v528l-96 -28zM115 -47l748 1601h158l-748 -1601h-158z" />
    <glyph glyph-name="onehalf" unicode="&#xbd;" horiz-adv-x="1171" 
d="M58 1458l163 57h87v-640h109v-115h-350v115h121v528l-96 -28zM115 -47l748 1601h158l-748 -1601h-158zM611 -13q0 89 16.5 126.5t36 69t47.5 59.5q66 68 151 123.5t108.5 90t23.5 84.5t-31.5 81t-77 31t-71 -13.5t-38.5 -36.5q-24 -41 -24 -88h-119q0 105 70.5 171.5
t177 66.5t169.5 -61.5t63 -142.5q0 -116 -130 -218q-20 -16 -67 -50.5t-108.5 -93t-65.5 -84.5h360v-115h-491z" />
    <glyph glyph-name="threequarters" unicode="&#xbe;" horiz-adv-x="1231" 
d="M759 275h186v288zM630 175v97l315 483h119v-480h115v-100h-115v-175h-119v175h-315zM193 -47l748 1601h158l-748 -1601h-158zM61 902l79 64q72 -97 179 -97q58 0 93.5 30.5t35.5 83t-37.5 94.5t-91.5 42h-105v102h105q50 0 77.5 36t27.5 80.5t-31 74.5t-81 30
q-87 0 -161 -78l-71 65q34 49 101.5 81t153 32t147 -61t61.5 -124.5t-32.5 -117.5t-61.5 -67q43 -14 80.5 -70t37.5 -108t-15 -89.5t-43 -68.5q-62 -67 -175 -67q-180 0 -273 133z" />
    <glyph glyph-name="questiondown" unicode="&#xbf;" horiz-adv-x="860" 
d="M642 1526v-243h-243v243h243zM801 237q-71 -140 -159 -191q-81 -46 -188.5 -46t-192 49t-136 136.5t-51.5 170t18.5 142.5t48.5 108.5t66 95.5t72.5 88.5t66.5 79.5q67 86 67 149v164h210v-151q0 -103 -66 -203q-29 -44 -64 -88l-70 -86q-84 -100 -106.5 -156.5
t-22.5 -117t47.5 -122.5t113.5 -62q120 0 189 145z" />
    <glyph glyph-name="Agrave" unicode="&#xc0;" horiz-adv-x="1130" 
d="M238 1966l116 123l327 -338l-87 -86zM432 640h283l-141 489zM2 0l432 1515h262l432 -1515h-231l-125 439h-397l-125 -439h-248z" />
    <glyph glyph-name="Aacute" unicode="&#xc1;" horiz-adv-x="1130" 
d="M931 1966l-356 -301l-87 86l327 338zM432 640h283l-141 489zM2 0l432 1515h262l432 -1515h-231l-125 439h-397l-125 -439h-248z" />
    <glyph glyph-name="Acircumflex" unicode="&#xc2;" horiz-adv-x="1130" 
d="M323 1760l248 248l249 -249l-94 -92l-153 153l-155 -155zM432 640h283l-141 489zM2 0l432 1515h262l432 -1515h-231l-125 439h-397l-125 -439h-248z" />
    <glyph glyph-name="Atilde" unicode="&#xc3;" horiz-adv-x="1130" 
d="M886 1865q-71 -200 -223 -200q-84 0 -149.5 45t-105 45t-59.5 -21t-37 -62l-130 60q23 91 89.5 145t121.5 54t94 -14.5t63 -31.5q64 -46 112 -46q38 0 55 23q22 31 35 65zM432 640h283l-141 489zM2 0l432 1515h262l432 -1515h-231l-125 439h-397l-125 -439h-248z" />
    <glyph glyph-name="Adieresis" unicode="&#xc4;" horiz-adv-x="1130" 
d="M635 1665v243h242v-243h-242zM255 1665v243h242v-243h-242zM432 640h283l-141 489zM2 0l432 1515h262l432 -1515h-231l-125 439h-397l-125 -439h-248z" />
    <glyph glyph-name="Aring" unicode="&#xc5;" horiz-adv-x="1130" 
d="M248.5 1746q-0.5 118 84 202.5t203 84.5t202.5 -84.5t84 -202.5t-84 -203q-19 -19 -40 -34l430 -1509h-231l-125 439h-397l-125 -439h-248l422 1481q-50 21 -91 62q-84 85 -84.5 203zM398 1746q0 -57 40 -97t97 -40t97 40t40 97t-40 97t-97 40t-97 -40t-40 -97zM432 640
h283l-141 489z" />
    <glyph glyph-name="AE" unicode="&#xc6;" horiz-adv-x="1741" 
d="M687 640v674h-57l-193 -674h250zM687 439h-307l-125 -439h-253l432 1515h1120v-201h-628v-419h437v-202h-437v-478h666v-215h-905v439z" />
    <glyph glyph-name="Ccedilla" unicode="&#xc7;" horiz-adv-x="1183" 
d="M79 570q-16 94 -16 190t15 189t44.5 181.5t77 163t108.5 130.5q130 119 323 119q245 0 387 -245q69 -119 93 -245v-1l-208 -56q-16 107 -38 156.5t-44 83t-48 55.5q-62 51 -140.5 51t-134.5 -35.5t-92 -93t-60 -134.5q-44 -142 -44 -320q0 -472 224 -564q48 -20 102 -20
t96.5 14t71.5 36.5t51.5 53.5t36 62.5t21.5 64.5q15 58 15 108l223 -31q-45 -192 -157 -333q-119 -148 -290 -171q89 -94 89 -208q0 -84 -112 -118q-65 -20 -172 -14v152q125 0 125 46q0 74 -49 140q-228 22 -373 248q-91 141 -125 345z" />
    <glyph glyph-name="Egrave" unicode="&#xc8;" horiz-adv-x="1079" 
d="M230 1966l116 123l327 -338l-87 -86zM123 0v1515h867v-201h-628v-419h437v-202h-437v-478h666v-215h-905z" />
    <glyph glyph-name="Eacute" unicode="&#xc9;" horiz-adv-x="1079" 
d="M923 1966l-356 -301l-87 86l327 338zM123 0v1515h867v-201h-628v-419h437v-202h-437v-478h666v-215h-905z" />
    <glyph glyph-name="Ecircumflex" unicode="&#xca;" horiz-adv-x="1079" 
d="M314 1760l248 248l249 -249l-94 -92l-153 153l-155 -155zM123 0v1515h867v-201h-628v-419h437v-202h-437v-478h666v-215h-905z" />
    <glyph glyph-name="Edieresis" unicode="&#xcb;" horiz-adv-x="1079" 
d="M627 1665v243h242v-243h-242zM247 1665v243h242v-243h-242zM123 0v1515h867v-201h-628v-419h437v-202h-437v-478h666v-215h-905z" />
    <glyph glyph-name="Igrave" unicode="&#xcc;" horiz-adv-x="437" 
d="M-109 1966l116 123l327 -338l-87 -86zM99 0v1515h239v-1515h-239z" />
    <glyph glyph-name="Iacute" unicode="&#xcd;" horiz-adv-x="437" 
d="M584 1966l-356 -301l-87 86l327 338zM99 0v1515h239v-1515h-239z" />
    <glyph glyph-name="Icircumflex" unicode="&#xce;" horiz-adv-x="437" 
d="M-24 1760l248 248l249 -249l-94 -92l-153 153l-155 -155zM99 0v1515h239v-1515h-239z" />
    <glyph glyph-name="Idieresis" unicode="&#xcf;" horiz-adv-x="437" 
d="M288 1665v243h242v-243h-242zM-92 1665v243h242v-243h-242zM99 0v1515h239v-1515h-239z" />
    <glyph glyph-name="Eth" unicode="&#xd0;" horiz-adv-x="1214" 
d="M351 201h144q103 0 183 38t125.5 95t74.5 134q50 128 50 248.5t-11.5 198t-41.5 153t-77 128.5q-105 118 -303 118h-144v-481h291v-181h-291v-451zM9 652v181h103v682h357q549 0 661 -441q37 -143 37 -298t-22 -262t-73.5 -203t-129.5 -164q-170 -147 -473 -147h-357v652
h-103z" />
    <glyph glyph-name="Ntilde" unicode="&#xd1;" horiz-adv-x="1272" 
d="M957 1865q-71 -200 -223 -200q-84 0 -149.5 45t-105 45t-59.5 -21t-37 -62l-130 60q23 91 89.5 145t121.5 54t94 -14.5t63 -31.5q64 -46 112 -46q38 0 55 23q22 31 35 65zM917 585v930h238v-1515h-190l-612 1162v-1162h-238v1515h308z" />
    <glyph glyph-name="Ograve" unicode="&#xd2;" horiz-adv-x="1274" 
d="M322 1966l116 123l327 -338l-87 -86zM306 858q-4 -52 -4 -106.5t4 -107.5t14.5 -112t26.5 -109t43.5 -96.5t61.5 -79.5q77 -72 194 -72q325 0 325 578q0 471 -220 568q-48 21 -106.5 21t-108 -21t-84 -55.5t-62 -83.5t-43.5 -101t-26.5 -111.5t-14.5 -111.5zM73 601
q-10 76 -10 151t9 151t30 154.5t52 148.5t78.5 132.5t106.5 107.5q127 97 309 97q250 0 400 -206q162 -224 162 -585q0 -368 -156 -580q-146 -198 -406 -198q-247 0 -405 199q-134 168 -170 428z" />
    <glyph glyph-name="Oacute" unicode="&#xd3;" horiz-adv-x="1274" 
d="M1015 1966l-356 -301l-87 86l327 338zM306 858q-4 -52 -4 -106.5t4 -107.5t14.5 -112t26.5 -109t43.5 -96.5t61.5 -79.5q77 -72 194 -72q325 0 325 578q0 471 -220 568q-48 21 -106.5 21t-108 -21t-84 -55.5t-62 -83.5t-43.5 -101t-26.5 -111.5t-14.5 -111.5zM73 601
q-10 76 -10 151t9 151t30 154.5t52 148.5t78.5 132.5t106.5 107.5q127 97 309 97q250 0 400 -206q162 -224 162 -585q0 -368 -156 -580q-146 -198 -406 -198q-247 0 -405 199q-134 168 -170 428z" />
    <glyph glyph-name="Ocircumflex" unicode="&#xd4;" horiz-adv-x="1274" 
d="M406 1760l248 248l249 -249l-94 -92l-153 153l-155 -155zM306 858q-4 -52 -4 -106.5t4 -107.5t14.5 -112t26.5 -109t43.5 -96.5t61.5 -79.5q77 -72 194 -72q325 0 325 578q0 471 -220 568q-48 21 -106.5 21t-108 -21t-84 -55.5t-62 -83.5t-43.5 -101t-26.5 -111.5
t-14.5 -111.5zM73 601q-10 76 -10 151t9 151t30 154.5t52 148.5t78.5 132.5t106.5 107.5q127 97 309 97q250 0 400 -206q162 -224 162 -585q0 -368 -156 -580q-146 -198 -406 -198q-247 0 -405 199q-134 168 -170 428z" />
    <glyph glyph-name="Otilde" unicode="&#xd5;" horiz-adv-x="1274" 
d="M970 1865q-71 -200 -223 -200q-84 0 -149.5 45t-105 45t-59.5 -21t-37 -62l-130 60q23 91 89.5 145t121.5 54t94 -14.5t63 -31.5q64 -46 112 -46q38 0 55 23q22 31 35 65zM306 858q-4 -52 -4 -106.5t4 -107.5t14.5 -112t26.5 -109t43.5 -96.5t61.5 -79.5q77 -72 194 -72
q325 0 325 578q0 471 -220 568q-48 21 -106.5 21t-108 -21t-84 -55.5t-62 -83.5t-43.5 -101t-26.5 -111.5t-14.5 -111.5zM73 601q-10 76 -10 151t9 151t30 154.5t52 148.5t78.5 132.5t106.5 107.5q127 97 309 97q250 0 400 -206q162 -224 162 -585q0 -368 -156 -580
q-146 -198 -406 -198q-247 0 -405 199q-134 168 -170 428z" />
    <glyph glyph-name="Odieresis" unicode="&#xd6;" horiz-adv-x="1274" 
d="M719 1665v243h242v-243h-242zM339 1665v243h242v-243h-242zM306 858q-4 -52 -4 -106.5t4 -107.5t14.5 -112t26.5 -109t43.5 -96.5t61.5 -79.5q77 -72 194 -72q325 0 325 578q0 471 -220 568q-48 21 -106.5 21t-108 -21t-84 -55.5t-62 -83.5t-43.5 -101t-26.5 -111.5
t-14.5 -111.5zM73 601q-10 76 -10 151t9 151t30 154.5t52 148.5t78.5 132.5t106.5 107.5q127 97 309 97q250 0 400 -206q162 -224 162 -585q0 -368 -156 -580q-146 -198 -406 -198q-247 0 -405 199q-134 168 -170 428z" />
    <glyph glyph-name="multiply" unicode="&#xd7;" horiz-adv-x="999" 
d="M-5 1044l152 152l304 -304l304 304l152 -151l-304 -304l302 -304l-152 -152l-302 304l-304 -304l-152 151l304 304z" />
    <glyph glyph-name="Oslash" unicode="&#xd8;" horiz-adv-x="1261" 
d="M302 625.5q6 -61.5 20 -129.5q5 -26 11 -49l481 830q-70 65 -174 65q-138 0 -216 -103q-77 -100 -102 -233q-26 -131 -26 -225t6 -155.5zM71.5 575.5q-14.5 88.5 -14.5 170t9 157.5t30 154.5t52 148.5t78.5 132.5t106.5 107.5q127 97 309 97q164 0 279 -82l73 127
l185 -107l-109 -189q91 -149 122 -366q12 -87 12 -185.5t-15.5 -202t-56 -208.5t-102 -182t-161.5 -125.5t-214 -48.5t-201 34q-54 20 -99 51l-79 -137l-183 109l110 190l-9 14q-49 76 -78.5 164t-44 176.5zM932 1055l-474 -819q71 -61 182 -61q137 0 209.5 97t94.5 225
q21 129 21 219.5t-3.5 141.5t-12.5 111q-7 45 -17 86z" />
    <glyph glyph-name="Ugrave" unicode="&#xd9;" horiz-adv-x="1234" 
d="M294 1966l116 123l327 -338l-87 -86zM123 448v1067h239v-1010q0 -253 163 -314q42 -16 94 -16t94 14t68 35t45 53.5t28 59.5t15 64q6 48 6 104v1010h244v-1067q0 -229 -151 -363q-125 -111 -348 -111q-339 0 -450 257q-47 106 -47 217z" />
    <glyph glyph-name="Uacute" unicode="&#xda;" horiz-adv-x="1234" 
d="M987 1966l-356 -301l-87 86l327 338zM123 448v1067h239v-1010q0 -253 163 -314q42 -16 94 -16t94 14t68 35t45 53.5t28 59.5t15 64q6 48 6 104v1010h244v-1067q0 -229 -151 -363q-125 -111 -348 -111q-339 0 -450 257q-47 106 -47 217z" />
    <glyph glyph-name="Ucircumflex" unicode="&#xdb;" horiz-adv-x="1234" 
d="M379 1760l248 248l249 -249l-94 -92l-153 153l-155 -155zM123 448v1067h239v-1010q0 -253 163 -314q42 -16 94 -16t94 14t68 35t45 53.5t28 59.5t15 64q6 48 6 104v1010h244v-1067q0 -229 -151 -363q-125 -111 -348 -111q-339 0 -450 257q-47 106 -47 217z" />
    <glyph glyph-name="Udieresis" unicode="&#xdc;" horiz-adv-x="1234" 
d="M691 1665v243h242v-243h-242zM311 1665v243h242v-243h-242zM123 448v1067h239v-1010q0 -253 163 -314q42 -16 94 -16t94 14t68 35t45 53.5t28 59.5t15 64q6 48 6 104v1010h244v-1067q0 -229 -151 -363q-125 -111 -348 -111q-339 0 -450 257q-47 106 -47 217z" />
    <glyph glyph-name="Yacute" unicode="&#xdd;" horiz-adv-x="1122" 
d="M927 1966l-356 -301l-87 86l327 338zM680 701v-701h-238v701l-440 814h252l307 -573l307 573h252z" />
    <glyph glyph-name="Thorn" unicode="&#xde;" horiz-adv-x="1151" 
d="M365 519h138q256 0 329 137q27 51 27 125.5t-47 130.5q-89 105 -309 105h-138v-498zM125 0v1515h240v-297h282q264 0 387 -203q65 -108 65 -232q0 -235 -148 -366q-112 -99 -304 -99h-282v-318h-240z" />
    <glyph glyph-name="germandbls" unicode="&#xdf;" horiz-adv-x="1202" 
d="M443.5 963.5q52.5 63.5 167 126t114.5 139.5q0 52 -40.5 80t-92 28t-80.5 -6.5t-51.5 -15t-39 -30t-28 -39t-19 -55.5t-12 -65.5t-6.5 -83.5q-3 -79 -3 -206v-836h-228v882q0 245 13.5 306.5t29 112t38.5 79.5t57.5 62t78.5 50q105 39 216 39t191 -40.5t129 -110t49 -161
t-47 -168.5t-141 -121q-97 -46 -112 -66q-30 -39 -30 -71t8 -51.5t19 -33.5t32.5 -28t38.5 -22.5t49 -19.5t51 -16l56 -16q212 -59 263 -203q21 -58 21 -137.5t-49.5 -145.5t-130.5 -102t-163 -36t-135.5 10t-104.5 35q-96 49 -173 185l148 90q36 -50 66 -80q70 -70 178 -70
q87 0 124 36q34 33 34 100q0 76 -49 114q-44 33 -87 46l-94 26q-163 46 -235 124q-73 79 -73 190.5t52.5 175z" />
    <glyph glyph-name="agrave" unicode="&#xe0;" 
d="M168 1496l116 123l327 -338l-87 -86zM284 272q0 -59 29 -85.5t72 -26.5t64.5 5t42.5 15l37 19q16 9 36 25l29 23q8 7 26 23l18 17v247q-224 -52 -293 -112q-61 -54 -61 -150zM668 0q-30 18 -30 93l-19 -22q-86 -92 -246 -92q-194 0 -266 137q-37 68 -37 157t31.5 158.5
t102.5 122.5q129 96 434 157q0 71 -4.5 87t-10 30t-13.5 21.5t-20 16.5t-28 13q-39 10 -86.5 10t-89 -14.5t-66 -32.5t-44.5 -42q-26 -32 -37 -56l-140 86q44 91 76 121.5t63 52.5t66 35q84 31 171 31t138.5 -9.5t98 -34t76.5 -65.5q64 -89 64 -260v-552q0 -28 10.5 -79
t19.5 -70h-214z" />
    <glyph glyph-name="aacute" unicode="&#xe1;" 
d="M906 1442l-356 -301l-87 86l327 338zM284 272q0 -59 29 -85.5t72 -26.5t64.5 5t42.5 15l37 19q16 9 36 25l29 23q8 7 26 23l18 17v247q-224 -52 -293 -112q-61 -54 -61 -150zM668 0q-30 18 -30 93l-19 -22q-86 -92 -246 -92q-194 0 -266 137q-37 68 -37 157t31.5 158.5
t102.5 122.5q129 96 434 157q0 71 -4.5 87t-10 30t-13.5 21.5t-20 16.5t-28 13q-39 10 -86.5 10t-89 -14.5t-66 -32.5t-44.5 -42q-26 -32 -37 -56l-140 86q44 91 76 121.5t63 52.5t66 35q84 31 171 31t138.5 -9.5t98 -34t76.5 -65.5q64 -89 64 -260v-552q0 -28 10.5 -79
t19.5 -70h-214z" />
    <glyph glyph-name="acircumflex" unicode="&#xe2;" 
d="M255 1254l248 248l249 -249l-94 -92l-153 153l-155 -155zM284 272q0 -59 29 -85.5t72 -26.5t64.5 5t42.5 15l37 19q16 9 36 25l29 23q8 7 26 23l18 17v247q-224 -52 -293 -112q-61 -54 -61 -150zM668 0q-30 18 -30 93l-19 -22q-86 -92 -246 -92q-194 0 -266 137
q-37 68 -37 157t31.5 158.5t102.5 122.5q129 96 434 157q0 71 -4.5 87t-10 30t-13.5 21.5t-20 16.5t-28 13q-39 10 -86.5 10t-89 -14.5t-66 -32.5t-44.5 -42q-26 -32 -37 -56l-140 86q44 91 76 121.5t63 52.5t66 35q84 31 171 31t138.5 -9.5t98 -34t76.5 -65.5
q64 -89 64 -260v-552q0 -28 10.5 -79t19.5 -70h-214z" />
    <glyph glyph-name="atilde" unicode="&#xe3;" 
d="M839 1385q-71 -200 -223 -200q-84 0 -149.5 45t-105 45t-59.5 -21t-37 -62l-130 60q23 91 89.5 145t121.5 54t94 -14.5t63 -31.5q64 -46 112 -46q38 0 55 23q22 31 35 65zM284 272q0 -59 29 -85.5t72 -26.5t64.5 5t42.5 15l37 19q16 9 36 25l29 23q8 7 26 23l18 17v247
q-224 -52 -293 -112q-61 -54 -61 -150zM668 0q-30 18 -30 93l-19 -22q-86 -92 -246 -92q-194 0 -266 137q-37 68 -37 157t31.5 158.5t102.5 122.5q129 96 434 157q0 71 -4.5 87t-10 30t-13.5 21.5t-20 16.5t-28 13q-39 10 -86.5 10t-89 -14.5t-66 -32.5t-44.5 -42
q-26 -32 -37 -56l-140 86q44 91 76 121.5t63 52.5t66 35q84 31 171 31t138.5 -9.5t98 -34t76.5 -65.5q64 -89 64 -260v-552q0 -28 10.5 -79t19.5 -70h-214z" />
    <glyph glyph-name="adieresis" unicode="&#xe4;" 
d="M550 1188v243h242v-243h-242zM170 1188v243h242v-243h-242zM284 272q0 -59 29 -85.5t72 -26.5t64.5 5t42.5 15l37 19q16 9 36 25l29 23q8 7 26 23l18 17v247q-224 -52 -293 -112q-61 -54 -61 -150zM668 0q-30 18 -30 93l-19 -22q-86 -92 -246 -92q-194 0 -266 137
q-37 68 -37 157t31.5 158.5t102.5 122.5q129 96 434 157q0 71 -4.5 87t-10 30t-13.5 21.5t-20 16.5t-28 13q-39 10 -86.5 10t-89 -14.5t-66 -32.5t-44.5 -42q-26 -32 -37 -56l-140 86q44 91 76 121.5t63 52.5t66 35q84 31 171 31t138.5 -9.5t98 -34t76.5 -65.5
q64 -89 64 -260v-552q0 -28 10.5 -79t19.5 -70h-214z" />
    <glyph glyph-name="aring" unicode="&#xe5;" 
d="M376 1412q0 -57 40 -97t97 -40t97 40t40 97t-40 97t-97 40t-97 -40t-40 -97zM226 1412q0 119 84.5 203t203 84t202.5 -84t84 -203t-84 -203t-202.5 -84t-203 84t-84.5 203zM284 272q0 -59 29 -85.5t72 -26.5t64.5 5t42.5 15l37 19q16 9 36 25l29 23q8 7 26 23l18 17v247
q-224 -52 -293 -112q-61 -54 -61 -150zM668 0q-30 18 -30 93l-19 -22q-86 -92 -246 -92q-194 0 -266 137q-37 68 -37 157t31.5 158.5t102.5 122.5q129 96 434 157q0 71 -4.5 87t-10 30t-13.5 21.5t-20 16.5t-28 13q-39 10 -86.5 10t-89 -14.5t-66 -32.5t-44.5 -42
q-26 -32 -37 -56l-140 86q44 91 76 121.5t63 52.5t66 35q84 31 171 31t138.5 -9.5t98 -34t76.5 -65.5q64 -89 64 -260v-552q0 -28 10.5 -79t19.5 -70h-214z" />
    <glyph glyph-name="ae" unicode="&#xe6;" horiz-adv-x="1540" 
d="M851 654h370q0 78 -27 134q-52 104 -144 104q-123 0 -174 -116q-25 -58 -25 -122zM482 1070q205 0 287 -103q105 106 283 106q197 0 300 -165q97 -154 91 -437h-602q0 -203 107 -272q55 -36 115.5 -36t100.5 15t64 34t44 45q26 32 37 59l136 -88q-71 -127 -158 -185
q-92 -61 -215 -61q-263 0 -375 196l-8 -13t-15 -22l-21 -27q-13 -18 -28 -32l-35 -30q-90 -75 -230 -75q-194 0 -267 137q-36 68 -36 158.5t30.5 161t101.5 123.5q128 94 436 152q0 71 -4.5 87t-10 30t-13.5 21.5t-20 16.5t-28 13q-39 10 -86.5 10t-89 -14.5t-66 -32.5
t-44.5 -42q-27 -32 -37 -56l-140 86q44 91 75.5 121.5t63 52.5t66.5 35q84 31 191 31zM271 288q0 -128 122 -128q45 0 76 15.5t47 24t36 24.5l29 23q8 7 26 23l18 17v247q-224 -52 -293 -112q-61 -54 -61 -134z" />
    <glyph glyph-name="ccedilla" unicode="&#xe7;" horiz-adv-x="937" 
d="M59 520q0 314 137 447q108 106 302.5 106t304.5 -164q36 -53 50 -99l-181 -80q-8 82 -67 130q-40 32 -99 32q-233 0 -233 -363q0 -179 61 -272.5t178 -93.5q82 0 133 60q44 52 64 111l164 -72q-23 -89 -98 -169q-83 -88 -202 -106q90 -94 89 -208q0 -84 -111 -118
q-66 -20 -173 -14v152q126 0 126 46q0 74 -49 139q-396 30 -396 536z" />
    <glyph glyph-name="egrave" unicode="&#xe8;" horiz-adv-x="936" 
d="M157 1496l116 123l327 -338l-87 -86zM283 652h370q0 78 -27 135q-52 105 -144 105q-55 0 -96.5 -24.5t-62.5 -63.5q-40 -73 -40 -152zM71.5 345.5q-12.5 72.5 -12.5 183t26 214.5t67 165.5t99 99.5q99 65 233 65q126 0 220 -75q176 -142 168 -527h-599q0 -202 107 -272
q55 -36 115.5 -36t100.5 15t64 34t44 44q27 35 37 60l136 -88q-74 -129 -158 -184q-93 -62 -204.5 -62t-190 29t-128 77t-81 116.5t-44 141z" />
    <glyph glyph-name="eacute" unicode="&#xe9;" horiz-adv-x="936" 
d="M850 1496l-356 -301l-87 86l327 338zM283 652h370q0 78 -27 135q-52 105 -144 105q-55 0 -96.5 -24.5t-62.5 -63.5q-40 -73 -40 -152zM71.5 345.5q-12.5 72.5 -12.5 183t26 214.5t67 165.5t99 99.5q99 65 233 65q126 0 220 -75q176 -142 168 -527h-599q0 -202 107 -272
q55 -36 115.5 -36t100.5 15t64 34t44 44q27 35 37 60l136 -88q-74 -129 -158 -184q-93 -62 -204.5 -62t-190 29t-128 77t-81 116.5t-44 141z" />
    <glyph glyph-name="ecircumflex" unicode="&#xea;" horiz-adv-x="936" 
d="M242 1290l248 248l249 -249l-94 -92l-153 153l-155 -155zM283 652h370q0 78 -27 135q-52 105 -144 105q-55 0 -96.5 -24.5t-62.5 -63.5q-40 -73 -40 -152zM71.5 345.5q-12.5 72.5 -12.5 183t26 214.5t67 165.5t99 99.5q99 65 233 65q126 0 220 -75q176 -142 168 -527
h-599q0 -202 107 -272q55 -36 115.5 -36t100.5 15t64 34t44 44q27 35 37 60l136 -88q-74 -129 -158 -184q-93 -62 -204.5 -62t-190 29t-128 77t-81 116.5t-44 141z" />
    <glyph glyph-name="edieresis" unicode="&#xeb;" horiz-adv-x="936" 
d="M554 1195v243h242v-243h-242zM174 1195v243h242v-243h-242zM283 652h370q0 78 -27 135q-52 105 -144 105q-55 0 -96.5 -24.5t-62.5 -63.5q-40 -73 -40 -152zM71.5 345.5q-12.5 72.5 -12.5 183t26 214.5t67 165.5t99 99.5q99 65 233 65q126 0 220 -75q176 -142 168 -527
h-599q0 -202 107 -272q55 -36 115.5 -36t100.5 15t64 34t44 44q27 35 37 60l136 -88q-74 -129 -158 -184q-93 -62 -204.5 -62t-190 29t-128 77t-81 116.5t-44 141z" />
    <glyph glyph-name="igrave" unicode="&#xec;" horiz-adv-x="527" 
d="M-123 1496l116 123l327 -338l-87 -86zM96 0v1055h214v-1055h-214z" />
    <glyph glyph-name="iacute" unicode="&#xed;" horiz-adv-x="527" 
d="M570 1496l-356 -301l-87 86l327 338zM96 0v1055h214v-1055h-214z" />
    <glyph glyph-name="icircumflex" unicode="&#xee;" horiz-adv-x="527" 
d="M-39 1290l248 248l249 -249l-94 -92l-153 153l-155 -155zM96 0v1055h214v-1055h-214z" />
    <glyph glyph-name="idieresis" unicode="&#xef;" horiz-adv-x="527" 
d="M274 1195v243h242v-243h-242zM-106 1195v243h242v-243h-242zM96 0v1055h214v-1055h-214z" />
    <glyph glyph-name="eth" unicode="&#xf0;" horiz-adv-x="1015" 
d="M278 644q-5 -51 -5 -112.5t6.5 -112.5t22.5 -99t40 -82q53 -75 149 -75q218 0 218 364q0 209 -64 295q-52 70 -154 70q-188 0 -213 -248zM59 528q0 250 115.5 397.5t316.5 147.5q73 0 102 -8t54 -17q-4 24 -29 89t-37 85l-179 -102l-70 119l182 106q-40 53 -97.5 107
t-73.5 63h207q36 -19 101 -92l161 92l70 -119l-141 -82q167 -275 180 -674q2 -59 2 -145t-14.5 -163.5t-47.5 -143t-83 -110.5q-105 -96 -287 -96q-265 0 -369 219q-63 131 -63 327z" />
    <glyph glyph-name="ntilde" unicode="&#xf1;" horiz-adv-x="988" 
d="M822 1395q-71 -200 -223 -200q-84 0 -149.5 45t-105 45t-59.5 -21t-37 -62l-130 60q23 91 89.5 145t121.5 54t94 -14.5t63 -31.5q64 -46 112 -46q38 0 55 23q22 31 35 65zM892 791v-791h-214v735q0 72 -43.5 114.5t-103.5 42.5t-119 -35.5t-88 -70.5v-786h-214v1055h214
v-112q58 58 121.5 94t148.5 36q130 0 214 -70.5t84 -211.5z" />
    <glyph glyph-name="ograve" unicode="&#xf2;" horiz-adv-x="982" 
d="M165 1496l116 123l327 -338l-87 -86zM279 649q-6 -53 -6 -114t6 -110t21.5 -98t39.5 -85q54 -80 152 -80q217 0 217 365q0 214 -64 297q-52 68 -153 68q-185 0 -213 -243zM59 528q0 250 115.5 397.5t317.5 147.5q134 0 232 -68q199 -139 199 -478q0 -423 -264 -519
q-73 -27 -166.5 -27t-167.5 27t-123 75t-82 118q-61 130 -61 327z" />
    <glyph glyph-name="oacute" unicode="&#xf3;" horiz-adv-x="982" 
d="M858 1496l-356 -301l-87 86l327 338zM279 649q-6 -53 -6 -114t6 -110t21.5 -98t39.5 -85q54 -80 152 -80q217 0 217 365q0 214 -64 297q-52 68 -153 68q-185 0 -213 -243zM59 528q0 250 115.5 397.5t317.5 147.5q134 0 232 -68q199 -139 199 -478q0 -423 -264 -519
q-73 -27 -166.5 -27t-167.5 27t-123 75t-82 118q-61 130 -61 327z" />
    <glyph glyph-name="ocircumflex" unicode="&#xf4;" horiz-adv-x="982" 
d="M250 1290l248 248l249 -249l-94 -92l-153 153l-155 -155zM279 649q-6 -53 -6 -114t6 -110t21.5 -98t39.5 -85q54 -80 152 -80q217 0 217 365q0 214 -64 297q-52 68 -153 68q-185 0 -213 -243zM59 528q0 250 115.5 397.5t317.5 147.5q134 0 232 -68q199 -139 199 -478
q0 -423 -264 -519q-73 -27 -166.5 -27t-167.5 27t-123 75t-82 118q-61 130 -61 327z" />
    <glyph glyph-name="otilde" unicode="&#xf5;" horiz-adv-x="982" 
d="M813 1395q-71 -200 -223 -200q-84 0 -149.5 45t-105 45t-59.5 -21t-37 -62l-130 60q23 91 89.5 145t121.5 54t94 -14.5t63 -31.5q64 -46 112 -46q38 0 55 23q22 31 35 65zM279 649q-6 -53 -6 -114t6 -110t21.5 -98t39.5 -85q54 -80 152 -80q217 0 217 365q0 214 -64 297
q-52 68 -153 68q-185 0 -213 -243zM59 528q0 250 115.5 397.5t317.5 147.5q134 0 232 -68q199 -139 199 -478q0 -423 -264 -519q-73 -27 -166.5 -27t-167.5 27t-123 75t-82 118q-61 130 -61 327z" />
    <glyph glyph-name="odieresis" unicode="&#xf6;" horiz-adv-x="982" 
d="M562 1195v243h242v-243h-242zM182 1195v243h242v-243h-242zM279 649q-6 -53 -6 -114t6 -110t21.5 -98t39.5 -85q54 -80 152 -80q217 0 217 365q0 214 -64 297q-52 68 -153 68q-185 0 -213 -243zM59 528q0 250 115.5 397.5t317.5 147.5q134 0 232 -68q199 -139 199 -478
q0 -423 -264 -519q-73 -27 -166.5 -27t-167.5 27t-123 75t-82 118q-61 130 -61 327z" />
    <glyph glyph-name="divide" unicode="&#xf7;" horiz-adv-x="909" 
d="M31 633v215h841v-215h-841zM331 250v244h244v-244h-244zM333 984v244h244v-244h-244z" />
    <glyph glyph-name="oslash" unicode="&#xf8;" horiz-adv-x="1073" 
d="M560 883q-30 9 -74 9t-82.5 -17.5t-63 -48t-39.5 -77.5q-28 -84 -28 -186t10 -160zM697 691l-293 -508q39 -21 89 -21t89.5 22t63 57.5t38.5 84.5q25 86 25 192.5t-12 172.5zM261 -64l-186 107l67 116q-83 136 -83 377.5t115.5 389t317.5 147.5q87 0 161 -30l48 85
l186 -107l-66 -114q102 -146 102 -380q0 -423 -264 -519q-73 -27 -172.5 -27t-179.5 34z" />
    <glyph glyph-name="ugrave" unicode="&#xf9;" horiz-adv-x="998" 
d="M183 1496l116 123l327 -338l-87 -86zM118 264v791h214v-735q0 -72 43.5 -114.5t103 -42.5t119 35.5t88.5 70.5v786h214v-1055h-214v112q-130 -130 -270 -130q-126 0 -209 66q-89 71 -89 216z" />
    <glyph glyph-name="uacute" unicode="&#xfa;" horiz-adv-x="998" 
d="M876 1496l-356 -301l-87 86l327 338zM118 264v791h214v-735q0 -72 43.5 -114.5t103 -42.5t119 35.5t88.5 70.5v786h214v-1055h-214v112q-130 -130 -270 -130q-126 0 -209 66q-89 71 -89 216z" />
    <glyph glyph-name="ucircumflex" unicode="&#xfb;" horiz-adv-x="998" 
d="M267 1290l248 248l249 -249l-94 -92l-153 153l-155 -155zM118 264v791h214v-735q0 -72 43.5 -114.5t103 -42.5t119 35.5t88.5 70.5v786h214v-1055h-214v112q-130 -130 -270 -130q-126 0 -209 66q-89 71 -89 216z" />
    <glyph glyph-name="udieresis" unicode="&#xfc;" horiz-adv-x="998" 
d="M580 1195v243h242v-243h-242zM200 1195v243h242v-243h-242zM118 264v791h214v-735q0 -72 43.5 -114.5t103 -42.5t119 35.5t88.5 70.5v786h214v-1055h-214v112q-130 -130 -270 -130q-126 0 -209 66q-89 71 -89 216z" />
    <glyph glyph-name="yacute" unicode="&#xfd;" horiz-adv-x="903" 
d="M816 1496l-356 -301l-87 86l327 338zM2 1055h238l222 -633l198 633h238l-352 -1087q-53 -164 -88 -216t-63.5 -82t-61.5 -48q-105 -59 -310 -28l-9 1l10 199q37 -16 97.5 -16t97 16t59 41t38.5 55.5t24 61.5q15 61 16 112z" />
    <glyph glyph-name="thorn" unicode="&#xfe;" horiz-adv-x="1015" 
d="M332 231q56 -68 159 -68q152 0 214 114q51 91 51 267q0 250 -142 322q-52 26 -102 26t-75 -7.5t-45 -22.5q-31 -23 -60 -57v-574zM118 -409v1924h214v-550q13 23 52 52q76 56 163 56t156.5 -31t117.5 -82.5t83 -119.5q66 -132 66 -293q0 -289 -134 -445
q-103 -120 -283 -120q-54 0 -106.5 19t-81.5 40t-33 34v-484h-214z" />
    <glyph glyph-name="ydieresis" unicode="&#xff;" horiz-adv-x="903" 
d="M520 1195v243h242v-243h-242zM140 1195v243h242v-243h-242zM2 1055h238l222 -633l198 633h238l-352 -1087q-53 -164 -88 -216t-63.5 -82t-61.5 -48q-105 -59 -310 -28l-9 1l10 199q37 -16 97.5 -16t97 16t59 41t38.5 55.5t24 61.5q15 61 16 112z" />
    <glyph glyph-name="Amacron" unicode="&#x100;" horiz-adv-x="1130" 
d="M311 1626v149h609v-149h-609zM432 640h283l-141 489zM2 0l432 1515h262l432 -1515h-231l-125 439h-397l-125 -439h-248z" />
    <glyph glyph-name="amacron" unicode="&#x101;" 
d="M163 1160v149h609v-149h-609zM284 272q0 -59 29 -85.5t72 -26.5t64.5 5t42.5 15l37 19q16 9 36 25l29 23q8 7 26 23l18 17v247q-224 -52 -293 -112q-61 -54 -61 -150zM668 0q-30 18 -30 93l-19 -22q-86 -92 -246 -92q-194 0 -266 137q-37 68 -37 157t31.5 158.5
t102.5 122.5q129 96 434 157q0 71 -4.5 87t-10 30t-13.5 21.5t-20 16.5t-28 13q-39 10 -86.5 10t-89 -14.5t-66 -32.5t-44.5 -42q-26 -32 -37 -56l-140 86q44 91 76 121.5t63 52.5t66 35q84 31 171 31t138.5 -9.5t98 -34t76.5 -65.5q64 -89 64 -260v-552q0 -28 10.5 -79
t19.5 -70h-214z" />
    <glyph glyph-name="Abreve" unicode="&#x102;" horiz-adv-x="1130" 
d="M568 1654q-71 0 -139.5 47.5t-94.5 130.5l103 58q19 -44 55.5 -75.5t76 -31.5t75.5 31.5t55 75.5l103 -58q-26 -83 -94.5 -130.5t-139.5 -47.5zM432 640h283l-141 489zM2 0l432 1515h262l432 -1515h-231l-125 439h-397l-125 -439h-248z" />
    <glyph glyph-name="abreve" unicode="&#x103;" 
d="M421 1188q-71 0 -139.5 47.5t-94.5 130.5l103 58q19 -44 55.5 -75.5t76 -31.5t75.5 31.5t55 75.5l103 -58q-26 -83 -94.5 -130.5t-139.5 -47.5zM284 272q0 -59 29 -85.5t72 -26.5t64.5 5t42.5 15l37 19q16 9 36 25l29 23q8 7 26 23l18 17v247q-224 -52 -293 -112
q-61 -54 -61 -150zM668 0q-30 18 -30 93l-19 -22q-86 -92 -246 -92q-194 0 -266 137q-37 68 -37 157t31.5 158.5t102.5 122.5q129 96 434 157q0 71 -4.5 87t-10 30t-13.5 21.5t-20 16.5t-28 13q-39 10 -86.5 10t-89 -14.5t-66 -32.5t-44.5 -42q-26 -32 -37 -56l-140 86
q44 91 76 121.5t63 52.5t66 35q84 31 171 31t138.5 -9.5t98 -34t76.5 -65.5q64 -89 64 -260v-552q0 -28 10.5 -79t19.5 -70h-214z" />
    <glyph glyph-name="Aogonek" unicode="&#x104;" horiz-adv-x="1127" 
d="M1033 -150q0 -46 125 -46v-152q-106 -5 -149 8t-65.5 23.5t-36.5 23.5q-53 51 -21 157q23 74 84 135h119q-56 -68 -56 -149zM2 0l432 1515h262l432 -1515h-231l-125 439h-397l-125 -439h-248zM432 640h283l-141 489z" />
    <glyph glyph-name="aogonek" unicode="&#x105;" 
d="M891 -149q0 -46 125 -46v-152q-106 -5 -149 8t-65.5 23t-36.5 24q-53 51 -21 156q23 75 84 136h-160q-30 18 -30 93l-19 -22q-86 -92 -246 -92q-194 0 -266 137q-37 68 -37 157t31.5 158.5t102.5 122.5q129 96 434 157q0 71 -4.5 87t-10 30t-13.5 21.5t-20 16.5t-28 13
q-39 10 -86.5 10t-89 -14.5t-66 -32.5t-44.5 -42q-26 -32 -37 -56l-140 86q44 91 76 121.5t63 52.5t66 35q84 31 171 31t138.5 -9.5t98 -34t76.5 -65.5q64 -89 64 -260v-552q0 -28 10.5 -79t19.5 -70h65q-56 -69 -56 -149zM284 272q0 -59 29 -85.5t72 -26.5t64.5 5t42.5 15
l37 19q16 9 36 25l29 23q8 7 26 23l18 17v247q-224 -52 -293 -112q-61 -54 -61 -150z" />
    <glyph glyph-name="Cacute" unicode="&#x106;" horiz-adv-x="1183" 
d="M1043 1908l-356 -301l-87 86l327 338zM79 570q-16 94 -16 190t15 189t44.5 181.5t77 163t108.5 130.5q130 119 323 119q245 0 387 -245q69 -119 93 -245v-1l-208 -56q-16 107 -38 156.5t-44 83t-48 55.5q-62 51 -140.5 51t-134.5 -35.5t-92 -93t-60 -134.5
q-44 -142 -44 -320q0 -472 224 -564q48 -20 102 -20t96.5 14t71.5 36.5t51.5 53.5t36 62.5t21.5 64.5q15 58 15 108l223 -31q-45 -192 -157 -333q-142 -176 -357 -176q-264 0 -425 251q-91 141 -125 345z" />
    <glyph glyph-name="cacute" unicode="&#x107;" horiz-adv-x="937" 
d="M923 1442l-356 -301l-87 86l327 338zM59 520q0 314 137 447q108 106 302.5 106t304.5 -164q36 -53 50 -99l-181 -80q-8 82 -67 130q-40 32 -99 32q-233 0 -233 -363q0 -179 61 -272.5t178 -93.5q82 0 133 60q44 52 64 111l164 -72q-23 -89 -98 -169q-105 -111 -269 -111
q-447 0 -447 538z" />
    <glyph glyph-name="Ccircumflex" unicode="&#x108;" horiz-adv-x="1183" 
d="M382 1720l248 248l249 -249l-94 -92l-153 153l-155 -155zM79 570q-16 94 -16 190t15 189t44.5 181.5t77 163t108.5 130.5q130 119 323 119q245 0 387 -245q69 -119 93 -245v-1l-208 -56q-16 107 -38 156.5t-44 83t-48 55.5q-62 51 -140.5 51t-134.5 -35.5t-92 -93
t-60 -134.5q-44 -142 -44 -320q0 -472 224 -564q48 -20 102 -20t96.5 14t71.5 36.5t51.5 53.5t36 62.5t21.5 64.5q15 58 15 108l223 -31q-45 -192 -157 -333q-142 -176 -357 -176q-264 0 -425 251q-91 141 -125 345z" />
    <glyph glyph-name="ccircumflex" unicode="&#x109;" horiz-adv-x="937" 
d="M262 1254l248 248l249 -249l-94 -92l-153 153l-155 -155zM59 520q0 314 137 447q108 106 302.5 106t304.5 -164q36 -53 50 -99l-181 -80q-8 82 -67 130q-40 32 -99 32q-233 0 -233 -363q0 -179 61 -272.5t178 -93.5q82 0 133 60q44 52 64 111l164 -72q-23 -89 -98 -169
q-105 -111 -269 -111q-447 0 -447 538z" />
    <glyph glyph-name="Cdotaccent" unicode="&#x10a;" horiz-adv-x="1183" 
d="M493 1654v243h244v-243h-244zM79 570q-16 94 -16 190t15 189t44.5 181.5t77 163t108.5 130.5q130 119 323 119q245 0 387 -245q69 -119 93 -245v-1l-208 -56q-16 107 -38 156.5t-44 83t-48 55.5q-62 51 -140.5 51t-134.5 -35.5t-92 -93t-60 -134.5q-44 -142 -44 -320
q0 -472 224 -564q48 -20 102 -20t96.5 14t71.5 36.5t51.5 53.5t36 62.5t21.5 64.5q15 58 15 108l223 -31q-45 -192 -157 -333q-142 -176 -357 -176q-264 0 -425 251q-91 141 -125 345z" />
    <glyph glyph-name="cdotaccent" unicode="&#x10b;" horiz-adv-x="937" 
d="M373 1188v243h244v-243h-244zM59 520q0 314 137 447q108 106 302.5 106t304.5 -164q36 -53 50 -99l-181 -80q-8 82 -67 130q-40 32 -99 32q-233 0 -233 -363q0 -179 61 -272.5t178 -93.5q82 0 133 60q44 52 64 111l164 -72q-23 -89 -98 -169q-105 -111 -269 -111
q-447 0 -447 538z" />
    <glyph glyph-name="Ccaron" unicode="&#x10c;" horiz-adv-x="1183" 
d="M879 1902l-248 -248l-249 249l94 92l153 -153l155 155zM79 570q-16 94 -16 190t15 189t44.5 181.5t77 163t108.5 130.5q130 119 323 119q245 0 387 -245q69 -119 93 -245v-1l-208 -56q-16 107 -38 156.5t-44 83t-48 55.5q-62 51 -140.5 51t-134.5 -35.5t-92 -93
t-60 -134.5q-44 -142 -44 -320q0 -472 224 -564q48 -20 102 -20t96.5 14t71.5 36.5t51.5 53.5t36 62.5t21.5 64.5q15 58 15 108l223 -31q-45 -192 -157 -333q-142 -176 -357 -176q-264 0 -425 251q-91 141 -125 345z" />
    <glyph glyph-name="ccaron" unicode="&#x10d;" horiz-adv-x="937" 
d="M759 1436l-248 -248l-249 249l94 92l153 -153l155 155zM59 520q0 314 137 447q108 106 302.5 106t304.5 -164q36 -53 50 -99l-181 -80q-8 82 -67 130q-40 32 -99 32q-233 0 -233 -363q0 -179 61 -272.5t178 -93.5q82 0 133 60q44 52 64 111l164 -72q-23 -89 -98 -169
q-105 -111 -269 -111q-447 0 -447 538z" />
    <glyph glyph-name="Dcaron" unicode="&#x10e;" horiz-adv-x="1229" 
d="M797 1902l-248 -248l-249 249l94 92l153 -153l155 155zM362 201h144q209 0 322 151q111 150 111 395q0 467 -299 550q-61 17 -134 17h-144v-1113zM123 0v1515h357q548 0 662 -441q36 -141 36 -297t-21.5 -263t-73.5 -203t-130 -164q-171 -147 -473 -147h-357z" />
    <glyph glyph-name="dcaron" unicode="&#x10f;" horiz-adv-x="1361" 
d="M999 1068l80 250h-74v243h244v-197l-152 -296h-98zM717 789q-99 103 -216 103q-122 0 -175 -105q-47 -92 -47 -276q0 -203 66 -281q56 -67 166 -67q116 0 192 103q13 18 14 19v504zM931 143q0 -70 28 -143h-226q-3 5 -6 14l-10 65q-76 -97 -222 -97q-252 0 -366 233
q-64 130 -64 293q0 381 188 501q100 64 256 64q77 0 133.5 -30.5t74.5 -57.5v530h214v-1372z" />
    <glyph glyph-name="Dcroat" unicode="&#x110;" horiz-adv-x="1219" 
d="M352 201h144q103 0 183 38t125.5 95t74.5 134q50 128 50 248.5t-11.5 198t-41.5 153t-77 128.5q-105 118 -303 118h-144v-481h291v-181h-291v-451zM10 652v181h103v682h357q549 0 661 -441q37 -143 37 -298t-22 -262t-73.5 -203t-129.5 -164q-170 -147 -473 -147h-357
v652h-103z" />
    <glyph glyph-name="Emacron" unicode="&#x112;" horiz-adv-x="1079" 
d="M302 1626v149h609v-149h-609zM123 0v1515h867v-201h-628v-419h437v-202h-437v-478h666v-215h-905z" />
    <glyph glyph-name="emacron" unicode="&#x113;" horiz-adv-x="936" 
d="M226 1160v149h609v-149h-609zM283 652h370q0 78 -27 135q-52 105 -144 105q-55 0 -96.5 -24.5t-62.5 -63.5q-40 -73 -40 -152zM71.5 345.5q-12.5 72.5 -12.5 183t26 214.5t67 165.5t99 99.5q99 65 233 65q126 0 220 -75q176 -142 168 -527h-599q0 -202 107 -272
q55 -36 115.5 -36t100.5 15t64 34t44 44q27 35 37 60l136 -88q-74 -129 -158 -184q-93 -62 -204.5 -62t-190 29t-128 77t-81 116.5t-44 141z" />
    <glyph glyph-name="Ebreve" unicode="&#x114;" horiz-adv-x="1079" 
d="M559 1654q-71 0 -139.5 47.5t-94.5 130.5l103 58q19 -44 55.5 -75.5t76 -31.5t75.5 31.5t55 75.5l103 -58q-26 -83 -94.5 -130.5t-139.5 -47.5zM123 0v1515h867v-201h-628v-419h437v-202h-437v-478h666v-215h-905z" />
    <glyph glyph-name="ebreve" unicode="&#x115;" horiz-adv-x="936" 
d="M483 1188q-71 0 -139.5 47.5t-94.5 130.5l103 58q19 -44 55.5 -75.5t76 -31.5t75.5 31.5t55 75.5l103 -58q-26 -83 -94.5 -130.5t-139.5 -47.5zM283 652h370q0 78 -27 135q-52 105 -144 105q-55 0 -96.5 -24.5t-62.5 -63.5q-40 -73 -40 -152zM71.5 345.5
q-12.5 72.5 -12.5 183t26 214.5t67 165.5t99 99.5q99 65 233 65q126 0 220 -75q176 -142 168 -527h-599q0 -202 107 -272q55 -36 115.5 -36t100.5 15t64 34t44 44q27 35 37 60l136 -88q-74 -129 -158 -184q-93 -62 -204.5 -62t-190 29t-128 77t-81 116.5t-44 141z" />
    <glyph glyph-name="Edotaccent" unicode="&#x116;" horiz-adv-x="1079" 
d="M425 1654v243h244v-243h-244zM123 0v1515h867v-201h-628v-419h437v-202h-437v-478h666v-215h-905z" />
    <glyph glyph-name="edotaccent" unicode="&#x117;" horiz-adv-x="936" 
d="M348 1188v243h244v-243h-244zM283 652h370q0 78 -27 135q-52 105 -144 105q-55 0 -96.5 -24.5t-62.5 -63.5q-40 -73 -40 -152zM71.5 345.5q-12.5 72.5 -12.5 183t26 214.5t67 165.5t99 99.5q99 65 233 65q126 0 220 -75q176 -142 168 -527h-599q0 -202 107 -272
q55 -36 115.5 -36t100.5 15t64 34t44 44q27 35 37 60l136 -88q-74 -129 -158 -184q-93 -62 -204.5 -62t-190 29t-128 77t-81 116.5t-44 141z" />
    <glyph glyph-name="Eogonek" unicode="&#x118;" horiz-adv-x="1079" 
d="M917 -139q0 -46 125 -46v-152q-106 -5 -149 8t-65.5 23t-36.5 24q-54 51 -21 156q21 69 74 126h-721v1515h867v-201h-628v-419h437v-202h-437v-478h666v-215h-63q-48 -65 -48 -139z" />
    <glyph glyph-name="eogonek" unicode="&#x119;" horiz-adv-x="936" 
d="M527 -150q0 -46 125 -46v-152q-106 -5 -149 8t-65.5 23t-36.5 24q-53 51 -21 156q20 66 70 122q-71 6 -126 26q-78 29 -127.5 77t-81 116.5t-44 141t-12.5 183t26 214.5t67 165.5t99 99.5q99 65 233 65q126 0 220 -75q176 -142 168 -527h-599q0 -202 107 -272
q55 -36 115.5 -36t100.5 15t64 34t44 44q27 35 37 60l136 -88q-74 -129 -158 -184q-68 -45 -146 -58q-46 -63 -46 -136zM283 652h370q0 78 -27 135q-52 105 -144 105q-55 0 -96.5 -24.5t-62.5 -63.5q-40 -73 -40 -152z" />
    <glyph glyph-name="Ecaron" unicode="&#x11a;" horiz-adv-x="1079" 
d="M811 1902l-248 -248l-249 249l94 92l153 -153l155 155zM123 0v1515h867v-201h-628v-419h437v-202h-437v-478h666v-215h-905z" />
    <glyph glyph-name="ecaron" unicode="&#x11b;" horiz-adv-x="936" 
d="M734 1436l-248 -248l-249 249l94 92l153 -153l155 155zM283 652h370q0 78 -27 135q-52 105 -144 105q-55 0 -96.5 -24.5t-62.5 -63.5q-40 -73 -40 -152zM71.5 345.5q-12.5 72.5 -12.5 183t26 214.5t67 165.5t99 99.5q99 65 233 65q126 0 220 -75q176 -142 168 -527h-599
q0 -202 107 -272q55 -36 115.5 -36t100.5 15t64 34t44 44q27 35 37 60l136 -88q-74 -129 -158 -184q-93 -62 -204.5 -62t-190 29t-128 77t-81 116.5t-44 141z" />
    <glyph glyph-name="Gcircumflex" unicode="&#x11c;" horiz-adv-x="1262" 
d="M399 1720l248 248l249 -249l-94 -92l-153 153l-155 -155zM929 1035q-65 307 -272 307q-219 0 -307 -249q-49 -139 -49 -326q0 -450 191 -560q56 -32 119 -32t106.5 12.5t73 32t51.5 50.5t34 62t19 74q11 65 13 157h-291v202h526v-765h-194v120q-64 -78 -140 -111
q-82 -35 -189 -35t-196 43.5t-154 119.5t-113 177q-95 201 -95 455q0 243 91 436q101 213 279 294q97 44 186.5 44t143 -12.5t109 -45t100.5 -84.5q99 -113 162 -329z" />
    <glyph glyph-name="gcircumflex" unicode="&#x11d;" horiz-adv-x="1008" 
d="M233 1247l248 248l249 -249l-94 -92l-153 153l-155 -155zM653.5 326q-78.5 -30 -158.5 -30t-131 20q-9 -9 -33 -25q-47 -32 -47 -67q0 -47 151 -65q28 -4 35 -4.5t36 -1t45 -1t51.5 -4.5t67.5 -11q172 -39 220 -82q100 -91 100 -217q0 -290 -492 -290q-205 0 -337 68
q-141 72 -141 221q0 132 192 205q-60 8 -101 52.5t-41 105.5q0 128 154 195q-52 27 -96 118.5t-44 193.5t57.5 188t155.5 132t219 46q56 0 115.5 -21.5t84.5 -43.5q86 62 184 66q14 1 46 1.5t46 0.5v-180h-4q-97 10 -130 -7q-10 -5 -9.5 -10t11.5 -36t17 -48
q17 -56 17 -122.5t-28.5 -138.5t-81 -125t-131 -83zM354.5 840q-56.5 -52 -56.5 -150.5t51.5 -155t152.5 -56.5q129 0 168 140q10 35 10 70.5t-10 69.5t-30 65q-45 69 -137 69t-148.5 -52zM242 -122q-9 -21 -9 -44.5t9 -40t22 -27t35.5 -18.5t41.5 -11.5t48 -5.5
q40 -3 85.5 -3t66 0.5t54.5 2.5t56 6.5t48 12.5t40 20q36 28 36 69t-34 68t-86 39.5t-104 19.5t-98.5 11t-58.5 9q-105 -42 -124 -64.5t-28 -43.5z" />
    <glyph glyph-name="Gbreve" unicode="&#x11e;" horiz-adv-x="1262" 
d="M645 1654q-71 0 -139.5 47.5t-94.5 130.5l103 58q19 -44 55.5 -75.5t76 -31.5t75.5 31.5t55 75.5l103 -58q-26 -83 -94.5 -130.5t-139.5 -47.5zM929 1035q-65 307 -272 307q-219 0 -307 -249q-49 -139 -49 -326q0 -450 191 -560q56 -32 119 -32t106.5 12.5t73 32
t51.5 50.5t34 62t19 74q11 65 13 157h-291v202h526v-765h-194v120q-64 -78 -140 -111q-82 -35 -189 -35t-196 43.5t-154 119.5t-113 177q-95 201 -95 455q0 243 91 436q101 213 279 294q97 44 186.5 44t143 -12.5t109 -45t100.5 -84.5q99 -113 162 -329z" />
    <glyph glyph-name="gbreve" unicode="&#x11f;" horiz-adv-x="1008" 
d="M473 1190q-71 0 -139.5 47.5t-94.5 130.5l103 58q19 -44 55.5 -75.5t76 -31.5t75.5 31.5t55 75.5l103 -58q-26 -83 -94.5 -130.5t-139.5 -47.5zM653.5 326q-78.5 -30 -158.5 -30t-131 20q-9 -9 -33 -25q-47 -32 -47 -67q0 -47 151 -65q28 -4 35 -4.5t36 -1t45 -1
t51.5 -4.5t67.5 -11q172 -39 220 -82q100 -91 100 -217q0 -290 -492 -290q-205 0 -337 68q-141 72 -141 221q0 132 192 205q-60 8 -101 52.5t-41 105.5q0 128 154 195q-52 27 -96 118.5t-44 193.5t57.5 188t155.5 132t219 46q56 0 115.5 -21.5t84.5 -43.5q86 62 184 66
q14 1 46 1.5t46 0.5v-180h-4q-97 10 -130 -7q-10 -5 -9.5 -10t11.5 -36t17 -48q17 -56 17 -122.5t-28.5 -138.5t-81 -125t-131 -83zM354.5 840q-56.5 -52 -56.5 -150.5t51.5 -155t152.5 -56.5q129 0 168 140q10 35 10 70.5t-10 69.5t-30 65q-45 69 -137 69t-148.5 -52z
M242 -122q-9 -21 -9 -44.5t9 -40t22 -27t35.5 -18.5t41.5 -11.5t48 -5.5q40 -3 85.5 -3t66 0.5t54.5 2.5t56 6.5t48 12.5t40 20q36 28 36 69t-34 68t-86 39.5t-104 19.5t-98.5 11t-58.5 9q-105 -42 -124 -64.5t-28 -43.5z" />
    <glyph glyph-name="Gdotaccent" unicode="&#x120;" horiz-adv-x="1262" 
d="M510 1654v243h244v-243h-244zM929 1035q-65 307 -272 307q-219 0 -307 -249q-49 -139 -49 -326q0 -450 191 -560q56 -32 119 -32t106.5 12.5t73 32t51.5 50.5t34 62t19 74q11 65 13 157h-291v202h526v-765h-194v120q-64 -78 -140 -111q-82 -35 -189 -35t-196 43.5
t-154 119.5t-113 177q-95 201 -95 455q0 243 91 436q101 213 279 294q97 44 186.5 44t143 -12.5t109 -45t100.5 -84.5q99 -113 162 -329z" />
    <glyph glyph-name="gdotaccent" unicode="&#x121;" horiz-adv-x="1008" 
d="M335 1190v243h244v-243h-244zM653.5 326q-78.5 -30 -158.5 -30t-131 20q-9 -9 -33 -25q-47 -32 -47 -67q0 -47 151 -65q28 -4 35 -4.5t36 -1t45 -1t51.5 -4.5t67.5 -11q172 -39 220 -82q100 -91 100 -217q0 -290 -492 -290q-205 0 -337 68q-141 72 -141 221
q0 132 192 205q-60 8 -101 52.5t-41 105.5q0 128 154 195q-52 27 -96 118.5t-44 193.5t57.5 188t155.5 132t219 46q56 0 115.5 -21.5t84.5 -43.5q86 62 184 66q14 1 46 1.5t46 0.5v-180h-4q-97 10 -130 -7q-10 -5 -9.5 -10t11.5 -36t17 -48q17 -56 17 -122.5t-28.5 -138.5
t-81 -125t-131 -83zM354.5 840q-56.5 -52 -56.5 -150.5t51.5 -155t152.5 -56.5q129 0 168 140q10 35 10 70.5t-10 69.5t-30 65q-45 69 -137 69t-148.5 -52zM242 -122q-9 -21 -9 -44.5t9 -40t22 -27t35.5 -18.5t41.5 -11.5t48 -5.5q40 -3 85.5 -3t66 0.5t54.5 2.5t56 6.5
t48 12.5t40 20q36 28 36 69t-34 68t-86 39.5t-104 19.5t-98.5 11t-58.5 9q-105 -42 -124 -64.5t-28 -43.5z" />
    <glyph glyph-name="Gcommaaccent" unicode="&#x122;" horiz-adv-x="1262" 
d="M530 -584l80 250h-74v243h244v-197l-152 -296h-98zM929 1035q-65 307 -272 307q-219 0 -307 -249q-49 -139 -49 -326q0 -450 191 -560q56 -32 119 -32t106.5 12.5t73 32t51.5 50.5t34 62t19 74q11 65 13 157h-291v202h526v-765h-194v120q-64 -78 -140 -111
q-82 -35 -189 -35t-196 43.5t-154 119.5t-113 177q-95 201 -95 455q0 243 91 436q101 213 279 294q97 44 186.5 44t143 -12.5t109 -45t100.5 -84.5q99 -113 162 -329z" />
    <glyph glyph-name="gcommaaccent" unicode="&#x123;" horiz-adv-x="1008" 
d="M448 1069l80 250h-74v243h244v-197l-152 -296h-98zM653.5 326q-78.5 -30 -158.5 -30t-131 20q-9 -9 -33 -25q-47 -32 -47 -67q0 -47 151 -65q28 -4 35 -4.5t36 -1t45 -1t51.5 -4.5t67.5 -11q172 -39 220 -82q100 -91 100 -217q0 -290 -492 -290q-205 0 -337 68
q-141 72 -141 221q0 132 192 205q-60 8 -101 52.5t-41 105.5q0 128 154 195q-52 27 -96 118.5t-44 193.5t57.5 188t155.5 132t219 46q56 0 115.5 -21.5t84.5 -43.5q86 62 184 66q14 1 46 1.5t46 0.5v-180h-4q-97 10 -130 -7q-10 -5 -9.5 -10t11.5 -36t17 -48
q17 -56 17 -122.5t-28.5 -138.5t-81 -125t-131 -83zM354.5 840q-56.5 -52 -56.5 -150.5t51.5 -155t152.5 -56.5q129 0 168 140q10 35 10 70.5t-10 69.5t-30 65q-45 69 -137 69t-148.5 -52zM242 -122q-9 -21 -9 -44.5t9 -40t22 -27t35.5 -18.5t41.5 -11.5t48 -5.5
q40 -3 85.5 -3t66 0.5t54.5 2.5t56 6.5t48 12.5t40 20q36 28 36 69t-34 68t-86 39.5t-104 19.5t-98.5 11t-58.5 9q-105 -42 -124 -64.5t-28 -43.5z" />
    <glyph glyph-name="Hcircumflex" unicode="&#x124;" horiz-adv-x="1276" 
d="M395 1720l248 248l249 -249l-94 -92l-153 153l-155 -155zM123 0v1515h239v-619h552v619h239v-1515h-239v695h-552v-695h-239z" />
    <glyph glyph-name="hcircumflex" unicode="&#x125;" horiz-adv-x="997" 
d="M267 1703l248 248l249 -249l-94 -92l-153 153l-155 -155zM901 791v-791h-214v735q0 72 -43.5 114.5t-103.5 42.5t-119 -35.5t-88 -70.5v-786h-214v1515h214v-572q130 130 270 130q126 0 209 -66q89 -71 89 -216z" />
    <glyph glyph-name="Itilde" unicode="&#x128;" horiz-adv-x="437" 
d="M575 1851q-71 -200 -223 -200q-84 0 -149.5 45t-105 45t-59.5 -21t-37 -62l-130 60q23 91 89.5 145t121.5 54t94 -14.5t63 -31.5q64 -46 112 -46q38 0 55 23q22 31 35 65zM99 0v1515h239v-1515h-239z" />
    <glyph glyph-name="itilde" unicode="&#x129;" horiz-adv-x="527" 
d="M560 1385q-71 -200 -223 -200q-84 0 -149.5 45t-105 45t-59.5 -21t-37 -62l-130 60q23 91 89.5 145t121.5 54t94 -14.5t63 -31.5q64 -46 112 -46q38 0 55 23q22 31 35 65zM96 0v1055h214v-1055h-214z" />
    <glyph glyph-name="Imacron" unicode="&#x12a;" horiz-adv-x="437" 
d="M-35 1626v149h609v-149h-609zM99 0v1515h239v-1515h-239z" />
    <glyph glyph-name="imacron" unicode="&#x12b;" horiz-adv-x="527" 
d="M-50 1160v149h609v-149h-609zM96 0v1055h214v-1055h-214z" />
    <glyph glyph-name="Ibreve" unicode="&#x12c;" horiz-adv-x="437" 
d="M222 1654q-71 0 -139.5 47.5t-94.5 130.5l103 58q19 -44 55.5 -75.5t76 -31.5t75.5 31.5t55 75.5l103 -58q-26 -83 -94.5 -130.5t-139.5 -47.5zM99 0v1515h239v-1515h-239z" />
    <glyph glyph-name="ibreve" unicode="&#x12d;" horiz-adv-x="527" 
d="M207 1188q-71 0 -139.5 47.5t-94.5 130.5l103 58q19 -44 55.5 -75.5t76 -31.5t75.5 31.5t55 75.5l103 -58q-26 -83 -94.5 -130.5t-139.5 -47.5zM96 0v1055h214v-1055h-214z" />
    <glyph glyph-name="Iogonek" unicode="&#x12e;" horiz-adv-x="437" 
d="M314 -139q0 -46 125 -46v-152q-106 -5 -149 8t-65.5 23t-36.5 24q-54 51 -22 156q23 75 85 136h119q-56 -69 -56 -149zM99 0v1515h239v-1515h-239z" />
    <glyph glyph-name="iogonek" unicode="&#x12f;" horiz-adv-x="434" 
d="M308 -139q0 -46 125 -46v-152q-106 -5 -149 8t-65.5 23t-36.5 24q-54 51 -22 156q23 75 85 136h119q-56 -69 -56 -149zM106 0v1055h214v-1055h-214zM91 1147v243h243v-243h-243z" />
    <glyph glyph-name="Idotaccent" unicode="&#x130;" horiz-adv-x="437" 
d="M87 1654v243h244v-243h-244zM99 0v1515h239v-1515h-239z" />
    <glyph glyph-name="dotlessi" unicode="&#x131;" horiz-adv-x="527" 
d="M96 0v1055h214v-1055h-214z" />
    <glyph glyph-name="IJ" unicode="&#x132;" horiz-adv-x="1334" 
d="M430 291l141 72q38 -117 148 -168q44 -20 82.5 -20t59.5 6t36.5 14.5t27.5 24.5t20 31.5t13.5 39t8.5 42.5t5 48q2 41 2 100v1034h239v-1093q0 -364 -273 -433q-60 -15 -128.5 -15t-124 17t-92.5 41.5t-67.5 61t-46.5 64t-29 63.5q-15 39 -22 70zM109 0v1515h239v-1515
h-239z" />
    <glyph glyph-name="ij" unicode="&#x133;" horiz-adv-x="742" 
d="M320 -165q100 0 144 32.5t44 154.5v1033h214v-1062q0 -170 -55 -238q-21 -26 -38.5 -42.5t-49.5 -28t-54 -17.5t-63 -9q-53 -4 -134 -4zM494 1147v243h242v-243h-242zM115 0v1055h214v-1055h-214zM100 1147v243h243v-243h-243z" />
    <glyph glyph-name="Jcircumflex" unicode="&#x134;" horiz-adv-x="908" 
d="M446 1720l248 248l249 -249l-94 -92l-153 153l-155 -155zM2 291l141 72q38 -117 148 -168q44 -20 82.5 -20t59.5 6t36.5 14.5t27.5 24.5t20 31.5t13.5 39t8.5 42.5t5 48q2 41 2 100v1034h239v-1093q0 -364 -273 -433q-60 -15 -128.5 -15t-124 17t-92.5 41.5t-67.5 61
t-46.5 64t-29 63.5q-15 39 -22 70z" />
    <glyph glyph-name="Kcommaaccent" unicode="&#x136;" horiz-adv-x="1151" 
d="M524 -568l80 250h-74v243h244v-197l-152 -296h-98zM123 0v1515h241v-674l505 674h252l-449 -591l477 -924h-263l-367 723l-155 -204v-519h-241z" />
    <glyph glyph-name="kcommaaccent" unicode="&#x137;" horiz-adv-x="925" 
d="M410 -568l80 250h-74v243h244v-197l-152 -296h-98zM124 0v1515h214v-853l304 393h260l-306 -390l324 -665h-242l-230 476l-110 -139v-337h-214z" />
    <glyph glyph-name="Lacute" unicode="&#x139;" horiz-adv-x="1017" 
d="M615 1908l-356 -301l-87 86l327 338zM123 0v1515h239v-1285h626v-230h-865z" />
    <glyph glyph-name="lacute" unicode="&#x13a;" horiz-adv-x="451" 
d="M608 1891l-356 -301l-87 86l327 338zM124 -3v1518h214v-1518h-214z" />
    <glyph glyph-name="Lcommaaccent" unicode="&#x13b;" horiz-adv-x="1017" 
d="M421 -568l80 250h-74v243h244v-197l-152 -296h-98zM123 0v1515h239v-1285h626v-230h-865z" />
    <glyph glyph-name="lcommaaccent" unicode="&#x13c;" horiz-adv-x="451" 
d="M78 -570l80 250h-74v243h244v-197l-152 -296h-98zM124 -3v1518h214v-1518h-214z" />
    <glyph glyph-name="Lcaron" unicode="&#x13d;" horiz-adv-x="1017" 
d="M377 1047l80 250h-74v243h244v-197l-152 -296h-98zM123 0v1515h239v-1285h626v-230h-865z" />
    <glyph glyph-name="lcaron" unicode="&#x13e;" horiz-adv-x="634" 
d="M364 1069l80 250h-74v243h244v-197l-152 -296h-98zM136 -3v1518h214v-1518h-214z" />
    <glyph glyph-name="Ldot" unicode="&#x13f;" horiz-adv-x="1017" 
d="M416 649v243h244v-243h-244zM123 0v1515h239v-1285h626v-230h-865z" />
    <glyph glyph-name="ldot" unicode="&#x140;" horiz-adv-x="718" 
d="M454 744v243h244v-243h-244zM136 -3v1518h214v-1518h-214z" />
    <glyph glyph-name="Nacute" unicode="&#x143;" horiz-adv-x="1272" 
d="M1054 1908l-356 -301l-87 86l327 338zM917 585v930h238v-1515h-190l-612 1162v-1162h-238v1515h308z" />
    <glyph glyph-name="nacute" unicode="&#x144;" horiz-adv-x="988" 
d="M918 1442l-356 -301l-87 86l327 338zM892 791v-791h-214v735q0 72 -43.5 114.5t-103.5 42.5t-119 -35.5t-88 -70.5v-786h-214v1055h214v-112q58 58 121.5 94t148.5 36q130 0 214 -70.5t84 -211.5z" />
    <glyph glyph-name="Ncommaaccent" unicode="&#x145;" horiz-adv-x="1272" 
d="M524 -568l80 250h-74v243h244v-197l-152 -296h-98zM917 585v930h238v-1515h-190l-612 1162v-1162h-238v1515h308z" />
    <glyph glyph-name="ncommaaccent" unicode="&#x146;" horiz-adv-x="988" 
d="M388 -568l80 250h-74v243h244v-197l-152 -296h-98zM892 791v-791h-214v735q0 72 -43.5 114.5t-103.5 42.5t-119 -35.5t-88 -70.5v-786h-214v1055h214v-112q58 58 121.5 94t148.5 36q130 0 214 -70.5t84 -211.5z" />
    <glyph glyph-name="Ncaron" unicode="&#x147;" horiz-adv-x="1272" 
d="M890 1902l-248 -248l-249 249l94 92l153 -153l155 155zM917 585v930h238v-1515h-190l-612 1162v-1162h-238v1515h308z" />
    <glyph glyph-name="ncaron" unicode="&#x148;" horiz-adv-x="988" 
d="M754 1436l-248 -248l-249 249l94 92l153 -153l155 155zM892 791v-791h-214v735q0 72 -43.5 114.5t-103.5 42.5t-119 -35.5t-88 -70.5v-786h-214v1055h214v-112q58 58 121.5 94t148.5 36q130 0 214 -70.5t84 -211.5z" />
    <glyph glyph-name="napostrophe" unicode="&#x149;" horiz-adv-x="1139" 
d="M1053 791v-791h-214v735q0 72 -43.5 114.5t-103.5 42.5t-119 -35.5t-88 -70.5v-786h-214v1055h214v-112q58 58 121.5 94t148.5 36q130 0 214 -70.5t84 -211.5zM48 1000l80 250h-74v243h244v-197l-152 -296h-98z" />
    <glyph glyph-name="Omacron" unicode="&#x14c;" horiz-adv-x="1274" 
d="M393 1626v149h609v-149h-609zM306 858q-4 -52 -4 -106.5t4 -107.5t14.5 -112t26.5 -109t43.5 -96.5t61.5 -79.5q77 -72 194 -72q325 0 325 578q0 471 -220 568q-48 21 -106.5 21t-108 -21t-84 -55.5t-62 -83.5t-43.5 -101t-26.5 -111.5t-14.5 -111.5zM73 601
q-10 76 -10 151t9 151t30 154.5t52 148.5t78.5 132.5t106.5 107.5q127 97 309 97q250 0 400 -206q162 -224 162 -585q0 -368 -156 -580q-146 -198 -406 -198q-247 0 -405 199q-134 168 -170 428z" />
    <glyph glyph-name="omacron" unicode="&#x14d;" horiz-adv-x="982" 
d="M238 1160v149h609v-149h-609zM279 649q-6 -53 -6 -114t6 -110t21.5 -98t39.5 -85q54 -80 152 -80q217 0 217 365q0 214 -64 297q-52 68 -153 68q-185 0 -213 -243zM59 528q0 250 115.5 397.5t317.5 147.5q134 0 232 -68q199 -139 199 -478q0 -423 -264 -519
q-73 -27 -166.5 -27t-167.5 27t-123 75t-82 118q-61 130 -61 327z" />
    <glyph glyph-name="Obreve" unicode="&#x14e;" horiz-adv-x="1274" 
d="M650 1654q-71 0 -139.5 47.5t-94.5 130.5l103 58q19 -44 55.5 -75.5t76 -31.5t75.5 31.5t55 75.5l103 -58q-26 -83 -94.5 -130.5t-139.5 -47.5zM306 858q-4 -52 -4 -106.5t4 -107.5t14.5 -112t26.5 -109t43.5 -96.5t61.5 -79.5q77 -72 194 -72q325 0 325 578
q0 471 -220 568q-48 21 -106.5 21t-108 -21t-84 -55.5t-62 -83.5t-43.5 -101t-26.5 -111.5t-14.5 -111.5zM73 601q-10 76 -10 151t9 151t30 154.5t52 148.5t78.5 132.5t106.5 107.5q127 97 309 97q250 0 400 -206q162 -224 162 -585q0 -368 -156 -580q-146 -198 -406 -198
q-247 0 -405 199q-134 168 -170 428z" />
    <glyph glyph-name="obreve" unicode="&#x14f;" horiz-adv-x="982" 
d="M495 1188q-71 0 -139.5 47.5t-94.5 130.5l103 58q19 -44 55.5 -75.5t76 -31.5t75.5 31.5t55 75.5l103 -58q-26 -83 -94.5 -130.5t-139.5 -47.5zM279 649q-6 -53 -6 -114t6 -110t21.5 -98t39.5 -85q54 -80 152 -80q217 0 217 365q0 214 -64 297q-52 68 -153 68
q-185 0 -213 -243zM59 528q0 250 115.5 397.5t317.5 147.5q134 0 232 -68q199 -139 199 -478q0 -423 -264 -519q-73 -27 -166.5 -27t-167.5 27t-123 75t-82 118q-61 130 -61 327z" />
    <glyph glyph-name="Ohungarumlaut" unicode="&#x150;" horiz-adv-x="1274" 
d="M682 1601l80 250h-74v243h244v-197l-152 -296h-98zM371 1601l80 250h-74v243h244v-197l-152 -296h-98zM306 858q-4 -52 -4 -106.5t4 -107.5t14.5 -112t26.5 -109t43.5 -96.5t61.5 -79.5q77 -72 194 -72q325 0 325 578q0 471 -220 568q-48 21 -106.5 21t-108 -21
t-84 -55.5t-62 -83.5t-43.5 -101t-26.5 -111.5t-14.5 -111.5zM73 601q-10 76 -10 151t9 151t30 154.5t52 148.5t78.5 132.5t106.5 107.5q127 97 309 97q250 0 400 -206q162 -224 162 -585q0 -368 -156 -580q-146 -198 -406 -198q-247 0 -405 199q-134 168 -170 428z" />
    <glyph glyph-name="ohungarumlaut" unicode="&#x151;" horiz-adv-x="982" 
d="M525 1117l80 250h-74v243h244v-197l-152 -296h-98zM214 1117l80 250h-74v243h244v-197l-152 -296h-98zM279 649q-6 -53 -6 -114t6 -110t21.5 -98t39.5 -85q54 -80 152 -80q217 0 217 365q0 214 -64 297q-52 68 -153 68q-185 0 -213 -243zM59 528q0 250 115.5 397.5
t317.5 147.5q134 0 232 -68q199 -139 199 -478q0 -423 -264 -519q-73 -27 -166.5 -27t-167.5 27t-123 75t-82 118q-61 130 -61 327z" />
    <glyph glyph-name="OE" unicode="&#x152;" horiz-adv-x="1729" 
d="M773 215v1099h-128q-167 0 -256 -149q-88 -150 -88 -412q0 -438 235 -521q49 -17 109 -17h128zM647 0q-248 0 -405 189q-135 161 -170 414q-10 74 -10 149t9 149.5t30 150.5t52 143t78.5 126.5t106.5 101.5q126 92 309 92h993v-201h-628v-419h437v-202h-437v-478h666
v-215h-1031z" />
    <glyph glyph-name="oe" unicode="&#x153;" horiz-adv-x="1586" 
d="M933 654h370q0 78 -27 134q-52 104 -144 104q-123 0 -174 -116q-25 -58 -25 -122zM59 528q0 250 115.5 397.5t318 147.5t319.5 -153q108 153 322 153q197 0 300 -165q97 -154 91 -437h-602q0 -203 107 -272q55 -36 115.5 -36t100.5 15t64 34t44 45q26 32 37 59l136 -88
q-71 -127 -157 -185q-93 -61 -216 -61q-224 0 -337 140q-109 -141 -325 -141q-269 0 -372 220q-61 130 -61 327zM279 649q-6 -53 -6 -114t6 -110t21.5 -98t39.5 -85q54 -80 152 -80q217 0 217 365q0 214 -64 297q-52 68 -153 68q-185 0 -213 -243z" />
    <glyph glyph-name="Racute" unicode="&#x154;" horiz-adv-x="1121" 
d="M819 1908l-356 -301l-87 86l327 338zM362 859h253q105 0 175 57q74 61 74 187q0 211 -335 211h-167v-455zM123 0v1515h509q351 0 444 -251q27 -73 27 -151t-17.5 -142t-51.5 -119q-75 -120 -221 -151l280 -701h-245l-262 657h-224v-657h-239z" />
    <glyph glyph-name="racute" unicode="&#x155;" horiz-adv-x="651" 
d="M795 1442l-356 -301l-87 86l327 338zM110 0v1055h214v-145q4 5 18 26l24 36q74 101 244 101q18 0 36 -3v-179q-182 -3 -262 -101q-36 -44 -60 -113v-677h-214z" />
    <glyph glyph-name="Rcommaaccent" unicode="&#x156;" horiz-adv-x="1121" 
d="M497 -568l80 250h-74v243h244v-197l-152 -296h-98zM362 859h253q105 0 175 57q74 61 74 187q0 211 -335 211h-167v-455zM123 0v1515h509q351 0 444 -251q27 -73 27 -151t-17.5 -142t-51.5 -119q-75 -120 -221 -151l280 -701h-245l-262 657h-224v-657h-239z" />
    <glyph glyph-name="rcommaaccent" unicode="&#x157;" horiz-adv-x="651" 
d="M84 -568l80 250h-74v243h244v-197l-152 -296h-98zM110 0v1055h214v-145q4 5 18 26l24 36q74 101 244 101q18 0 36 -3v-179q-182 -3 -262 -101q-36 -44 -60 -113v-677h-214z" />
    <glyph glyph-name="Rcaron" unicode="&#x158;" horiz-adv-x="1121" 
d="M823 1902l-248 -248l-249 249l94 92l153 -153l155 155zM362 859h253q105 0 175 57q74 61 74 187q0 211 -335 211h-167v-455zM123 0v1515h509q351 0 444 -251q27 -73 27 -151t-17.5 -142t-51.5 -119q-75 -120 -221 -151l280 -701h-245l-262 657h-224v-657h-239z" />
    <glyph glyph-name="rcaron" unicode="&#x159;" horiz-adv-x="651" 
d="M631 1436l-248 -248l-249 249l94 92l153 -153l155 155zM110 0v1055h214v-145q4 5 18 26l24 36q74 101 244 101q18 0 36 -3v-179q-182 -3 -262 -101q-36 -44 -60 -113v-677h-214z" />
    <glyph glyph-name="Sacute" unicode="&#x15a;" horiz-adv-x="1041" 
d="M864 1955l-356 -301l-87 86l327 338zM24 388l192 63q1 0 4 -15t10.5 -39.5t21 -54t39.5 -59t61 -53.5q78 -55 194 -55t170.5 57t54.5 135.5t-16 127t-56 84.5q-67 60 -232 108q-291 85 -374 263q-43 93 -43 219q0 106 75 207q131 167 372 167q191 0 313 -115
q87 -81 130 -204l19 -53q9 -24 12 -31l-195 -69q-66 210 -206 259q-35 12 -73 12q-208 0 -208 -214q0 -98 58 -150q48 -45 126 -71l48 -16q41 -14 45 -15l44 -15q171 -60 231 -106q88 -68 115 -125q54 -117 54 -247q0 -102 -58 -207q-78 -141 -247 -185q-65 -17 -142 -17
t-144.5 14t-116.5 38t-90 55t-69 65.5t-49 69t-33.5 65.5t-20.5 55t-11.5 38t-4.5 14z" />
    <glyph glyph-name="sacute" unicode="&#x15b;" horiz-adv-x="890" 
d="M849 1442l-356 -301l-87 86l327 338zM67 212l148 90q35 -50 65 -80q71 -70 179 -70q87 0 124 36q34 33 34 100q0 76 -49 114q-44 33 -87 45l-94 27q-163 46 -235 124q-73 79 -73 209q0 111 91 186q96 80 275 80q161 0 277 -110q50 -47 63 -79l-124 -98q-70 85 -140 105
q-36 11 -94.5 11t-100 -30t-41.5 -88q0 -67 59 -104q52 -33 105 -49l90 -25q212 -60 263 -203q21 -58 21 -137.5t-49.5 -145.5t-130.5 -102t-163.5 -36t-136 10t-103.5 35q-97 49 -173 185z" />
    <glyph glyph-name="Scircumflex" unicode="&#x15c;" horiz-adv-x="1041" 
d="M255 1720l248 248l249 -249l-94 -92l-153 153l-155 -155zM24 388l192 63q1 0 4 -15t10.5 -39.5t21 -54t39.5 -59t61 -53.5q78 -55 194 -55t170.5 57t54.5 135.5t-16 127t-56 84.5q-67 60 -232 108q-291 85 -374 263q-43 93 -43 219q0 106 75 207q131 167 372 167
q191 0 313 -115q87 -81 130 -204l19 -53q9 -24 12 -31l-195 -69q-66 210 -206 259q-35 12 -73 12q-208 0 -208 -214q0 -98 58 -150q48 -45 126 -71l48 -16q41 -14 45 -15l44 -15q171 -60 231 -106q88 -68 115 -125q54 -117 54 -247q0 -102 -58 -207q-78 -141 -247 -185
q-65 -17 -142 -17t-144.5 14t-116.5 38t-90 55t-69 65.5t-49 69t-33.5 65.5t-20.5 55t-11.5 38t-4.5 14z" />
    <glyph glyph-name="scircumflex" unicode="&#x15d;" horiz-adv-x="890" 
d="M188 1254l248 248l249 -249l-94 -92l-153 153l-155 -155zM67 212l148 90q35 -50 65 -80q71 -70 179 -70q87 0 124 36q34 33 34 100q0 76 -49 114q-44 33 -87 45l-94 27q-163 46 -235 124q-73 79 -73 209q0 111 91 186q96 80 275 80q161 0 277 -110q50 -47 63 -79
l-124 -98q-70 85 -140 105q-36 11 -94.5 11t-100 -30t-41.5 -88q0 -67 59 -104q52 -33 105 -49l90 -25q212 -60 263 -203q21 -58 21 -137.5t-49.5 -145.5t-130.5 -102t-163.5 -36t-136 10t-103.5 35q-97 49 -173 185z" />
    <glyph glyph-name="Scedilla" unicode="&#x15e;" horiz-adv-x="1041" 
d="M24 388l192 63q1 0 4 -15t10.5 -39.5t21 -54t39.5 -59t61 -53.5q78 -55 194 -55t170.5 57t54.5 135.5t-16 127t-56 84.5q-67 60 -232 108q-291 85 -374 263q-43 93 -43 219q0 106 75 207q131 167 372 167q191 0 313 -115q87 -81 130 -204l19 -53q9 -24 12 -31l-195 -69
q-66 210 -206 259q-35 12 -73 12q-208 0 -208 -214q0 -98 58 -150q48 -45 126 -71l48 -16q41 -14 45 -15l44 -15q171 -60 231 -106q88 -68 115 -125q54 -117 54 -247q0 -102 -58 -207q-78 -141 -247 -185q-35 -9 -73 -13q81 -90 81 -199q0 -83 -112 -117q-65 -20 -172 -15
v152q125 0 125 46q0 70 -42 131q-49 3 -93 12q-68 14 -117 38t-90 55t-69 65.5t-49 69t-33.5 65.5t-20.5 55t-11.5 38t-4.5 14z" />
    <glyph glyph-name="scedilla" unicode="&#x15f;" horiz-adv-x="890" 
d="M67 212l148 90q35 -50 65 -80q71 -70 179 -70q87 0 124 36q34 33 34 100q0 76 -49 114q-44 33 -87 45l-94 27q-163 46 -235 124q-73 79 -73 209q0 111 91 186q96 80 275 80q161 0 277 -110q50 -47 63 -79l-124 -98q-70 85 -140 105q-36 11 -94.5 11t-100 -30t-41.5 -88
q0 -67 59 -104q52 -33 105 -49l90 -25q212 -60 263 -203q21 -58 21 -137.5t-49.5 -145.5t-130.5 -102q-56 -25 -113 -33q83 -90 83 -201q0 -83 -112 -117q-66 -20 -172 -15v152q125 0 125 46q0 72 -45 134q-37 3 -65 8q-54 10 -104 35q-97 49 -173 185z" />
    <glyph glyph-name="Scaron" unicode="&#x160;" horiz-adv-x="1041" 
d="M752 1902l-248 -248l-249 249l94 92l153 -153l155 155zM24 388l192 63q1 0 4 -15t10.5 -39.5t21 -54t39.5 -59t61 -53.5q78 -55 194 -55t170.5 57t54.5 135.5t-16 127t-56 84.5q-67 60 -232 108q-291 85 -374 263q-43 93 -43 219q0 106 75 207q131 167 372 167
q191 0 313 -115q87 -81 130 -204l19 -53q9 -24 12 -31l-195 -69q-66 210 -206 259q-35 12 -73 12q-208 0 -208 -214q0 -98 58 -150q48 -45 126 -71l48 -16q41 -14 45 -15l44 -15q171 -60 231 -106q88 -68 115 -125q54 -117 54 -247q0 -102 -58 -207q-78 -141 -247 -185
q-65 -17 -142 -17t-144.5 14t-116.5 38t-90 55t-69 65.5t-49 69t-33.5 65.5t-20.5 55t-11.5 38t-4.5 14z" />
    <glyph glyph-name="scaron" unicode="&#x161;" horiz-adv-x="890" 
d="M685 1436l-248 -248l-249 249l94 92l153 -153l155 155zM67 212l148 90q35 -50 65 -80q71 -70 179 -70q87 0 124 36q34 33 34 100q0 76 -49 114q-44 33 -87 45l-94 27q-163 46 -235 124q-73 79 -73 209q0 111 91 186q96 80 275 80q161 0 277 -110q50 -47 63 -79l-124 -98
q-70 85 -140 105q-36 11 -94.5 11t-100 -30t-41.5 -88q0 -67 59 -104q52 -33 105 -49l90 -25q212 -60 263 -203q21 -58 21 -137.5t-49.5 -145.5t-130.5 -102t-163.5 -36t-136 10t-103.5 35q-97 49 -173 185z" />
    <glyph glyph-name="Tcommaaccent" unicode="&#x162;" horiz-adv-x="1062" 
d="M2 1314v201h1057v-201h-409v-1314h-56q87 -92 87 -205q0 -83 -112 -117q-65 -20 -172 -15v152q125 0 125 46q0 74 -48 139h-63v1314h-409z" />
    <glyph glyph-name="tcommaaccent" unicode="&#x163;" horiz-adv-x="614" 
d="M17 874v181h157v385h214v-385h221v-181h-221v-566q0 -85 30.5 -116.5t102.5 -31.5q29 0 58.5 4t29.5 5v-151q-54 -25 -83 -32q-27 -6 -65 -7q79 -89 79 -197q0 -83 -111 -117q-66 -20 -173 -15v152q125 0 125 46q0 76 -50 141q-24 6 -42 15q-21 10 -44 30t-38 48
q-33 64 -33 166v626h-157z" />
    <glyph glyph-name="Tcaron" unicode="&#x164;" horiz-adv-x="1062" 
d="M785 1902l-248 -248l-249 249l94 92l153 -153l155 155zM2 1314v201h1057v-201h-409v-1314h-239v1314h-409z" />
    <glyph glyph-name="tcaron" unicode="&#x165;" horiz-adv-x="848" 
d="M579 1069l80 250h-74v243h244v-197l-152 -296h-98zM19 874v181h157v385h214v-385h221v-181h-221v-566q0 -85 30.5 -116.5t102.5 -31.5q29 0 58.5 4t29.5 5v-151q-54 -25 -83.5 -32t-72 -7t-63 1t-50 7t-51 16.5t-44.5 30.5t-38 48q-33 64 -33 166v626h-157z" />
    <glyph glyph-name="Utilde" unicode="&#x168;" horiz-adv-x="1234" 
d="M976 1851q-71 -200 -223 -200q-84 0 -149.5 45t-105 45t-59.5 -21t-37 -62l-130 60q23 91 89.5 145t121.5 54t94 -14.5t63 -31.5q64 -46 112 -46q38 0 55 23q22 31 35 65zM123 448v1067h239v-1010q0 -253 163 -314q42 -16 94 -16t94 14t68 35t45 53.5t28 59.5t15 64
q6 48 6 104v1010h244v-1067q0 -229 -151 -363q-125 -111 -348 -111q-339 0 -450 257q-47 106 -47 217z" />
    <glyph glyph-name="utilde" unicode="&#x169;" horiz-adv-x="998" 
d="M866 1385q-71 -200 -223 -200q-84 0 -149.5 45t-105 45t-59.5 -21t-37 -62l-130 60q23 91 89.5 145t121.5 54t94 -14.5t63 -31.5q64 -46 112 -46q38 0 55 23q22 31 35 65zM118 264v791h214v-735q0 -72 43.5 -114.5t103 -42.5t119 35.5t88.5 70.5v786h214v-1055h-214v112
q-130 -130 -270 -130q-126 0 -209 66q-89 71 -89 216z" />
    <glyph glyph-name="Umacron" unicode="&#x16a;" horiz-adv-x="1234" 
d="M365 1626v149h609v-149h-609zM123 448v1067h239v-1010q0 -253 163 -314q42 -16 94 -16t94 14t68 35t45 53.5t28 59.5t15 64q6 48 6 104v1010h244v-1067q0 -229 -151 -363q-125 -111 -348 -111q-339 0 -450 257q-47 106 -47 217z" />
    <glyph glyph-name="umacron" unicode="&#x16b;" horiz-adv-x="998" 
d="M256 1160v149h609v-149h-609zM118 264v791h214v-735q0 -72 43.5 -114.5t103 -42.5t119 35.5t88.5 70.5v786h214v-1055h-214v112q-130 -130 -270 -130q-126 0 -209 66q-89 71 -89 216z" />
    <glyph glyph-name="Ubreve" unicode="&#x16c;" horiz-adv-x="1234" 
d="M623 1654q-71 0 -139.5 47.5t-94.5 130.5l103 58q19 -44 55.5 -75.5t76 -31.5t75.5 31.5t55 75.5l103 -58q-26 -83 -94.5 -130.5t-139.5 -47.5zM123 448v1067h239v-1010q0 -253 163 -314q42 -16 94 -16t94 14t68 35t45 53.5t28 59.5t15 64q6 48 6 104v1010h244v-1067
q0 -229 -151 -363q-125 -111 -348 -111q-339 0 -450 257q-47 106 -47 217z" />
    <glyph glyph-name="ubreve" unicode="&#x16d;" horiz-adv-x="998" 
d="M513 1188q-71 0 -139.5 47.5t-94.5 130.5l103 58q19 -44 55.5 -75.5t76 -31.5t75.5 31.5t55 75.5l103 -58q-26 -83 -94.5 -130.5t-139.5 -47.5zM118 264v791h214v-735q0 -72 43.5 -114.5t103 -42.5t119 35.5t88.5 70.5v786h214v-1055h-214v112q-130 -130 -270 -130
q-126 0 -209 66q-89 71 -89 216z" />
    <glyph glyph-name="Uring" unicode="&#x16e;" horiz-adv-x="1234" 
d="M535 1915q0 -57 40 -97t97 -40t97 40t40 97t-40 97t-97 40t-97 -40t-40 -97zM385 1915q0 119 84.5 203t203 84t202.5 -84t84 -203t-84 -203t-202.5 -84t-203 84t-84.5 203zM123 448v1067h239v-1010q0 -253 163 -314q42 -16 94 -16t94 14t68 35t45 53.5t28 59.5t15 64
q6 48 6 104v1010h244v-1067q0 -229 -151 -363q-125 -111 -348 -111q-339 0 -450 257q-47 106 -47 217z" />
    <glyph glyph-name="uring" unicode="&#x16f;" horiz-adv-x="998" 
d="M425 1374q0 -57 40 -97t97 -40t97 40t40 97t-40 97t-97 40t-97 -40t-40 -97zM275 1374q0 119 84.5 203t203 84t202.5 -84t84 -203t-84 -203t-202.5 -84t-203 84t-84.5 203zM118 264v791h214v-735q0 -72 43.5 -114.5t103 -42.5t119 35.5t88.5 70.5v786h214v-1055h-214v112
q-130 -130 -270 -130q-126 0 -209 66q-89 71 -89 216z" />
    <glyph glyph-name="Uhungarumlaut" unicode="&#x170;" horiz-adv-x="1234" 
d="M660 1531l80 250h-74v243h244v-197l-152 -296h-98zM349 1531l80 250h-74v243h244v-197l-152 -296h-98zM123 448v1067h239v-1010q0 -253 163 -314q42 -16 94 -16t94 14t68 35t45 53.5t28 59.5t15 64q6 48 6 104v1010h244v-1067q0 -229 -151 -363q-125 -111 -348 -111
q-339 0 -450 257q-47 106 -47 217z" />
    <glyph glyph-name="uhungarumlaut" unicode="&#x171;" horiz-adv-x="998" 
d="M575 1115l80 250h-74v243h244v-197l-152 -296h-98zM264 1115l80 250h-74v243h244v-197l-152 -296h-98zM118 264v791h214v-735q0 -72 43.5 -114.5t103 -42.5t119 35.5t88.5 70.5v786h214v-1055h-214v112q-130 -130 -270 -130q-126 0 -209 66q-89 71 -89 216z" />
    <glyph glyph-name="uogonek" unicode="&#x173;" horiz-adv-x="998" 
d="M909 -150q0 -46 125 -46v-152q-106 -5 -149 8t-65.5 23t-36.5 24q-54 51 -22 156q23 75 85 136h119q-56 -69 -56 -149zM118 264v791h214v-735q0 -72 43.5 -114.5t103 -42.5t119 35.5t88.5 70.5v786h214v-1055h-214v112q-130 -130 -270 -130q-126 0 -209 66
q-89 71 -89 216z" />
    <glyph glyph-name="Wcircumflex" unicode="&#x174;" horiz-adv-x="1614" 
d="M564 1720l248 248l249 -249l-94 -92l-153 153l-155 -155zM2 1515h247l222 -1017h9l218 1017h226l214 -1017h12l222 1017h240l-351 -1515h-223l-222 1057h-10l-226 -1057h-227z" />
    <glyph glyph-name="wcircumflex" unicode="&#x175;" horiz-adv-x="1318" 
d="M435 1254l248 248l249 -249l-94 -92l-153 153l-155 -155zM510 0h-218l-286 1055h222l184 -684l156 684h184l156 -682l183 682h223l-288 -1055h-218l-148 652z" />
    <glyph glyph-name="Ycircumflex" unicode="&#x176;" horiz-adv-x="1122" 
d="M318 1720l248 248l249 -249l-94 -92l-153 153l-155 -155zM680 701v-701h-238v701l-440 814h252l307 -573l307 573h252z" />
    <glyph glyph-name="ycircumflex" unicode="&#x177;" horiz-adv-x="903" 
d="M207 1254l248 248l249 -249l-94 -92l-153 153l-155 -155zM2 1055h238l222 -633l198 633h238l-352 -1087q-53 -164 -88 -216t-63.5 -82t-61.5 -48q-105 -59 -310 -28l-9 1l10 199q37 -16 97.5 -16t97 16t59 41t38.5 55.5t24 61.5q15 61 16 112z" />
    <glyph glyph-name="Ydieresis" unicode="&#x178;" horiz-adv-x="1122" 
d="M630 1654v243h242v-243h-242zM250 1654v243h242v-243h-242zM680 701v-701h-238v701l-440 814h252l307 -573l307 573h252z" />
    <glyph glyph-name="Zacute" unicode="&#x179;" horiz-adv-x="1157" 
d="M963 1908l-356 -301l-87 86l327 338zM44 0v136l733 1172h-679v207h998v-161l-693 -1124h710v-230h-1069z" />
    <glyph glyph-name="zacute" unicode="&#x17a;" horiz-adv-x="795" 
d="M832 1442l-356 -301l-87 86l327 338zM2 0v137l474 737h-420v181h716v-120l-470 -741h488v-194h-788z" />
    <glyph glyph-name="Zdotaccent" unicode="&#x17b;" horiz-adv-x="1157" 
d="M463 1654v243h244v-243h-244zM44 0v136l733 1172h-679v207h998v-161l-693 -1124h710v-230h-1069z" />
    <glyph glyph-name="zdotaccent" unicode="&#x17c;" horiz-adv-x="795" 
d="M282 1188v243h244v-243h-244zM2 0v137l474 737h-420v181h716v-120l-470 -741h488v-194h-788z" />
    <glyph glyph-name="Zcaron" unicode="&#x17d;" horiz-adv-x="1157" 
d="M851 1902l-248 -248l-249 249l94 92l153 -153l155 155zM44 0v136l733 1172h-679v207h998v-161l-693 -1124h710v-230h-1069z" />
    <glyph glyph-name="zcaron" unicode="&#x17e;" horiz-adv-x="795" 
d="M668 1436l-248 -248l-249 249l94 92l153 -153l155 155zM2 0v137l474 737h-420v181h716v-120l-470 -741h488v-194h-788z" />
    <glyph glyph-name="longs" unicode="&#x17f;" horiz-adv-x="611" 
d="M499 1530q74 0 79 -15v-179h-68q-81 -1 -106 -19q-44 -33 -44 -82v-1235h-214v874h-152v181h152v226q0 249 353 249z" />
    <glyph glyph-name="Oopen" unicode="&#x186;" horiz-adv-x="1183" 
d="M1107 946q16 -94 16 -190t-15 -189t-44.5 -181.5t-77 -163t-108.5 -130.5q-130 -119 -323 -119q-245 0 -387 245q-69 119 -93 245v1l208 56q16 -107 38 -156.5t44 -83t48 -55.5q62 -51 140.5 -51t134.5 35.5t92 93t60 134.5q44 142 44 320q0 472 -224 564q-48 20 -102 20
t-96.5 -14t-71.5 -36.5t-51.5 -53.5t-36 -62.5t-21.5 -64.5q-15 -58 -15 -108l-223 31q45 192 157 333q142 176 357 176q264 0 425 -251q91 -141 125 -345z" />
    <glyph glyph-name="Dbar" unicode="&#x189;" horiz-adv-x="1214" 
d="M351 201h144q103 0 183 38t125.5 95t74.5 134q50 128 50 248.5t-11.5 198t-41.5 153t-77 128.5q-105 118 -303 118h-144v-481h291v-181h-291v-451zM9 652v181h103v682h357q549 0 661 -441q37 -143 37 -298t-22 -262t-73.5 -203t-129.5 -164q-170 -147 -473 -147h-357v652
h-103z" />
    <glyph glyph-name="Iotalatin" unicode="&#x196;" horiz-adv-x="437" 
d="M99 0v1515h239v-1515h-239z" />
    <glyph glyph-name="pipe" unicode="&#x1c0;" horiz-adv-x="358" 
d="M64 -141v1704h239v-1704h-239z" />
    <glyph glyph-name="pipedbl" unicode="&#x1c1;" horiz-adv-x="706" 
d="M418 -141v1704h239v-1704h-239zM70 -141v1704h239v-1704h-239z" />
    <glyph glyph-name="exclamlatin" unicode="&#x1c3;" horiz-adv-x="342" 
d="M53 1446h243l-37 -1100h-168zM55 0v243h244v-243h-244z" />
    <glyph glyph-name="DZcaron" unicode="&#x1c4;" horiz-adv-x="2371" 
d="M2077 1902l-248 -248l-249 249l94 92l153 -153l155 155zM1270 0v136l733 1172h-679v207h998v-161l-693 -1124h710v-230h-1069zM374 201h144q209 0 322 151q111 150 111 395q0 467 -299 550q-61 17 -134 17h-144v-1113zM135 0v1515h357q548 0 662 -441q36 -141 36 -297
t-21.5 -263t-73.5 -203t-130 -164q-171 -147 -473 -147h-357z" />
    <glyph glyph-name="Dzcaron" unicode="&#x1c5;" horiz-adv-x="2004" 
d="M1894 1436l-248 -248l-249 249l94 92l153 -153l155 155zM1228 0v137l474 737h-420v181h716v-120l-470 -741h488v-194h-788zM374 201h144q209 0 322 151q111 150 111 395q0 467 -299 550q-61 17 -134 17h-144v-1113zM135 0v1515h357q548 0 662 -441q36 -141 36 -297
t-21.5 -263t-73.5 -203t-130 -164q-171 -147 -473 -147h-357z" />
    <glyph glyph-name="dzcaron" unicode="&#x1c6;" horiz-adv-x="1767" 
d="M1658 1436l-248 -248l-249 249l94 92l153 -153l155 155zM992 0v137l474 737h-420v181h716v-120l-470 -741h488v-194h-788zM717 789q-99 103 -216 103q-122 0 -175 -105q-47 -92 -47 -276q0 -203 66 -281q56 -67 166 -67q116 0 192 103q13 18 14 19v504zM931 143
q0 -70 28 -143h-226q-3 5 -6 14l-10 65q-76 -97 -222 -97q-252 0 -366 233q-64 130 -64 293q0 381 188 501q100 64 256 64q77 0 133.5 -30.5t74.5 -57.5v530h214v-1372z" />
    <glyph glyph-name="LJ" unicode="&#x1c7;" horiz-adv-x="1850" 
d="M945 291l141 72q38 -117 148 -168q44 -20 82.5 -20t59.5 6t36.5 14.5t27.5 24.5t20 31.5t13.5 39t8.5 42.5t5 48q2 41 2 100v1034h239v-1093q0 -364 -273 -433q-60 -15 -128.5 -15t-124 17t-92.5 41.5t-67.5 61t-46.5 64t-29 63.5q-15 39 -22 70zM135 0v1515h239v-1285
h626v-230h-865z" />
    <glyph glyph-name="Lj" unicode="&#x1c8;" horiz-adv-x="1354" 
d="M932 -165q100 0 144 32.5t44 154.5v1033h214v-1062q0 -170 -55 -238q-21 -26 -38.5 -42.5t-49.5 -28t-54 -17.5t-63 -9q-53 -4 -134 -4zM1106 1147v243h242v-243h-242zM135 0v1515h239v-1285h626v-230h-865z" />
    <glyph glyph-name="lj" unicode="&#x1c9;" horiz-adv-x="766" 
d="M344 -165q100 0 144 32.5t44 154.5v1033h214v-1062q0 -170 -55 -238q-21 -26 -38.5 -42.5t-49.5 -28t-54 -17.5t-63 -9q-53 -4 -134 -4zM518 1147v243h242v-243h-242zM136 -3v1518h214v-1518h-214z" />
    <glyph glyph-name="NJ" unicode="&#x1ca;" horiz-adv-x="2169" 
d="M1265 291l141 72q38 -117 148 -168q44 -20 82.5 -20t59.5 6t36.5 14.5t27.5 24.5t20 31.5t13.5 39t8.5 42.5t5 48q2 41 2 100v1034h239v-1093q0 -364 -273 -433q-60 -15 -128.5 -15t-124 17t-92.5 41.5t-67.5 61t-46.5 64t-29 63.5q-15 39 -22 70zM929 585v930h238v-1515
h-190l-612 1162v-1162h-238v1515h308z" />
    <glyph glyph-name="Nj" unicode="&#x1cb;" horiz-adv-x="1625" 
d="M1203 -165q100 0 144 32.5t44 154.5v1033h214v-1062q0 -170 -55 -238q-21 -26 -38.5 -42.5t-49.5 -28t-54 -17.5t-63 -9q-53 -4 -134 -4zM1377 1147v243h242v-243h-242zM929 585v930h238v-1515h-190l-612 1162v-1162h-238v1515h308z" />
    <glyph glyph-name="nj" unicode="&#x1cc;" horiz-adv-x="1343" 
d="M921 -165q100 0 144 32.5t44 154.5v1033h214v-1062q0 -170 -55 -238q-21 -26 -38.5 -42.5t-49.5 -28t-54 -17.5t-63 -9q-53 -4 -134 -4zM1095 1147v243h242v-243h-242zM903 791v-791h-214v735q0 72 -43.5 114.5t-103.5 42.5t-119 -35.5t-88 -70.5v-786h-214v1055h214
v-112q58 58 121.5 94t148.5 36q130 0 214 -70.5t84 -211.5z" />
    <glyph glyph-name="Acaron" unicode="&#x1cd;" horiz-adv-x="1130" 
d="M819 1902l-248 -248l-249 249l94 92l153 -153l155 155zM432 640h283l-141 489zM2 0l432 1515h262l432 -1515h-231l-125 439h-397l-125 -439h-248z" />
    <glyph glyph-name="acaron" unicode="&#x1ce;" 
d="M672 1436l-248 -248l-249 249l94 92l153 -153l155 155zM284 272q0 -59 29 -85.5t72 -26.5t64.5 5t42.5 15l37 19q16 9 36 25l29 23q8 7 26 23l18 17v247q-224 -52 -293 -112q-61 -54 -61 -150zM668 0q-30 18 -30 93l-19 -22q-86 -92 -246 -92q-194 0 -266 137
q-37 68 -37 157t31.5 158.5t102.5 122.5q129 96 434 157q0 71 -4.5 87t-10 30t-13.5 21.5t-20 16.5t-28 13q-39 10 -86.5 10t-89 -14.5t-66 -32.5t-44.5 -42q-26 -32 -37 -56l-140 86q44 91 76 121.5t63 52.5t66 35q84 31 171 31t138.5 -9.5t98 -34t76.5 -65.5
q64 -89 64 -260v-552q0 -28 10.5 -79t19.5 -70h-214z" />
    <glyph glyph-name="Icaron" unicode="&#x1cf;" horiz-adv-x="437" 
d="M473 1902l-248 -248l-249 249l94 92l153 -153l155 155zM99 0v1515h239v-1515h-239z" />
    <glyph glyph-name="icaron" unicode="&#x1d0;" horiz-adv-x="527" 
d="M458 1436l-248 -248l-249 249l94 92l153 -153l155 155zM96 0v1055h214v-1055h-214z" />
    <glyph glyph-name="Ocaron" unicode="&#x1d1;" horiz-adv-x="1274" 
d="M901 1902l-248 -248l-249 249l94 92l153 -153l155 155zM306 858q-4 -52 -4 -106.5t4 -107.5t14.5 -112t26.5 -109t43.5 -96.5t61.5 -79.5q77 -72 194 -72q325 0 325 578q0 471 -220 568q-48 21 -106.5 21t-108 -21t-84 -55.5t-62 -83.5t-43.5 -101t-26.5 -111.5
t-14.5 -111.5zM73 601q-10 76 -10 151t9 151t30 154.5t52 148.5t78.5 132.5t106.5 107.5q127 97 309 97q250 0 400 -206q162 -224 162 -585q0 -368 -156 -580q-146 -198 -406 -198q-247 0 -405 199q-134 168 -170 428z" />
    <glyph glyph-name="ocaron" unicode="&#x1d2;" horiz-adv-x="982" 
d="M746 1436l-248 -248l-249 249l94 92l153 -153l155 155zM279 649q-6 -53 -6 -114t6 -110t21.5 -98t39.5 -85q54 -80 152 -80q217 0 217 365q0 214 -64 297q-52 68 -153 68q-185 0 -213 -243zM59 528q0 250 115.5 397.5t317.5 147.5q134 0 232 -68q199 -139 199 -478
q0 -423 -264 -519q-73 -27 -166.5 -27t-167.5 27t-123 75t-82 118q-61 130 -61 327z" />
    <glyph glyph-name="Ucaron" unicode="&#x1d3;" horiz-adv-x="1234" 
d="M875 1902l-248 -248l-249 249l94 92l153 -153l155 155zM123 448v1067h239v-1010q0 -253 163 -314q42 -16 94 -16t94 14t68 35t45 53.5t28 59.5t15 64q6 48 6 104v1010h244v-1067q0 -229 -151 -363q-125 -111 -348 -111q-339 0 -450 257q-47 106 -47 217z" />
    <glyph glyph-name="ucaron" unicode="&#x1d4;" horiz-adv-x="998" 
d="M764 1436l-248 -248l-249 249l94 92l153 -153l155 155zM118 264v791h214v-735q0 -72 43.5 -114.5t103 -42.5t119 35.5t88.5 70.5v786h214v-1055h-214v112q-130 -130 -270 -130q-126 0 -209 66q-89 71 -89 216z" />
    <glyph glyph-name="Udieresismacron" unicode="&#x1d5;" horiz-adv-x="1234" 
d="M326 2030v149h609v-149h-609zM691 1665v243h242v-243h-242zM311 1665v243h242v-243h-242zM123 448v1067h239v-1010q0 -253 163 -314q42 -16 94 -16t94 14t68 35t45 53.5t28 59.5t15 64q6 48 6 104v1010h244v-1067q0 -229 -151 -363q-125 -111 -348 -111q-339 0 -450 257
q-47 106 -47 217z" />
    <glyph glyph-name="udieresismacron" unicode="&#x1d6;" horiz-adv-x="998" 
d="M214 1560v149h609v-149h-609zM580 1195v243h242v-243h-242zM200 1195v243h242v-243h-242zM118 264v791h214v-735q0 -72 43.5 -114.5t103 -42.5t119 35.5t88.5 70.5v786h214v-1055h-214v112q-130 -130 -270 -130q-126 0 -209 66q-89 71 -89 216z" />
    <glyph glyph-name="Udieresisacute" unicode="&#x1d7;" horiz-adv-x="1234" 
d="M987 2331l-356 -301l-87 86l327 338zM691 1665v243h242v-243h-242zM311 1665v243h242v-243h-242zM123 448v1067h239v-1010q0 -253 163 -314q42 -16 94 -16t94 14t68 35t45 53.5t28 59.5t15 64q6 48 6 104v1010h244v-1067q0 -229 -151 -363q-125 -111 -348 -111
q-339 0 -450 257q-47 106 -47 217z" />
    <glyph glyph-name="udieresisacute" unicode="&#x1d8;" horiz-adv-x="998" 
d="M876 1861l-356 -301l-87 86l327 338zM580 1195v243h242v-243h-242zM200 1195v243h242v-243h-242zM118 264v791h214v-735q0 -72 43.5 -114.5t103 -42.5t119 35.5t88.5 70.5v786h214v-1055h-214v112q-130 -130 -270 -130q-126 0 -209 66q-89 71 -89 216z" />
    <glyph glyph-name="Udieresiscaron" unicode="&#x1d9;" horiz-adv-x="1234" 
d="M876 2278l-248 -248l-249 249l94 92l153 -153l155 155zM691 1665v243h242v-243h-242zM311 1665v243h242v-243h-242zM123 448v1067h239v-1010q0 -253 163 -314q42 -16 94 -16t94 14t68 35t45 53.5t28 59.5t15 64q6 48 6 104v1010h244v-1067q0 -229 -151 -363
q-125 -111 -348 -111q-339 0 -450 257q-47 106 -47 217z" />
    <glyph glyph-name="udieresiscaron" unicode="&#x1da;" horiz-adv-x="998" 
d="M764 1808l-248 -248l-249 249l94 92l153 -153l155 155zM580 1195v243h242v-243h-242zM200 1195v243h242v-243h-242zM118 264v791h214v-735q0 -72 43.5 -114.5t103 -42.5t119 35.5t88.5 70.5v786h214v-1055h-214v112q-130 -130 -270 -130q-126 0 -209 66q-89 71 -89 216z
" />
    <glyph glyph-name="Udieresisgrave" unicode="&#x1db;" horiz-adv-x="1234" 
d="M294 2331l116 123l327 -338l-87 -86zM691 1665v243h242v-243h-242zM311 1665v243h242v-243h-242zM123 448v1067h239v-1010q0 -253 163 -314q42 -16 94 -16t94 14t68 35t45 53.5t28 59.5t15 64q6 48 6 104v1010h244v-1067q0 -229 -151 -363q-125 -111 -348 -111
q-339 0 -450 257q-47 106 -47 217z" />
    <glyph glyph-name="udieresisgrave" unicode="&#x1dc;" horiz-adv-x="998" 
d="M183 1861l116 123l327 -338l-87 -86zM580 1195v243h242v-243h-242zM200 1195v243h242v-243h-242zM118 264v791h214v-735q0 -72 43.5 -114.5t103 -42.5t119 35.5t88.5 70.5v786h214v-1055h-214v112q-130 -130 -270 -130q-126 0 -209 66q-89 71 -89 216z" />
    <glyph glyph-name="eturned" unicode="&#x1dd;" horiz-adv-x="936" 
d="M636 403h-370q0 -78 27 -135q52 -105 144 -105q55 0 96.5 24.5t62.5 63.5q40 73 40 152zM847.5 709.5q12.5 -72.5 12.5 -183t-26 -214.5t-67 -165.5t-99 -99.5q-99 -65 -233 -65q-126 0 -220 75q-176 142 -168 527h599q0 202 -107 272q-55 36 -115.5 36t-100.5 -15
t-64 -34t-44 -44q-27 -35 -37 -60l-136 88q74 129 158 184q93 62 204.5 62t190 -29t128 -77t81 -116.5t44 -141z" />
    <glyph glyph-name="Adieresismacron" unicode="&#x1de;" horiz-adv-x="1130" 
d="M270 2030v149h609v-149h-609zM635 1665v243h242v-243h-242zM255 1665v243h242v-243h-242zM432 640h283l-141 489zM2 0l432 1515h262l432 -1515h-231l-125 439h-397l-125 -439h-248z" />
    <glyph glyph-name="adieresismacron" unicode="&#x1df;" 
d="M185 1553v149h609v-149h-609zM550 1188v243h242v-243h-242zM170 1188v243h242v-243h-242zM284 272q0 -59 29 -85.5t72 -26.5t64.5 5t42.5 15l37 19q16 9 36 25l29 23q8 7 26 23l18 17v247q-224 -52 -293 -112q-61 -54 -61 -150zM668 0q-30 18 -30 93l-19 -22
q-86 -92 -246 -92q-194 0 -266 137q-37 68 -37 157t31.5 158.5t102.5 122.5q129 96 434 157q0 71 -4.5 87t-10 30t-13.5 21.5t-20 16.5t-28 13q-39 10 -86.5 10t-89 -14.5t-66 -32.5t-44.5 -42q-26 -32 -37 -56l-140 86q44 91 76 121.5t63 52.5t66 35q84 31 171 31
t138.5 -9.5t98 -34t76.5 -65.5q64 -89 64 -260v-552q0 -28 10.5 -79t19.5 -70h-214z" />
    <glyph glyph-name="Adotmacron" unicode="&#x1e0;" horiz-adv-x="1130" 
d="M272 2019v149h609v-149h-609zM433 1654v243h244v-243h-244zM432 640h283l-141 489zM2 0l432 1515h262l432 -1515h-231l-125 439h-397l-125 -439h-248z" />
    <glyph glyph-name="adotmacron" unicode="&#x1e1;" 
d="M125 1553v149h609v-149h-609zM286 1188v243h244v-243h-244zM284 272q0 -59 29 -85.5t72 -26.5t64.5 5t42.5 15l37 19q16 9 36 25l29 23q8 7 26 23l18 17v247q-224 -52 -293 -112q-61 -54 -61 -150zM668 0q-30 18 -30 93l-19 -22q-86 -92 -246 -92q-194 0 -266 137
q-37 68 -37 157t31.5 158.5t102.5 122.5q129 96 434 157q0 71 -4.5 87t-10 30t-13.5 21.5t-20 16.5t-28 13q-39 10 -86.5 10t-89 -14.5t-66 -32.5t-44.5 -42q-26 -32 -37 -56l-140 86q44 91 76 121.5t63 52.5t66 35q84 31 171 31t138.5 -9.5t98 -34t76.5 -65.5
q64 -89 64 -260v-552q0 -28 10.5 -79t19.5 -70h-214z" />
    <glyph glyph-name="AEmacron" unicode="&#x1e2;" horiz-adv-x="1741" 
d="M721 1626v149h609v-149h-609zM687 640v674h-57l-193 -674h250zM687 439h-307l-125 -439h-253l432 1515h1120v-201h-628v-419h437v-202h-437v-478h666v-215h-905v439z" />
    <glyph glyph-name="aemacron" unicode="&#x1e3;" horiz-adv-x="1540" 
d="M528 1160v149h609v-149h-609zM851 654h370q0 78 -27 134q-52 104 -144 104q-123 0 -174 -116q-25 -58 -25 -122zM482 1070q205 0 287 -103q105 106 283 106q197 0 300 -165q97 -154 91 -437h-602q0 -203 107 -272q55 -36 115.5 -36t100.5 15t64 34t44 45q26 32 37 59
l136 -88q-71 -127 -158 -185q-92 -61 -215 -61q-263 0 -375 196l-8 -13t-15 -22l-21 -27q-13 -18 -28 -32l-35 -30q-90 -75 -230 -75q-194 0 -267 137q-36 68 -36 158.5t30.5 161t101.5 123.5q128 94 436 152q0 71 -4.5 87t-10 30t-13.5 21.5t-20 16.5t-28 13
q-39 10 -86.5 10t-89 -14.5t-66 -32.5t-44.5 -42q-27 -32 -37 -56l-140 86q44 91 75.5 121.5t63 52.5t66.5 35q84 31 191 31zM271 288q0 -128 122 -128q45 0 76 15.5t47 24t36 24.5l29 23q8 7 26 23l18 17v247q-224 -52 -293 -112q-61 -54 -61 -134z" />
    <glyph glyph-name="Gcaron" unicode="&#x1e6;" horiz-adv-x="1262" 
d="M896 1902l-248 -248l-249 249l94 92l153 -153l155 155zM929 1035q-65 307 -272 307q-219 0 -307 -249q-49 -139 -49 -326q0 -450 191 -560q56 -32 119 -32t106.5 12.5t73 32t51.5 50.5t34 62t19 74q11 65 13 157h-291v202h526v-765h-194v120q-64 -78 -140 -111
q-82 -35 -189 -35t-196 43.5t-154 119.5t-113 177q-95 201 -95 455q0 243 91 436q101 213 279 294q97 44 186.5 44t143 -12.5t109 -45t100.5 -84.5q99 -113 162 -329z" />
    <glyph glyph-name="gcaron" unicode="&#x1e7;" horiz-adv-x="1008" 
d="M730 1438l-248 -248l-249 249l94 92l153 -153l155 155zM653.5 326q-78.5 -30 -158.5 -30t-131 20q-9 -9 -33 -25q-47 -32 -47 -67q0 -47 151 -65q28 -4 35 -4.5t36 -1t45 -1t51.5 -4.5t67.5 -11q172 -39 220 -82q100 -91 100 -217q0 -290 -492 -290q-205 0 -337 68
q-141 72 -141 221q0 132 192 205q-60 8 -101 52.5t-41 105.5q0 128 154 195q-52 27 -96 118.5t-44 193.5t57.5 188t155.5 132t219 46q56 0 115.5 -21.5t84.5 -43.5q86 62 184 66q14 1 46 1.5t46 0.5v-180h-4q-97 10 -130 -7q-10 -5 -9.5 -10t11.5 -36t17 -48
q17 -56 17 -122.5t-28.5 -138.5t-81 -125t-131 -83zM354.5 840q-56.5 -52 -56.5 -150.5t51.5 -155t152.5 -56.5q129 0 168 140q10 35 10 70.5t-10 69.5t-30 65q-45 69 -137 69t-148.5 -52zM242 -122q-9 -21 -9 -44.5t9 -40t22 -27t35.5 -18.5t41.5 -11.5t48 -5.5
q40 -3 85.5 -3t66 0.5t54.5 2.5t56 6.5t48 12.5t40 20q36 28 36 69t-34 68t-86 39.5t-104 19.5t-98.5 11t-58.5 9q-105 -42 -124 -64.5t-28 -43.5z" />
    <glyph glyph-name="Kcaron" unicode="&#x1e8;" horiz-adv-x="1151" 
d="M863 1902l-248 -248l-249 249l94 92l153 -153l155 155zM123 0v1515h241v-674l505 674h252l-449 -591l477 -924h-263l-367 723l-155 -204v-519h-241z" />
    <glyph glyph-name="kcaron" unicode="&#x1e9;" horiz-adv-x="925" 
d="M749 1885l-248 -248l-249 249l94 92l153 -153l155 155zM124 0v1515h214v-853l304 393h260l-306 -390l324 -665h-242l-230 476l-110 -139v-337h-214z" />
    <glyph glyph-name="Oogonek" unicode="&#x1ea;" horiz-adv-x="1274" 
d="M676 -155q0 -46 125 -46v-152q-106 -5 -149 8t-65 23t-36 24q-54 51 -22 156q20 64 68 118q-212 19 -354 197q-134 168 -170 428q-10 76 -10 151t9 151t30 154.5t52 148.5t78.5 132.5t106.5 107.5q127 97 309 97q250 0 400 -206q162 -224 162 -585q0 -368 -156 -580
q-125 -169 -334 -194q-44 -62 -44 -133zM306 858q-4 -52 -4 -106.5t4 -107.5t14.5 -112t26.5 -109t43.5 -96.5t61.5 -79.5q77 -72 194 -72q325 0 325 578q0 471 -220 568q-48 21 -106.5 21t-108 -21t-84 -55.5t-62 -83.5t-43.5 -101t-26.5 -111.5t-14.5 -111.5z" />
    <glyph glyph-name="oogonek" unicode="&#x1eb;" horiz-adv-x="982" 
d="M523 -151q0 -46 125 -46v-152q-106 -5 -149 8t-65.5 23t-36.5 24q-53 51 -21 156q20 66 70 121q-66 5 -121 25q-74 27 -123 75t-82 118q-61 130 -61 327q0 250 115.5 397.5t317.5 147.5q134 0 232 -68q199 -139 199 -478q0 -423 -264 -519q-42 -15 -89 -22
q-47 -64 -47 -137zM279 649q-6 -53 -6 -114t6 -110t21.5 -98t39.5 -85q54 -80 152 -80q217 0 217 365q0 214 -64 297q-52 68 -153 68q-185 0 -213 -243z" />
    <glyph glyph-name="Oogonekmacron" unicode="&#x1ec;" horiz-adv-x="1274" 
d="M393 1626v149h609v-149h-609zM676 -155q0 -46 125 -46v-152q-106 -5 -149 8t-65 23t-36 24q-54 51 -22 156q20 64 68 118q-212 19 -354 197q-134 168 -170 428q-10 76 -10 151t9 151t30 154.5t52 148.5t78.5 132.5t106.5 107.5q127 97 309 97q250 0 400 -206
q162 -224 162 -585q0 -368 -156 -580q-125 -169 -334 -194q-44 -62 -44 -133zM306 858q-4 -52 -4 -106.5t4 -107.5t14.5 -112t26.5 -109t43.5 -96.5t61.5 -79.5q77 -72 194 -72q325 0 325 578q0 471 -220 568q-48 21 -106.5 21t-108 -21t-84 -55.5t-62 -83.5t-43.5 -101
t-26.5 -111.5t-14.5 -111.5z" />
    <glyph glyph-name="oogonekmacron" unicode="&#x1ed;" horiz-adv-x="982" 
d="M238 1160v149h609v-149h-609zM523 -151q0 -46 125 -46v-152q-106 -5 -149 8t-65.5 23t-36.5 24q-53 51 -21 156q20 66 70 121q-66 5 -121 25q-74 27 -123 75t-82 118q-61 130 -61 327q0 250 115.5 397.5t317.5 147.5q134 0 232 -68q199 -139 199 -478q0 -423 -264 -519
q-42 -15 -89 -22q-47 -64 -47 -137zM279 649q-6 -53 -6 -114t6 -110t21.5 -98t39.5 -85q54 -80 152 -80q217 0 217 365q0 214 -64 297q-52 68 -153 68q-185 0 -213 -243z" />
    <glyph glyph-name="DZ" unicode="&#x1f1;" horiz-adv-x="2371" 
d="M1270 0v136l733 1172h-679v207h998v-161l-693 -1124h710v-230h-1069zM374 201h144q209 0 322 151q111 150 111 395q0 467 -299 550q-61 17 -134 17h-144v-1113zM135 0v1515h357q548 0 662 -441q36 -141 36 -297t-21.5 -263t-73.5 -203t-130 -164q-171 -147 -473 -147
h-357z" />
    <glyph glyph-name="Dz" unicode="&#x1f2;" horiz-adv-x="2004" 
d="M1228 0v137l474 737h-420v181h716v-120l-470 -741h488v-194h-788zM374 201h144q209 0 322 151q111 150 111 395q0 467 -299 550q-61 17 -134 17h-144v-1113zM135 0v1515h357q548 0 662 -441q36 -141 36 -297t-21.5 -263t-73.5 -203t-130 -164q-171 -147 -473 -147h-357z
" />
    <glyph glyph-name="dz" unicode="&#x1f3;" horiz-adv-x="1767" 
d="M992 0v137l474 737h-420v181h716v-120l-470 -741h488v-194h-788zM717 789q-99 103 -216 103q-122 0 -175 -105q-47 -92 -47 -276q0 -203 66 -281q56 -67 166 -67q116 0 192 103q13 18 14 19v504zM931 143q0 -70 28 -143h-226q-3 5 -6 14l-10 65q-76 -97 -222 -97
q-252 0 -366 233q-64 130 -64 293q0 381 188 501q100 64 256 64q77 0 133.5 -30.5t74.5 -57.5v530h214v-1372z" />
    <glyph glyph-name="Gacute" unicode="&#x1f4;" horiz-adv-x="1262" 
d="M1008 1955l-356 -301l-87 86l327 338zM929 1035q-65 307 -272 307q-219 0 -307 -249q-49 -139 -49 -326q0 -450 191 -560q56 -32 119 -32t106.5 12.5t73 32t51.5 50.5t34 62t19 74q11 65 13 157h-291v202h526v-765h-194v120q-64 -78 -140 -111q-82 -35 -189 -35
t-196 43.5t-154 119.5t-113 177q-95 201 -95 455q0 243 91 436q101 213 279 294q97 44 186.5 44t143 -12.5t109 -45t100.5 -84.5q99 -113 162 -329z" />
    <glyph glyph-name="gacute" unicode="&#x1f5;" horiz-adv-x="1008" 
d="M863 1491l-356 -301l-87 86l327 338zM653.5 326q-78.5 -30 -158.5 -30t-131 20q-9 -9 -33 -25q-47 -32 -47 -67q0 -47 151 -65q28 -4 35 -4.5t36 -1t45 -1t51.5 -4.5t67.5 -11q172 -39 220 -82q100 -91 100 -217q0 -290 -492 -290q-205 0 -337 68q-141 72 -141 221
q0 132 192 205q-60 8 -101 52.5t-41 105.5q0 128 154 195q-52 27 -96 118.5t-44 193.5t57.5 188t155.5 132t219 46q56 0 115.5 -21.5t84.5 -43.5q86 62 184 66q14 1 46 1.5t46 0.5v-180h-4q-97 10 -130 -7q-10 -5 -9.5 -10t11.5 -36t17 -48q17 -56 17 -122.5t-28.5 -138.5
t-81 -125t-131 -83zM354.5 840q-56.5 -52 -56.5 -150.5t51.5 -155t152.5 -56.5q129 0 168 140q10 35 10 70.5t-10 69.5t-30 65q-45 69 -137 69t-148.5 -52zM242 -122q-9 -21 -9 -44.5t9 -40t22 -27t35.5 -18.5t41.5 -11.5t48 -5.5q40 -3 85.5 -3t66 0.5t54.5 2.5t56 6.5
t48 12.5t40 20q36 28 36 69t-34 68t-86 39.5t-104 19.5t-98.5 11t-58.5 9q-105 -42 -124 -64.5t-28 -43.5z" />
    <glyph glyph-name="Ngrave" unicode="&#x1f8;" horiz-adv-x="1272" 
d="M294 1954l116 123l327 -338l-87 -86zM917 585v930h238v-1515h-190l-612 1162v-1162h-238v1515h308z" />
    <glyph glyph-name="ngrave" unicode="&#x1f9;" horiz-adv-x="988" 
d="M159 1488l116 123l327 -338l-87 -86zM892 791v-791h-214v735q0 72 -43.5 114.5t-103.5 42.5t-119 -35.5t-88 -70.5v-786h-214v1055h214v-112q58 58 121.5 94t148.5 36q130 0 214 -70.5t84 -211.5z" />
    <glyph glyph-name="Aringacute" unicode="&#x1fa;" horiz-adv-x="1130" 
d="M853 2451l-356 -301l-87 86l327 338zM248.5 1746q-0.5 118 84 202.5t203 84.5t202.5 -84.5t84 -202.5t-84 -203q-19 -19 -40 -34l430 -1509h-231l-125 439h-397l-125 -439h-248l422 1481q-50 21 -91 62q-84 85 -84.5 203zM398 1746q0 -57 40 -97t97 -40t97 40t40 97
t-40 97t-97 40t-97 -40t-40 -97zM432 640h283l-141 489z" />
    <glyph glyph-name="aringacute" unicode="&#x1fb;" 
d="M782 2124l-356 -301l-87 86l327 338zM376 1412q0 -57 40 -97t97 -40t97 40t40 97t-40 97t-97 40t-97 -40t-40 -97zM226 1412q0 119 84.5 203t203 84t202.5 -84t84 -203t-84 -203t-202.5 -84t-203 84t-84.5 203zM284 272q0 -59 29 -85.5t72 -26.5t64.5 5t42.5 15l37 19
q16 9 36 25l29 23q8 7 26 23l18 17v247q-224 -52 -293 -112q-61 -54 -61 -150zM668 0q-30 18 -30 93l-19 -22q-86 -92 -246 -92q-194 0 -266 137q-37 68 -37 157t31.5 158.5t102.5 122.5q129 96 434 157q0 71 -4.5 87t-10 30t-13.5 21.5t-20 16.5t-28 13q-39 10 -86.5 10
t-89 -14.5t-66 -32.5t-44.5 -42q-26 -32 -37 -56l-140 86q44 91 76 121.5t63 52.5t66 35q84 31 171 31t138.5 -9.5t98 -34t76.5 -65.5q64 -89 64 -260v-552q0 -28 10.5 -79t19.5 -70h-214z" />
    <glyph glyph-name="AEacute" unicode="&#x1fc;" horiz-adv-x="1741" 
d="M1342 1955l-356 -301l-87 86l327 338zM687 640v674h-57l-193 -674h250zM687 439h-307l-125 -439h-253l432 1515h1120v-201h-628v-419h437v-202h-437v-478h666v-215h-905v439z" />
    <glyph glyph-name="aeacute" unicode="&#x1fd;" horiz-adv-x="1540" 
d="M1149 1489l-356 -301l-87 86l327 338zM851 654h370q0 78 -27 134q-52 104 -144 104q-123 0 -174 -116q-25 -58 -25 -122zM482 1070q205 0 287 -103q105 106 283 106q197 0 300 -165q97 -154 91 -437h-602q0 -203 107 -272q55 -36 115.5 -36t100.5 15t64 34t44 45
q26 32 37 59l136 -88q-71 -127 -158 -185q-92 -61 -215 -61q-263 0 -375 196l-8 -13t-15 -22l-21 -27q-13 -18 -28 -32l-35 -30q-90 -75 -230 -75q-194 0 -267 137q-36 68 -36 158.5t30.5 161t101.5 123.5q128 94 436 152q0 71 -4.5 87t-10 30t-13.5 21.5t-20 16.5t-28 13
q-39 10 -86.5 10t-89 -14.5t-66 -32.5t-44.5 -42q-27 -32 -37 -56l-140 86q44 91 75.5 121.5t63 52.5t66.5 35q84 31 191 31zM271 288q0 -128 122 -128q45 0 76 15.5t47 24t36 24.5l29 23q8 7 26 23l18 17v247q-224 -52 -293 -112q-61 -54 -61 -134z" />
    <glyph glyph-name="Oslashacute" unicode="&#x1fe;" horiz-adv-x="1261" 
d="M1002 1972l-356 -301l-87 86l327 338zM302 625.5q6 -61.5 20 -129.5q5 -26 11 -49l481 830q-70 65 -174 65q-138 0 -216 -103q-77 -100 -102 -233q-26 -131 -26 -225t6 -155.5zM71.5 575.5q-14.5 88.5 -14.5 170t9 157.5t30 154.5t52 148.5t78.5 132.5t106.5 107.5
q127 97 309 97q164 0 279 -82l73 127l185 -107l-109 -189q91 -149 122 -366q12 -87 12 -185.5t-15.5 -202t-56 -208.5t-102 -182t-161.5 -125.5t-214 -48.5t-201 34q-54 20 -99 51l-79 -137l-183 109l110 190l-9 14q-49 76 -78.5 164t-44 176.5zM932 1055l-474 -819
q71 -61 182 -61q137 0 209.5 97t94.5 225q21 129 21 219.5t-3.5 141.5t-12.5 111q-7 45 -17 86z" />
    <glyph glyph-name="oslashacute" unicode="&#x1ff;" horiz-adv-x="1073" 
d="M857 1525l-356 -301l-87 86l327 338zM560 883q-30 9 -74 9t-82.5 -17.5t-63 -48t-39.5 -77.5q-28 -84 -28 -186t10 -160zM697 691l-293 -508q39 -21 89 -21t89.5 22t63 57.5t38.5 84.5q25 86 25 192.5t-12 172.5zM261 -64l-186 107l67 116q-83 136 -83 377.5t115.5 389
t317.5 147.5q87 0 161 -30l48 85l186 -107l-66 -114q102 -146 102 -380q0 -423 -264 -519q-73 -27 -172.5 -27t-179.5 34z" />
    <glyph glyph-name="Adblgrave" unicode="&#x200;" horiz-adv-x="1130" 
d="M576 1954l116 123l327 -338l-87 -86zM223 1954l116 123l327 -338l-87 -86zM432 640h283l-141 489zM2 0l432 1515h262l432 -1515h-231l-125 439h-397l-125 -439h-248z" />
    <glyph glyph-name="adblgrave" unicode="&#x201;" 
d="M440 1488l116 123l327 -338l-87 -86zM87 1488l116 123l327 -338l-87 -86zM284 272q0 -59 29 -85.5t72 -26.5t64.5 5t42.5 15l37 19q16 9 36 25l29 23q8 7 26 23l18 17v247q-224 -52 -293 -112q-61 -54 -61 -150zM668 0q-30 18 -30 93l-19 -22q-86 -92 -246 -92
q-194 0 -266 137q-37 68 -37 157t31.5 158.5t102.5 122.5q129 96 434 157q0 71 -4.5 87t-10 30t-13.5 21.5t-20 16.5t-28 13q-39 10 -86.5 10t-89 -14.5t-66 -32.5t-44.5 -42q-26 -32 -37 -56l-140 86q44 91 76 121.5t63 52.5t66 35q84 31 171 31t138.5 -9.5t98 -34
t76.5 -65.5q64 -89 64 -260v-552q0 -28 10.5 -79t19.5 -70h-214z" />
    <glyph glyph-name="Ainvertedbreve" unicode="&#x202;" horiz-adv-x="1130" 
d="M565 1890q71 0 139.5 -47.5t94.5 -130.5l-103 -58q-19 44 -55.5 75.5t-75.5 31.5t-75.5 -31.5t-55.5 -75.5l-103 58q26 83 94.5 130.5t139.5 47.5zM432 640h283l-141 489zM2 0l432 1515h262l432 -1515h-231l-125 439h-397l-125 -439h-248z" />
    <glyph glyph-name="ainvertedbreve" unicode="&#x203;" 
d="M418 1424q71 0 139.5 -47.5t94.5 -130.5l-103 -58q-19 44 -55.5 75.5t-75.5 31.5t-75.5 -31.5t-55.5 -75.5l-103 58q26 83 94.5 130.5t139.5 47.5zM284 272q0 -59 29 -85.5t72 -26.5t64.5 5t42.5 15l37 19q16 9 36 25l29 23q8 7 26 23l18 17v247q-224 -52 -293 -112
q-61 -54 -61 -150zM668 0q-30 18 -30 93l-19 -22q-86 -92 -246 -92q-194 0 -266 137q-37 68 -37 157t31.5 158.5t102.5 122.5q129 96 434 157q0 71 -4.5 87t-10 30t-13.5 21.5t-20 16.5t-28 13q-39 10 -86.5 10t-89 -14.5t-66 -32.5t-44.5 -42q-26 -32 -37 -56l-140 86
q44 91 76 121.5t63 52.5t66 35q84 31 171 31t138.5 -9.5t98 -34t76.5 -65.5q64 -89 64 -260v-552q0 -28 10.5 -79t19.5 -70h-214z" />
    <glyph glyph-name="Edblgrave" unicode="&#x204;" horiz-adv-x="1079" 
d="M579 1954l116 123l327 -338l-87 -86zM226 1954l116 123l327 -338l-87 -86zM123 0v1515h867v-201h-628v-419h437v-202h-437v-478h666v-215h-905z" />
    <glyph glyph-name="edblgrave" unicode="&#x205;" horiz-adv-x="936" 
d="M511 1488l116 123l327 -338l-87 -86zM158 1488l116 123l327 -338l-87 -86zM283 652h370q0 78 -27 135q-52 105 -144 105q-55 0 -96.5 -24.5t-62.5 -63.5q-40 -73 -40 -152zM71.5 345.5q-12.5 72.5 -12.5 183t26 214.5t67 165.5t99 99.5q99 65 233 65q126 0 220 -75
q176 -142 168 -527h-599q0 -202 107 -272q55 -36 115.5 -36t100.5 15t64 34t44 44q27 35 37 60l136 -88q-74 -129 -158 -184q-93 -62 -204.5 -62t-190 29t-128 77t-81 116.5t-44 141z" />
    <glyph glyph-name="Einvertedbreve" unicode="&#x206;" horiz-adv-x="1079" 
d="M556 1890q71 0 139.5 -47.5t94.5 -130.5l-103 -58q-19 44 -55.5 75.5t-75.5 31.5t-75.5 -31.5t-55.5 -75.5l-103 58q26 83 94.5 130.5t139.5 47.5zM123 0v1515h867v-201h-628v-419h437v-202h-437v-478h666v-215h-905z" />
    <glyph glyph-name="einvertedbreve" unicode="&#x207;" horiz-adv-x="936" 
d="M480 1424q71 0 139.5 -47.5t94.5 -130.5l-103 -58q-19 44 -55.5 75.5t-75.5 31.5t-75.5 -31.5t-55.5 -75.5l-103 58q26 83 94.5 130.5t139.5 47.5zM283 652h370q0 78 -27 135q-52 105 -144 105q-55 0 -96.5 -24.5t-62.5 -63.5q-40 -73 -40 -152zM71.5 345.5
q-12.5 72.5 -12.5 183t26 214.5t67 165.5t99 99.5q99 65 233 65q126 0 220 -75q176 -142 168 -527h-599q0 -202 107 -272q55 -36 115.5 -36t100.5 15t64 34t44 44q27 35 37 60l136 -88q-74 -129 -158 -184q-93 -62 -204.5 -62t-190 29t-128 77t-81 116.5t-44 141z" />
    <glyph glyph-name="Idblgrave" unicode="&#x208;" horiz-adv-x="437" 
d="M250 1954l116 123l327 -338l-87 -86zM-103 1954l116 123l327 -338l-87 -86zM99 0v1515h239v-1515h-239z" />
    <glyph glyph-name="idblgrave" unicode="&#x209;" horiz-adv-x="527" 
d="M183 1488l116 123l327 -338l-87 -86zM-170 1488l116 123l327 -338l-87 -86zM96 0v1055h214v-1055h-214z" />
    <glyph glyph-name="Iinvertedbreve" unicode="&#x20a;" horiz-adv-x="437" 
d="M219 1890q71 0 139.5 -47.5t94.5 -130.5l-103 -58q-19 44 -55.5 75.5t-75.5 31.5t-75.5 -31.5t-55.5 -75.5l-103 58q26 83 94.5 130.5t139.5 47.5zM99 0v1515h239v-1515h-239z" />
    <glyph glyph-name="iinvertedbreve" unicode="&#x20b;" horiz-adv-x="527" 
d="M204 1424q71 0 139.5 -47.5t94.5 -130.5l-103 -58q-19 44 -55.5 75.5t-75.5 31.5t-75.5 -31.5t-55.5 -75.5l-103 58q26 83 94.5 130.5t139.5 47.5zM96 0v1055h214v-1055h-214z" />
    <glyph glyph-name="Odblgrave" unicode="&#x20c;" horiz-adv-x="1274" 
d="M674 1954l116 123l327 -338l-87 -86zM321 1954l116 123l327 -338l-87 -86zM306 858q-4 -52 -4 -106.5t4 -107.5t14.5 -112t26.5 -109t43.5 -96.5t61.5 -79.5q77 -72 194 -72q325 0 325 578q0 471 -220 568q-48 21 -106.5 21t-108 -21t-84 -55.5t-62 -83.5t-43.5 -101
t-26.5 -111.5t-14.5 -111.5zM73 601q-10 76 -10 151t9 151t30 154.5t52 148.5t78.5 132.5t106.5 107.5q127 97 309 97q250 0 400 -206q162 -224 162 -585q0 -368 -156 -580q-146 -198 -406 -198q-247 0 -405 199q-134 168 -170 428z" />
    <glyph glyph-name="odblgrave" unicode="&#x20d;" horiz-adv-x="982" 
d="M525 1488l116 123l327 -338l-87 -86zM172 1488l116 123l327 -338l-87 -86zM279 649q-6 -53 -6 -114t6 -110t21.5 -98t39.5 -85q54 -80 152 -80q217 0 217 365q0 214 -64 297q-52 68 -153 68q-185 0 -213 -243zM59 528q0 250 115.5 397.5t317.5 147.5q134 0 232 -68
q199 -139 199 -478q0 -423 -264 -519q-73 -27 -166.5 -27t-167.5 27t-123 75t-82 118q-61 130 -61 327z" />
    <glyph glyph-name="Oinvertedbreve" unicode="&#x20e;" horiz-adv-x="1274" 
d="M647 1890q71 0 139.5 -47.5t94.5 -130.5l-103 -58q-19 44 -55.5 75.5t-75.5 31.5t-75.5 -31.5t-55.5 -75.5l-103 58q26 83 94.5 130.5t139.5 47.5zM306 858q-4 -52 -4 -106.5t4 -107.5t14.5 -112t26.5 -109t43.5 -96.5t61.5 -79.5q77 -72 194 -72q325 0 325 578
q0 471 -220 568q-48 21 -106.5 21t-108 -21t-84 -55.5t-62 -83.5t-43.5 -101t-26.5 -111.5t-14.5 -111.5zM73 601q-10 76 -10 151t9 151t30 154.5t52 148.5t78.5 132.5t106.5 107.5q127 97 309 97q250 0 400 -206q162 -224 162 -585q0 -368 -156 -580q-146 -198 -406 -198
q-247 0 -405 199q-134 168 -170 428z" />
    <glyph glyph-name="oinvertedbreve" unicode="&#x20f;" horiz-adv-x="982" 
d="M492 1424q71 0 139.5 -47.5t94.5 -130.5l-103 -58q-19 44 -55.5 75.5t-75.5 31.5t-75.5 -31.5t-55.5 -75.5l-103 58q26 83 94.5 130.5t139.5 47.5zM279 649q-6 -53 -6 -114t6 -110t21.5 -98t39.5 -85q54 -80 152 -80q217 0 217 365q0 214 -64 297q-52 68 -153 68
q-185 0 -213 -243zM59 528q0 250 115.5 397.5t317.5 147.5q134 0 232 -68q199 -139 199 -478q0 -423 -264 -519q-73 -27 -166.5 -27t-167.5 27t-123 75t-82 118q-61 130 -61 327z" />
    <glyph glyph-name="Rdblgrave" unicode="&#x210;" horiz-adv-x="1121" 
d="M591 1954l116 123l327 -338l-87 -86zM238 1954l116 123l327 -338l-87 -86zM362 859h253q105 0 175 57q74 61 74 187q0 211 -335 211h-167v-455zM123 0v1515h509q351 0 444 -251q27 -73 27 -151t-17.5 -142t-51.5 -119q-75 -120 -221 -151l280 -701h-245l-262 657h-224
v-657h-239z" />
    <glyph glyph-name="rdblgrave" unicode="&#x211;" horiz-adv-x="651" 
d="M380 1488l116 123l327 -338l-87 -86zM27 1488l116 123l327 -338l-87 -86zM110 0v1055h214v-145q4 5 18 26l24 36q74 101 244 101q18 0 36 -3v-179q-182 -3 -262 -101q-36 -44 -60 -113v-677h-214z" />
    <glyph glyph-name="Rinvertedbreve" unicode="&#x212;" horiz-adv-x="1121" 
d="M524 1890q71 0 139.5 -47.5t94.5 -130.5l-103 -58q-19 44 -55.5 75.5t-75.5 31.5t-75.5 -31.5t-55.5 -75.5l-103 58q26 83 94.5 130.5t139.5 47.5zM362 859h253q105 0 175 57q74 61 74 187q0 211 -335 211h-167v-455zM123 0v1515h509q351 0 444 -251q27 -73 27 -151
t-17.5 -142t-51.5 -119q-75 -120 -221 -151l280 -701h-245l-262 657h-224v-657h-239z" />
    <glyph glyph-name="rinvertedbreve" unicode="&#x213;" horiz-adv-x="651" 
d="M377 1424q71 0 139.5 -47.5t94.5 -130.5l-103 -58q-19 44 -55.5 75.5t-75.5 31.5t-75.5 -31.5t-55.5 -75.5l-103 58q26 83 94.5 130.5t139.5 47.5zM110 0v1055h214v-145q4 5 18 26l24 36q74 101 244 101q18 0 36 -3v-179q-182 -3 -262 -101q-36 -44 -60 -113v-677h-214z
" />
    <glyph glyph-name="Udblgrave" unicode="&#x214;" horiz-adv-x="1234" 
d="M637 1954l116 123l327 -338l-87 -86zM284 1954l116 123l327 -338l-87 -86zM123 448v1067h239v-1010q0 -253 163 -314q42 -16 94 -16t94 14t68 35t45 53.5t28 59.5t15 64q6 48 6 104v1010h244v-1067q0 -229 -151 -363q-125 -111 -348 -111q-339 0 -450 257
q-47 106 -47 217z" />
    <glyph glyph-name="udblgrave" unicode="&#x215;" horiz-adv-x="998" 
d="M549 1488l116 123l327 -338l-87 -86zM196 1488l116 123l327 -338l-87 -86zM118 264v791h214v-735q0 -72 43.5 -114.5t103 -42.5t119 35.5t88.5 70.5v786h214v-1055h-214v112q-130 -130 -270 -130q-126 0 -209 66q-89 71 -89 216z" />
    <glyph glyph-name="Uinvertedbreve" unicode="&#x216;" horiz-adv-x="1234" 
d="M621 1890q71 0 139.5 -47.5t94.5 -130.5l-103 -58q-19 44 -55.5 75.5t-75.5 31.5t-75.5 -31.5t-55.5 -75.5l-103 58q26 83 94.5 130.5t139.5 47.5zM123 448v1067h239v-1010q0 -253 163 -314q42 -16 94 -16t94 14t68 35t45 53.5t28 59.5t15 64q6 48 6 104v1010h244v-1067
q0 -229 -151 -363q-125 -111 -348 -111q-339 0 -450 257q-47 106 -47 217z" />
    <glyph glyph-name="uinvertedbreve" unicode="&#x217;" horiz-adv-x="998" 
d="M510 1424q71 0 139.5 -47.5t94.5 -130.5l-103 -58q-19 44 -55.5 75.5t-75.5 31.5t-75.5 -31.5t-55.5 -75.5l-103 58q26 83 94.5 130.5t139.5 47.5zM118 264v791h214v-735q0 -72 43.5 -114.5t103 -42.5t119 35.5t88.5 70.5v786h214v-1055h-214v112q-130 -130 -270 -130
q-126 0 -209 66q-89 71 -89 216z" />
    <glyph glyph-name="Scommaaccent" unicode="&#x218;" horiz-adv-x="1041" 
d="M409 -584l80 250h-74v243h244v-197l-152 -296h-98zM24 388l192 63q1 0 4 -15t10.5 -39.5t21 -54t39.5 -59t61 -53.5q78 -55 194 -55t170.5 57t54.5 135.5t-16 127t-56 84.5q-67 60 -232 108q-291 85 -374 263q-43 93 -43 219q0 106 75 207q131 167 372 167
q191 0 313 -115q87 -81 130 -204l19 -53q9 -24 12 -31l-195 -69q-66 210 -206 259q-35 12 -73 12q-208 0 -208 -214q0 -98 58 -150q48 -45 126 -71l48 -16q41 -14 45 -15l44 -15q171 -60 231 -106q88 -68 115 -125q54 -117 54 -247q0 -102 -58 -207q-78 -141 -247 -185
q-65 -17 -142 -17t-144.5 14t-116.5 38t-90 55t-69 65.5t-49 69t-33.5 65.5t-20.5 55t-11.5 38t-4.5 14z" />
    <glyph glyph-name="scommaaccent" unicode="&#x219;" horiz-adv-x="890" 
d="M351 -579l80 250h-74v243h244v-197l-152 -296h-98zM67 212l148 90q35 -50 65 -80q71 -70 179 -70q87 0 124 36q34 33 34 100q0 76 -49 114q-44 33 -87 45l-94 27q-163 46 -235 124q-73 79 -73 209q0 111 91 186q96 80 275 80q161 0 277 -110q50 -47 63 -79l-124 -98
q-70 85 -140 105q-36 11 -94.5 11t-100 -30t-41.5 -88q0 -67 59 -104q52 -33 105 -49l90 -25q212 -60 263 -203q21 -58 21 -137.5t-49.5 -145.5t-130.5 -102t-163.5 -36t-136 10t-103.5 35q-97 49 -173 185z" />
    <glyph glyph-name="T_comma" unicode="&#x21a;" horiz-adv-x="1062" 
d="M419 -568l80 250h-74v243h244v-197l-152 -296h-98zM2 1314v201h1057v-201h-409v-1314h-239v1314h-409z" />
    <glyph glyph-name="t_comma" unicode="&#x21b;" horiz-adv-x="614" 
d="M244 -581l80 250h-74v243h244v-197l-152 -296h-98zM17 874v181h157v385h214v-385h221v-181h-221v-566q0 -85 30.5 -116.5t102.5 -31.5q29 0 58.5 4t29.5 5v-151q-54 -25 -83.5 -32t-72 -7t-63 1t-50 7t-51 16.5t-44.5 30.5t-38 48q-33 64 -33 166v626h-157z" />
    <glyph glyph-name="Hcaron" unicode="&#x21e;" horiz-adv-x="1276" 
d="M892 1902l-248 -248l-249 249l94 92l153 -153l155 155zM123 0v1515h239v-619h552v619h239v-1515h-239v695h-552v-695h-239z" />
    <glyph glyph-name="hcaron" unicode="&#x21f;" horiz-adv-x="997" 
d="M764 1885l-248 -248l-249 249l94 92l153 -153l155 155zM901 791v-791h-214v735q0 72 -43.5 114.5t-103.5 42.5t-119 -35.5t-88 -70.5v-786h-214v1515h214v-572q130 130 270 130q126 0 209 -66q89 -71 89 -216z" />
    <glyph glyph-name="Adotaccent" unicode="&#x226;" horiz-adv-x="1130" 
d="M433 1654v243h244v-243h-244zM432 640h283l-141 489zM2 0l432 1515h262l432 -1515h-231l-125 439h-397l-125 -439h-248z" />
    <glyph glyph-name="adotaccent" unicode="&#x227;" 
d="M286 1188v243h244v-243h-244zM284 272q0 -59 29 -85.5t72 -26.5t64.5 5t42.5 15l37 19q16 9 36 25l29 23q8 7 26 23l18 17v247q-224 -52 -293 -112q-61 -54 -61 -150zM668 0q-30 18 -30 93l-19 -22q-86 -92 -246 -92q-194 0 -266 137q-37 68 -37 157t31.5 158.5
t102.5 122.5q129 96 434 157q0 71 -4.5 87t-10 30t-13.5 21.5t-20 16.5t-28 13q-39 10 -86.5 10t-89 -14.5t-66 -32.5t-44.5 -42q-26 -32 -37 -56l-140 86q44 91 76 121.5t63 52.5t66 35q84 31 171 31t138.5 -9.5t98 -34t76.5 -65.5q64 -89 64 -260v-552q0 -28 10.5 -79
t19.5 -70h-214z" />
    <glyph glyph-name="Odieresismacron" unicode="&#x22a;" horiz-adv-x="1274" 
d="M351 1950v149h609v-149h-609zM719 1665v243h242v-243h-242zM339 1665v243h242v-243h-242zM306 858q-4 -52 -4 -106.5t4 -107.5t14.5 -112t26.5 -109t43.5 -96.5t61.5 -79.5q77 -72 194 -72q325 0 325 578q0 471 -220 568q-48 21 -106.5 21t-108 -21t-84 -55.5t-62 -83.5
t-43.5 -101t-26.5 -111.5t-14.5 -111.5zM73 601q-10 76 -10 151t9 151t30 154.5t52 148.5t78.5 132.5t106.5 107.5q127 97 309 97q250 0 400 -206q162 -224 162 -585q0 -368 -156 -580q-146 -198 -406 -198q-247 0 -405 199q-134 168 -170 428z" />
    <glyph glyph-name="odieresismacron" unicode="&#x22b;" horiz-adv-x="982" 
d="M238 1432v149h609v-149h-609zM562 1195v243h242v-243h-242zM182 1195v243h242v-243h-242zM279 649q-6 -53 -6 -114t6 -110t21.5 -98t39.5 -85q54 -80 152 -80q217 0 217 365q0 214 -64 297q-52 68 -153 68q-185 0 -213 -243zM59 528q0 250 115.5 397.5t317.5 147.5
q134 0 232 -68q199 -139 199 -478q0 -423 -264 -519q-73 -27 -166.5 -27t-167.5 27t-123 75t-82 118q-61 130 -61 327z" />
    <glyph glyph-name="Otildemacron" unicode="&#x22c;" horiz-adv-x="1274" 
d="M394 1945v149h609v-149h-609zM970 1865q-71 -200 -223 -200q-84 0 -149.5 45t-105 45t-59.5 -21t-37 -62l-130 60q23 91 89.5 145t121.5 54t94 -14.5t63 -31.5q64 -46 112 -46q38 0 55 23q22 31 35 65zM306 858q-4 -52 -4 -106.5t4 -107.5t14.5 -112t26.5 -109
t43.5 -96.5t61.5 -79.5q77 -72 194 -72q325 0 325 578q0 471 -220 568q-48 21 -106.5 21t-108 -21t-84 -55.5t-62 -83.5t-43.5 -101t-26.5 -111.5t-14.5 -111.5zM73 601q-10 76 -10 151t9 151t30 154.5t52 148.5t78.5 132.5t106.5 107.5q127 97 309 97q250 0 400 -206
q162 -224 162 -585q0 -368 -156 -580q-146 -198 -406 -198q-247 0 -405 199q-134 168 -170 428z" />
    <glyph glyph-name="otildemacron" unicode="&#x22d;" horiz-adv-x="982" 
d="M230 1479v149h609v-149h-609zM813 1395q-71 -200 -223 -200q-84 0 -149.5 45t-105 45t-59.5 -21t-37 -62l-130 60q23 91 89.5 145t121.5 54t94 -14.5t63 -31.5q64 -46 112 -46q38 0 55 23q22 31 35 65zM279 649q-6 -53 -6 -114t6 -110t21.5 -98t39.5 -85q54 -80 152 -80
q217 0 217 365q0 214 -64 297q-52 68 -153 68q-185 0 -213 -243zM59 528q0 250 115.5 397.5t317.5 147.5q134 0 232 -68q199 -139 199 -478q0 -423 -264 -519q-73 -27 -166.5 -27t-167.5 27t-123 75t-82 118q-61 130 -61 327z" />
    <glyph glyph-name="Odotaccent" unicode="&#x22e;" horiz-adv-x="1274" 
d="M515 1654v243h244v-243h-244zM306 858q-4 -52 -4 -106.5t4 -107.5t14.5 -112t26.5 -109t43.5 -96.5t61.5 -79.5q77 -72 194 -72q325 0 325 578q0 471 -220 568q-48 21 -106.5 21t-108 -21t-84 -55.5t-62 -83.5t-43.5 -101t-26.5 -111.5t-14.5 -111.5zM73 601
q-10 76 -10 151t9 151t30 154.5t52 148.5t78.5 132.5t106.5 107.5q127 97 309 97q250 0 400 -206q162 -224 162 -585q0 -368 -156 -580q-146 -198 -406 -198q-247 0 -405 199q-134 168 -170 428z" />
    <glyph glyph-name="odotaccent" unicode="&#x22f;" horiz-adv-x="982" 
d="M360 1188v243h244v-243h-244zM279 649q-6 -53 -6 -114t6 -110t21.5 -98t39.5 -85q54 -80 152 -80q217 0 217 365q0 214 -64 297q-52 68 -153 68q-185 0 -213 -243zM59 528q0 250 115.5 397.5t317.5 147.5q134 0 232 -68q199 -139 199 -478q0 -423 -264 -519
q-73 -27 -166.5 -27t-167.5 27t-123 75t-82 118q-61 130 -61 327z" />
    <glyph glyph-name="Odotaccentmacron" unicode="&#x230;" horiz-adv-x="1274" 
d="M393 1898v149h609v-149h-609zM515 1654v243h244v-243h-244zM306 858q-4 -52 -4 -106.5t4 -107.5t14.5 -112t26.5 -109t43.5 -96.5t61.5 -79.5q77 -72 194 -72q325 0 325 578q0 471 -220 568q-48 21 -106.5 21t-108 -21t-84 -55.5t-62 -83.5t-43.5 -101t-26.5 -111.5
t-14.5 -111.5zM73 601q-10 76 -10 151t9 151t30 154.5t52 148.5t78.5 132.5t106.5 107.5q127 97 309 97q250 0 400 -206q162 -224 162 -585q0 -368 -156 -580q-146 -198 -406 -198q-247 0 -405 199q-134 168 -170 428z" />
    <glyph glyph-name="odotaccentmacron" unicode="&#x231;" horiz-adv-x="982" 
d="M238 1432v149h609v-149h-609zM360 1188v243h244v-243h-244zM279 649q-6 -53 -6 -114t6 -110t21.5 -98t39.5 -85q54 -80 152 -80q217 0 217 365q0 214 -64 297q-52 68 -153 68q-185 0 -213 -243zM59 528q0 250 115.5 397.5t317.5 147.5q134 0 232 -68q199 -139 199 -478
q0 -423 -264 -519q-73 -27 -166.5 -27t-167.5 27t-123 75t-82 118q-61 130 -61 327z" />
    <glyph glyph-name="Ymacron" unicode="&#x232;" horiz-adv-x="1122" 
d="M307 1626v149h609v-149h-609zM680 701v-701h-238v701l-440 814h252l307 -573l307 573h252z" />
    <glyph glyph-name="ymacron" unicode="&#x233;" horiz-adv-x="903" 
d="M196 1160v149h609v-149h-609zM2 1055h238l222 -633l198 633h238l-352 -1087q-53 -164 -88 -216t-63.5 -82t-61.5 -48q-105 -59 -310 -28l-9 1l10 199q37 -16 97.5 -16t97 16t59 41t38.5 55.5t24 61.5q15 61 16 112z" />
    <glyph glyph-name="Vturned" unicode="&#x245;" horiz-adv-x="1104" 
d="M552 999l-297 -999h-253l450 1515h200l450 -1515h-253z" />
    <glyph glyph-name="aturned" unicode="&#x250;" 
d="M632 783q0 59 -29 85.5t-72 26.5t-64.5 -5t-42.5 -15l-37 -19q-16 -9 -36 -25l-29 -23q-8 -7 -26 -23l-18 -17v-247q224 52 293 112q61 54 61 150zM248 1055q30 -18 30 -93l19 22q86 92 246 92q194 0 266 -137q37 -68 37 -157t-31.5 -158.5t-102.5 -122.5
q-129 -96 -434 -157q0 -71 4.5 -87t10 -30t13.5 -21.5t20 -16.5t28 -13q39 -10 86.5 -10t89 14.5t66 32.5t44.5 42q26 32 37 56l140 -86q-44 -91 -76 -121.5t-63 -52.5t-66 -35q-84 -31 -171 -31t-138.5 9.5t-98 34t-76.5 65.5q-64 89 -64 260v552q0 28 -10.5 79t-19.5 70
h214z" />
    <glyph glyph-name="cturn" unicode="&#x254;" horiz-adv-x="937" 
d="M861 535q0 -314 -137 -447q-108 -106 -302.5 -106t-304.5 164q-36 53 -50 99l181 80q8 -82 67 -130q40 -32 99 -32q233 0 233 363q0 179 -61 272.5t-178 93.5q-82 0 -133 -60q-44 -52 -64 -111l-164 72q23 89 98 169q105 111 269 111q447 0 447 -538z" />
    <glyph glyph-name="schwa" unicode="&#x259;" horiz-adv-x="936" 
d="M636 403h-370q0 -78 27 -135q52 -105 144 -105q55 0 96.5 24.5t62.5 63.5q40 73 40 152zM847.5 709.5q12.5 -72.5 12.5 -183t-26 -214.5t-67 -165.5t-99 -99.5q-99 -65 -233 -65q-126 0 -220 75q-176 142 -168 527h599q0 202 -107 272q-55 36 -115.5 36t-100.5 -15
t-64 -34t-44 -44q-27 -35 -37 -60l-136 88q74 129 158 184q93 62 204.5 62t190 -29t128 -77t81 -116.5t44 -141z" />
    <glyph glyph-name="primemod" unicode="&#x2b9;" horiz-adv-x="452" 
d="M70 1100l177 378l111 -52l-203 -364z" />
    <glyph glyph-name="dblprimemod" unicode="&#x2ba;" horiz-adv-x="578" 
d="M334 1045l80 250h-74v243h244v-197l-152 -296h-98zM23 1045l80 250h-74v243h244v-197l-152 -296h-98z" />
    <glyph glyph-name="apostrophemod" unicode="&#x2bc;" horiz-adv-x="334" 
d="M44 1045l80 250h-74v243h244v-197l-152 -296h-98z" />
    <glyph glyph-name="arrowheadupmod" unicode="&#x2c4;" horiz-adv-x="636" 
d="M68 1229l248 248l249 -249l-94 -92l-153 153l-155 -155z" />
    <glyph glyph-name="circumflex" unicode="&#x2c6;" horiz-adv-x="636" 
d="M68 1229l248 248l249 -249l-94 -92l-153 153l-155 -155z" />
    <glyph glyph-name="caron" unicode="&#x2c7;" horiz-adv-x="813" 
d="M566 1380l-248 -248l-249 249l94 92l153 -153l155 155z" />
    <glyph glyph-name="verticallinemod" unicode="&#x2c8;" horiz-adv-x="334" 
d="M44 1045l80 250h-74v243h244v-197l-152 -296h-98z" />
    <glyph glyph-name="breve" unicode="&#x2d8;" horiz-adv-x="536" 
d="M268 1115q-71 0 -139.5 47.5t-94.5 130.5l103 58q19 -44 55.5 -75.5t76 -31.5t75.5 31.5t55 75.5l103 -58q-26 -83 -94.5 -130.5t-139.5 -47.5z" />
    <glyph glyph-name="dotaccent" unicode="&#x2d9;" horiz-adv-x="498" 
d="M-132 122v243h244v-243h-244z" />
    <glyph glyph-name="ring" unicode="&#x2da;" horiz-adv-x="1373" 
d="M-165 383q0 -57 40 -97t97 -40t97 40t40 97t-40 97t-97 40t-97 -40t-40 -97zM-315 383q0 119 84.5 203t203 84t202.5 -84t84 -203t-84 -203t-202.5 -84t-203 84t-84.5 203z" />
    <glyph glyph-name="ogonek" unicode="&#x2db;" horiz-adv-x="419" 
d="M230 -149q0 -46 125 -46v-152q-106 -5 -149 8t-65.5 23t-36.5 24q-54 51 -22 156q23 75 85 136h119q-56 -69 -56 -149z" />
    <glyph glyph-name="tilde" unicode="&#x2dc;" horiz-adv-x="452" 
d="M322 319q-71 -200 -223 -200q-84 0 -149.5 45t-105 45t-59.5 -21t-37 -62l-130 60q23 91 89.5 145t121.5 54t94 -14.5t63 -31.5q64 -46 112 -46q38 0 55 23q22 31 35 65z" />
    <glyph glyph-name="hungarumlaut" unicode="&#x2dd;" horiz-adv-x="466" 
d="M90 122l80 250h-74v243h244v-197l-152 -296h-98zM-221 122l80 250h-74v243h244v-197l-152 -296h-98z" />
    <glyph glyph-name="gravecomb" unicode="&#x300;" horiz-adv-x="707" 
d="M169 1395l116 123l327 -338l-87 -86z" />
    <glyph glyph-name="acutecomb" unicode="&#x301;" horiz-adv-x="665" 
d="M554 1396l-356 -301l-87 86l327 338z" />
    <glyph glyph-name="circumflexcomb" unicode="&#x302;" horiz-adv-x="636" 
d="M69 1198l248 248l249 -249l-94 -92l-153 153l-155 -155z" />
    <glyph glyph-name="tildecomb" unicode="&#x303;" horiz-adv-x="797" 
d="M751 1312q-71 -200 -223 -200q-84 0 -149.5 45t-105 45t-59.5 -21t-37 -62l-130 60q23 91 89.5 145t121.5 54t94 -14.5t63 -31.5q64 -46 112 -46q38 0 55 23q22 31 35 65z" />
    <glyph glyph-name="overlinecomb" unicode="&#x305;" horiz-adv-x="936" 
d="M0 1640v92h936v-92h-936z" />
    <glyph glyph-name="diaeresiscomb" unicode="&#x308;" horiz-adv-x="655" 
d="M396 1203v243h242v-243h-242zM16 1203v243h242v-243h-242z" />
    <glyph glyph-name="ringcomb" unicode="&#x30a;" horiz-adv-x="798" 
d="M262 1241q0 -57 40 -97t97 -40t97 40t40 97t-40 97t-97 40t-97 -40t-40 -97zM112 1241q0 119 84.5 203t203 84t202.5 -84t84 -203t-84 -203t-202.5 -84t-203 84t-84.5 203z" />
    <glyph glyph-name="hungarumlautcomb" unicode="&#x30b;" horiz-adv-x="578" 
d="M334 1000l80 250h-74v243h244v-197l-152 -296h-98zM23 1000l80 250h-74v243h244v-197l-152 -296h-98z" />
    <glyph glyph-name="caroncomb" unicode="&#x30c;" horiz-adv-x="636" 
d="M573 1380l-248 -248l-249 249l94 92l153 -153l155 155z" />
    <glyph glyph-name="dblverticallineabovecomb" unicode="&#x30e;" horiz-adv-x="578" 
d="M334 1045l80 250h-74v243h244v-197l-152 -296h-98zM23 1045l80 250h-74v243h244v-197l-152 -296h-98z" />
    <glyph glyph-name="dblgravecomb" unicode="&#x30f;" horiz-adv-x="1060" 
d="M522 1395l116 123l327 -338l-87 -86zM169 1395l116 123l327 -338l-87 -86z" />
    <glyph glyph-name="candrabinducomb" unicode="&#x310;" horiz-adv-x="536" 
d="M138 1433v243h244v-243h-244zM271 1115q-71 0 -139.5 47.5t-94.5 130.5l103 58q19 -44 55.5 -75.5t76 -31.5t75.5 31.5t55 75.5l103 -58q-26 -83 -94.5 -130.5t-139.5 -47.5z" />
    <glyph glyph-name="breveinvertedcomb" unicode="&#x311;" horiz-adv-x="530" 
d="M265 1351q71 0 139.5 -47.5t94.5 -130.5l-103 -58q-19 44 -55.5 75.5t-75.5 31.5t-75.5 -31.5t-55.5 -75.5l-103 58q26 83 94.5 130.5t139.5 47.5z" />
    <glyph glyph-name="commaturnedabovecomb" unicode="&#x312;" horiz-adv-x="342" 
d="M270 1552l-80 -250h74v-243h-244v197l152 296h98z" />
    <glyph glyph-name="commaabovecomb" unicode="&#x313;" horiz-adv-x="342" 
d="M48 1060l80 250h-74v243h244v-197l-152 -296h-98z" />
    <glyph glyph-name="commaaboverightcomb" unicode="&#x315;" horiz-adv-x="342" 
d="M73 1060l80 250h-74v243h244v-197l-152 -296h-98z" />
    <glyph glyph-name="dotbelowcomb" unicode="&#x323;" horiz-adv-x="334" 
d="M50 -261v243h244v-243h-244z" />
    <glyph glyph-name="dieresisbelowcomb" unicode="&#x324;" horiz-adv-x="655" 
d="M396 -237v243h242v-243h-242zM16 -237v243h242v-243h-242z" />
    <glyph glyph-name="cedillacomb" unicode="&#x327;" horiz-adv-x="340" 
d="M194 0q96 -96 96 -215q0 -83 -112 -117q-66 -20 -172 -15v152q125 0 125 46q0 80 -56 149h119z" />
    <glyph glyph-name="acutetonecomb" unicode="&#x341;" horiz-adv-x="665" 
d="M554 1396l-356 -301l-87 86l327 338z" />
    <glyph glyph-name="dialytikatonoscomb" unicode="&#x344;" horiz-adv-x="655" 
d="M692 1776l-356 -301l-87 86l327 338zM396 1203v243h242v-243h-242zM16 1203v243h242v-243h-242z" />
    <glyph glyph-name="Aringbelow" unicode="&#x1e00;" horiz-adv-x="1130" 
d="M399 -378q0 -57 40 -97t97 -40t97 40t40 97t-40 97t-97 40t-97 -40t-40 -97zM249 -378q0 119 84.5 203t203 84t202.5 -84t84 -203t-84 -203t-202.5 -84t-203 84t-84.5 203zM432 640h283l-141 489zM2 0l432 1515h262l432 -1515h-231l-125 439h-397l-125 -439h-248z" />
    <glyph glyph-name="aringbelow" unicode="&#x1e01;" 
d="M237 -389q0 -57 40 -97t97 -40t97 40t40 97t-40 97t-97 40t-97 -40t-40 -97zM87 -389q0 119 84.5 203t203 84t202.5 -84t84 -203t-84 -203t-202.5 -84t-203 84t-84.5 203zM284 272q0 -59 29 -85.5t72 -26.5t64.5 5t42.5 15l37 19q16 9 36 25l29 23q8 7 26 23l18 17v247
q-224 -52 -293 -112q-61 -54 -61 -150zM668 0q-30 18 -30 93l-19 -22q-86 -92 -246 -92q-194 0 -266 137q-37 68 -37 157t31.5 158.5t102.5 122.5q129 96 434 157q0 71 -4.5 87t-10 30t-13.5 21.5t-20 16.5t-28 13q-39 10 -86.5 10t-89 -14.5t-66 -32.5t-44.5 -42
q-26 -32 -37 -56l-140 86q44 91 76 121.5t63 52.5t66 35q84 31 171 31t138.5 -9.5t98 -34t76.5 -65.5q64 -89 64 -260v-552q0 -28 10.5 -79t19.5 -70h-214z" />
    <glyph glyph-name="Bdotaccent" unicode="&#x1e02;" horiz-adv-x="1148" 
d="M397 1654v243h244v-243h-244zM362 888h246q101 0 175 78q58 60 58 159q0 189 -233 189h-246v-426zM362 201h256q140 0 198 66q49 55 49 163q0 89 -67 168q-71 84 -180 84h-256v-481zM123 0v1515h487q214 0 333 -105q115 -101 115 -257q0 -257 -186 -328q-32 -13 -75 -23
q126 -24 208 -121q87 -103 87 -270q0 -238 -150 -337q-115 -74 -324 -74h-495z" />
    <glyph glyph-name="bdotaccent" unicode="&#x1e03;" horiz-adv-x="1004" 
d="M366 1364v243h244v-243h-244zM521 892q-117 0 -216 -103v-504q1 -1 14 -18.5t28 -32.5t38 -32q50 -39 116.5 -39t108.5 18.5t67 48.5t40 76q26 79 26 189.5t-13 181t-33.5 111t-51.5 64.5q-50 40 -124 40zM305 79q-8 -79 -16 -79h-226q28 64 28 143v1372h214v-530
q18 27 75 57.5t135 30.5t143 -17.5t110.5 -46.5t80 -72.5t54.5 -90.5t33 -107q21 -100 21 -204t-15 -177.5t-48.5 -142t-82.5 -120.5q-108 -113 -284 -113q-146 0 -222 97z" />
    <glyph glyph-name="Bdotbelow" unicode="&#x1e04;" horiz-adv-x="1148" 
d="M373 -272v243h244v-243h-244zM362 888h246q101 0 175 78q58 60 58 159q0 189 -233 189h-246v-426zM362 201h256q140 0 198 66q49 55 49 163q0 89 -67 168q-71 84 -180 84h-256v-481zM123 0v1515h487q214 0 333 -105q115 -101 115 -257q0 -257 -186 -328q-32 -13 -75 -23
q126 -24 208 -121q87 -103 87 -270q0 -238 -150 -337q-115 -74 -324 -74h-495z" />
    <glyph glyph-name="bdotbelow" unicode="&#x1e05;" horiz-adv-x="1004" 
d="M291 -283v243h244v-243h-244zM521 892q-117 0 -216 -103v-504q1 -1 14 -18.5t28 -32.5t38 -32q50 -39 116.5 -39t108.5 18.5t67 48.5t40 76q26 79 26 189.5t-13 181t-33.5 111t-51.5 64.5q-50 40 -124 40zM305 79q-8 -79 -16 -79h-226q28 64 28 143v1372h214v-530
q18 27 75 57.5t135 30.5t143 -17.5t110.5 -46.5t80 -72.5t54.5 -90.5t33 -107q21 -100 21 -204t-15 -177.5t-48.5 -142t-82.5 -120.5q-108 -113 -284 -113q-146 0 -222 97z" />
    <glyph glyph-name="Blinebelow" unicode="&#x1e06;" horiz-adv-x="1148" 
d="M257 -242v149h609v-149h-609zM362 888h246q101 0 175 78q58 60 58 159q0 189 -233 189h-246v-426zM362 201h256q140 0 198 66q49 55 49 163q0 89 -67 168q-71 84 -180 84h-256v-481zM123 0v1515h487q214 0 333 -105q115 -101 115 -257q0 -257 -186 -328q-32 -13 -75 -23
q126 -24 208 -121q87 -103 87 -270q0 -238 -150 -337q-115 -74 -324 -74h-495z" />
    <glyph glyph-name="blinebelow" unicode="&#x1e07;" horiz-adv-x="1004" 
d="M199 -253v149h609v-149h-609zM521 892q-117 0 -216 -103v-504q1 -1 14 -18.5t28 -32.5t38 -32q50 -39 116.5 -39t108.5 18.5t67 48.5t40 76q26 79 26 189.5t-13 181t-33.5 111t-51.5 64.5q-50 40 -124 40zM305 79q-8 -79 -16 -79h-226q28 64 28 143v1372h214v-530
q18 27 75 57.5t135 30.5t143 -17.5t110.5 -46.5t80 -72.5t54.5 -90.5t33 -107q21 -100 21 -204t-15 -177.5t-48.5 -142t-82.5 -120.5q-108 -113 -284 -113q-146 0 -222 97z" />
    <glyph glyph-name="Ccedillaacute" unicode="&#x1e08;" horiz-adv-x="1183" 
d="M991 1955l-356 -301l-87 86l327 338zM79 570q-16 94 -16 190t15 189t44.5 181.5t77 163t108.5 130.5q130 119 323 119q245 0 387 -245q69 -119 93 -245v-1l-208 -56q-16 107 -38 156.5t-44 83t-48 55.5q-62 51 -140.5 51t-134.5 -35.5t-92 -93t-60 -134.5
q-44 -142 -44 -320q0 -472 224 -564q48 -20 102 -20t96.5 14t71.5 36.5t51.5 53.5t36 62.5t21.5 64.5q15 58 15 108l223 -31q-45 -192 -157 -333q-119 -148 -290 -171q89 -94 89 -208q0 -84 -112 -118q-65 -20 -172 -14v152q125 0 125 46q0 74 -49 140q-228 22 -373 248
q-91 141 -125 345z" />
    <glyph glyph-name="ccedillaacute" unicode="&#x1e09;" horiz-adv-x="937" 
d="M871 1489l-356 -301l-87 86l327 338zM59 520q0 314 137 447q108 106 302.5 106t304.5 -164q36 -53 50 -99l-181 -80q-8 82 -67 130q-40 32 -99 32q-233 0 -233 -363q0 -179 61 -272.5t178 -93.5q82 0 133 60q44 52 64 111l164 -72q-23 -89 -98 -169q-83 -88 -202 -106
q90 -94 89 -208q0 -84 -111 -118q-66 -20 -173 -14v152q126 0 126 46q0 74 -49 139q-396 30 -396 536z" />
    <glyph glyph-name="Ddotaccent" unicode="&#x1e0a;" horiz-adv-x="1229" 
d="M417 1654v243h244v-243h-244zM362 201h144q209 0 322 151q111 150 111 395q0 467 -299 550q-61 17 -134 17h-144v-1113zM123 0v1515h357q548 0 662 -441q36 -141 36 -297t-21.5 -263t-73.5 -203t-130 -164q-171 -147 -473 -147h-357z" />
    <glyph glyph-name="ddotaccent" unicode="&#x1e0b;" horiz-adv-x="993" 
d="M323 1361v243h244v-243h-244zM711 789q-99 103 -216 103q-122 0 -175 -105q-47 -92 -47 -276q0 -203 66 -281q56 -67 166 -67q116 0 192 103q13 18 14 19v504zM925 143q0 -70 28 -143h-226q-3 5 -6 14l-10 65q-76 -97 -222 -97q-252 0 -366 233q-64 130 -64 293
q0 381 188 501q100 64 256 64q77 0 133.5 -30.5t74.5 -57.5v530h214v-1372z" />
    <glyph glyph-name="Ddotbelow" unicode="&#x1e0c;" horiz-adv-x="1229" 
d="M405 -272v243h244v-243h-244zM362 201h144q209 0 322 151q111 150 111 395q0 467 -299 550q-61 17 -134 17h-144v-1113zM123 0v1515h357q548 0 662 -441q36 -141 36 -297t-21.5 -263t-73.5 -203t-130 -164q-171 -147 -473 -147h-357z" />
    <glyph glyph-name="ddotbelow" unicode="&#x1e0d;" horiz-adv-x="993" 
d="M365 -283v243h244v-243h-244zM711 789q-99 103 -216 103q-122 0 -175 -105q-47 -92 -47 -276q0 -203 66 -281q56 -67 166 -67q116 0 192 103q13 18 14 19v504zM925 143q0 -70 28 -143h-226q-3 5 -6 14l-10 65q-76 -97 -222 -97q-252 0 -366 233q-64 130 -64 293
q0 381 188 501q100 64 256 64q77 0 133.5 -30.5t74.5 -57.5v530h214v-1372z" />
    <glyph glyph-name="Dlinebelow" unicode="&#x1e0e;" horiz-adv-x="1229" 
d="M324 -242v149h609v-149h-609zM362 201h144q209 0 322 151q111 150 111 395q0 467 -299 550q-61 17 -134 17h-144v-1113zM123 0v1515h357q548 0 662 -441q36 -141 36 -297t-21.5 -263t-73.5 -203t-130 -164q-171 -147 -473 -147h-357z" />
    <glyph glyph-name="dlinebelow" unicode="&#x1e0f;" horiz-adv-x="993" 
d="M234 -253v149h609v-149h-609zM711 789q-99 103 -216 103q-122 0 -175 -105q-47 -92 -47 -276q0 -203 66 -281q56 -67 166 -67q116 0 192 103q13 18 14 19v504zM925 143q0 -70 28 -143h-226q-3 5 -6 14l-10 65q-76 -97 -222 -97q-252 0 -366 233q-64 130 -64 293
q0 381 188 501q100 64 256 64q77 0 133.5 -30.5t74.5 -57.5v530h214v-1372z" />
    <glyph glyph-name="Dcedilla" unicode="&#x1e10;" horiz-adv-x="1229" 
d="M361 12q96 -96 96 -215q0 -83 -112 -117q-66 -20 -172 -15v152q125 0 125 46q0 80 -56 149h119zM362 201h144q209 0 322 151q111 150 111 395q0 467 -299 550q-61 17 -134 17h-144v-1113zM123 0v1515h357q548 0 662 -441q36 -141 36 -297t-21.5 -263t-73.5 -203
t-130 -164q-171 -147 -473 -147h-357z" />
    <glyph glyph-name="dcedilla" unicode="&#x1e11;" horiz-adv-x="993" 
d="M548 -6q96 -96 96 -215q0 -83 -112 -117q-66 -20 -172 -15v152q125 0 125 46q0 80 -56 149h119zM711 789q-99 103 -216 103q-122 0 -175 -105q-47 -92 -47 -276q0 -203 66 -281q56 -67 166 -67q116 0 192 103q13 18 14 19v504zM925 143q0 -70 28 -143h-226q-3 5 -6 14
l-10 65q-76 -97 -222 -97q-252 0 -366 233q-64 130 -64 293q0 381 188 501q100 64 256 64q77 0 133.5 -30.5t74.5 -57.5v530h214v-1372z" />
    <glyph glyph-name="Dcircumflexbelow" unicode="&#x1e12;" horiz-adv-x="1229" 
d="M300 -343l248 248l249 -249l-94 -92l-153 153l-155 -155zM362 201h144q209 0 322 151q111 150 111 395q0 467 -299 550q-61 17 -134 17h-144v-1113zM123 0v1515h357q548 0 662 -441q36 -141 36 -297t-21.5 -263t-73.5 -203t-130 -164q-171 -147 -473 -147h-357z" />
    <glyph glyph-name="dcircumflexbelow" unicode="&#x1e13;" horiz-adv-x="993" 
d="M182 -354l248 248l249 -249l-94 -92l-153 153l-155 -155zM711 789q-99 103 -216 103q-122 0 -175 -105q-47 -92 -47 -276q0 -203 66 -281q56 -67 166 -67q116 0 192 103q13 18 14 19v504zM925 143q0 -70 28 -143h-226q-3 5 -6 14l-10 65q-76 -97 -222 -97
q-252 0 -366 233q-64 130 -64 293q0 381 188 501q100 64 256 64q77 0 133.5 -30.5t74.5 -57.5v530h214v-1372z" />
    <glyph glyph-name="Emacrongrave" unicode="&#x1e14;" horiz-adv-x="1079" 
d="M215 2168l116 123l327 -338l-87 -86zM302 1626v149h609v-149h-609zM123 0v1515h867v-201h-628v-419h437v-202h-437v-478h666v-215h-905z" />
    <glyph glyph-name="emacrongrave" unicode="&#x1e15;" horiz-adv-x="936" 
d="M139 1702l116 123l327 -338l-87 -86zM226 1160v149h609v-149h-609zM283 652h370q0 78 -27 135q-52 105 -144 105q-55 0 -96.5 -24.5t-62.5 -63.5q-40 -73 -40 -152zM71.5 345.5q-12.5 72.5 -12.5 183t26 214.5t67 165.5t99 99.5q99 65 233 65q126 0 220 -75
q176 -142 168 -527h-599q0 -202 107 -272q55 -36 115.5 -36t100.5 15t64 34t44 44q27 35 37 60l136 -88q-74 -129 -158 -184q-93 -62 -204.5 -62t-190 29t-128 77t-81 116.5t-44 141z" />
    <glyph glyph-name="Emacronacute" unicode="&#x1e16;" horiz-adv-x="1079" 
d="M923 2169l-356 -301l-87 86l327 338zM302 1626v149h609v-149h-609zM123 0v1515h867v-201h-628v-419h437v-202h-437v-478h666v-215h-905z" />
    <glyph glyph-name="emacronacute" unicode="&#x1e17;" horiz-adv-x="936" 
d="M846 1703l-356 -301l-87 86l327 338zM226 1160v149h609v-149h-609zM283 652h370q0 78 -27 135q-52 105 -144 105q-55 0 -96.5 -24.5t-62.5 -63.5q-40 -73 -40 -152zM71.5 345.5q-12.5 72.5 -12.5 183t26 214.5t67 165.5t99 99.5q99 65 233 65q126 0 220 -75
q176 -142 168 -527h-599q0 -202 107 -272q55 -36 115.5 -36t100.5 15t64 34t44 44q27 35 37 60l136 -88q-74 -129 -158 -184q-93 -62 -204.5 -62t-190 29t-128 77t-81 116.5t-44 141z" />
    <glyph glyph-name="Ecircumflexbelow" unicode="&#x1e18;" horiz-adv-x="1079" 
d="M332 -343l248 248l249 -249l-94 -92l-153 153l-155 -155zM123 0v1515h867v-201h-628v-419h437v-202h-437v-478h666v-215h-905z" />
    <glyph glyph-name="ecircumflexbelow" unicode="&#x1e19;" horiz-adv-x="936" 
d="M253 -354l248 248l249 -249l-94 -92l-153 153l-155 -155zM283 652h370q0 78 -27 135q-52 105 -144 105q-55 0 -96.5 -24.5t-62.5 -63.5q-40 -73 -40 -152zM71.5 345.5q-12.5 72.5 -12.5 183t26 214.5t67 165.5t99 99.5q99 65 233 65q126 0 220 -75q176 -142 168 -527
h-599q0 -202 107 -272q55 -36 115.5 -36t100.5 15t64 34t44 44q27 35 37 60l136 -88q-74 -129 -158 -184q-93 -62 -204.5 -62t-190 29t-128 77t-81 116.5t-44 141z" />
    <glyph glyph-name="Etildebelow" unicode="&#x1e1a;" horiz-adv-x="1079" 
d="M897 -122q-71 -200 -223 -200q-84 0 -149.5 45t-105 45t-59.5 -21t-37 -62l-130 60q23 91 89.5 145t121.5 54t94 -14.5t63 -31.5q64 -46 112 -46q38 0 55 23q22 31 35 65zM123 0v1515h867v-201h-628v-419h437v-202h-437v-478h666v-215h-905z" />
    <glyph glyph-name="etildebelow" unicode="&#x1e1b;" horiz-adv-x="936" 
d="M818 -133q-71 -200 -223 -200q-84 0 -149.5 45t-105 45t-59.5 -21t-37 -62l-130 60q23 91 89.5 145t121.5 54t94 -14.5t63 -31.5q64 -46 112 -46q38 0 55 23q22 31 35 65zM283 652h370q0 78 -27 135q-52 105 -144 105q-55 0 -96.5 -24.5t-62.5 -63.5q-40 -73 -40 -152z
M71.5 345.5q-12.5 72.5 -12.5 183t26 214.5t67 165.5t99 99.5q99 65 233 65q126 0 220 -75q176 -142 168 -527h-599q0 -202 107 -272q55 -36 115.5 -36t100.5 15t64 34t44 44q27 35 37 60l136 -88q-74 -129 -158 -184q-93 -62 -204.5 -62t-190 29t-128 77t-81 116.5t-44 141
z" />
    <glyph glyph-name="Ecedillabreve" unicode="&#x1e1c;" horiz-adv-x="1062" 
d="M446 -218q89 0 118.5 16t29.5 31q0 75 -78 171h-381v1515h821v-124h-673v-533h483v-124h-483v-601h711v-133h-380q72 -101 72 -198q0 -43 -20 -60.5t-35 -26.5t-35.5 -14t-37 -8t-37.5 -4t-32.5 -1.5t-26.5 0t-16 0.5v94zM545.5 1665q-71.5 0 -139.5 47.5t-94 130.5
l102 58q20 -44 56 -75.5t75.5 -31.5t75.5 31.5t55 75.5l104 -58q-27 -83 -95 -130.5t-139.5 -47.5z" />
    <glyph glyph-name="ecedillabreve" unicode="&#x1e1d;" horiz-adv-x="925" 
d="M213 625h496q0 149 -69 247q-58 82 -165 82q-175 0 -234 -162q-28 -76 -28 -167zM372 -219q89 0 118.5 16t29.5 31q0 75 -71 163q-93 8 -166 54t-117 117q-91 146 -91 340q0 429 251 534q71 30 135 30t109 -11.5t96.5 -47t88.5 -93.5q86 -136 86 -401h-634
q0 -267 135 -364q67 -48 149 -48q154 0 262 191l91 -63q-54 -101 -161 -176q-67 -47 -139 -59q69 -97 69 -193q0 -43 -20.5 -60.5t-35.5 -26.5t-35 -14t-36.5 -8t-37.5 -4l-34 -2q-11 0 -26 0.5t-16 0.5v94zM461 1195q-71 0 -139.5 47.5t-94.5 130.5l103 58
q19 -44 55.5 -75.5t75.5 -31.5t75.5 31.5t55.5 75.5l103 -58q-26 -83 -94.5 -130.5t-139.5 -47.5z" />
    <glyph glyph-name="Fdotaccent" unicode="&#x1e1e;" horiz-adv-x="1041" 
d="M425 1654v243h244v-243h-244zM123 0v1515h867v-201h-628v-419h437v-202h-437v-693h-239z" />
    <glyph glyph-name="fdotaccent" unicode="&#x1e1f;" horiz-adv-x="591" 
d="M197 1646v243h244v-243h-244zM507 1530q74 0 79 -15v-179h-68q-81 -1 -106 -19q-44 -33 -44 -82v-180h218v-181h-218v-874h-214v874h-152v181h152v226q0 249 353 249z" />
    <glyph glyph-name="Gmacron" unicode="&#x1e20;" horiz-adv-x="1262" 
d="M387 1626v149h609v-149h-609zM929 1035q-65 307 -272 307q-219 0 -307 -249q-49 -139 -49 -326q0 -450 191 -560q56 -32 119 -32t106.5 12.5t73 32t51.5 50.5t34 62t19 74q11 65 13 157h-291v202h526v-765h-194v120q-64 -78 -140 -111q-82 -35 -189 -35t-196 43.5
t-154 119.5t-113 177q-95 201 -95 455q0 243 91 436q101 213 279 294q97 44 186.5 44t143 -12.5t109 -45t100.5 -84.5q99 -113 162 -329z" />
    <glyph glyph-name="gmacron" unicode="&#x1e21;" horiz-adv-x="1008" 
d="M218 1162v149h609v-149h-609zM653.5 326q-78.5 -30 -158.5 -30t-131 20q-9 -9 -33 -25q-47 -32 -47 -67q0 -47 151 -65q28 -4 35 -4.5t36 -1t45 -1t51.5 -4.5t67.5 -11q172 -39 220 -82q100 -91 100 -217q0 -290 -492 -290q-205 0 -337 68q-141 72 -141 221
q0 132 192 205q-60 8 -101 52.5t-41 105.5q0 128 154 195q-52 27 -96 118.5t-44 193.5t57.5 188t155.5 132t219 46q56 0 115.5 -21.5t84.5 -43.5q86 62 184 66q14 1 46 1.5t46 0.5v-180h-4q-97 10 -130 -7q-10 -5 -9.5 -10t11.5 -36t17 -48q17 -56 17 -122.5t-28.5 -138.5
t-81 -125t-131 -83zM354.5 840q-56.5 -52 -56.5 -150.5t51.5 -155t152.5 -56.5q129 0 168 140q10 35 10 70.5t-10 69.5t-30 65q-45 69 -137 69t-148.5 -52zM242 -122q-9 -21 -9 -44.5t9 -40t22 -27t35.5 -18.5t41.5 -11.5t48 -5.5q40 -3 85.5 -3t66 0.5t54.5 2.5t56 6.5
t48 12.5t40 20q36 28 36 69t-34 68t-86 39.5t-104 19.5t-98.5 11t-58.5 9q-105 -42 -124 -64.5t-28 -43.5z" />
    <glyph glyph-name="Hdotaccent" unicode="&#x1e22;" horiz-adv-x="1276" 
d="M506 1654v243h244v-243h-244zM123 0v1515h239v-619h552v619h239v-1515h-239v695h-552v-695h-239z" />
    <glyph glyph-name="hdotaccent" unicode="&#x1e23;" horiz-adv-x="997" 
d="M74 1637v243h244v-243h-244zM901 791v-791h-214v735q0 72 -43.5 114.5t-103.5 42.5t-119 -35.5t-88 -70.5v-786h-214v1515h214v-572q130 130 270 130q126 0 209 -66q89 -71 89 -216z" />
    <glyph glyph-name="Hdotbelow" unicode="&#x1e24;" horiz-adv-x="1276" 
d="M506 -272v243h244v-243h-244zM123 0v1515h239v-619h552v619h239v-1515h-239v695h-552v-695h-239z" />
    <glyph glyph-name="hdotbelow" unicode="&#x1e25;" horiz-adv-x="997" 
d="M378 -272v243h244v-243h-244zM901 791v-791h-214v735q0 72 -43.5 114.5t-103.5 42.5t-119 -35.5t-88 -70.5v-786h-214v1515h214v-572q130 130 270 130q126 0 209 -66q89 -71 89 -216z" />
    <glyph glyph-name="Hdieresis" unicode="&#x1e26;" horiz-adv-x="1276" 
d="M707 1654v243h242v-243h-242zM327 1654v243h242v-243h-242zM123 0v1515h239v-619h552v619h239v-1515h-239v695h-552v-695h-239z" />
    <glyph glyph-name="hdieresis" unicode="&#x1e27;" horiz-adv-x="997" 
d="M579 1637v243h242v-243h-242zM199 1637v243h242v-243h-242zM901 791v-791h-214v735q0 72 -43.5 114.5t-103.5 42.5t-119 -35.5t-88 -70.5v-786h-214v1515h214v-572q130 130 270 130q126 0 209 -66q89 -71 89 -216z" />
    <glyph glyph-name="Hcedilla" unicode="&#x1e28;" horiz-adv-x="1276" 
d="M301 12q96 -96 96 -215q0 -83 -112 -117q-66 -20 -172 -15v152q125 0 125 46q0 80 -56 149h119zM123 0v1515h239v-619h552v619h239v-1515h-239v695h-552v-695h-239z" />
    <glyph glyph-name="hcedilla" unicode="&#x1e29;" horiz-adv-x="997" 
d="M285 12q96 -96 96 -215q0 -83 -112 -117q-66 -20 -172 -15v152q125 0 125 46q0 80 -56 149h119zM901 791v-791h-214v735q0 72 -43.5 114.5t-103.5 42.5t-119 -35.5t-88 -70.5v-786h-214v1515h214v-572q130 130 270 130q126 0 209 -66q89 -71 89 -216z" />
    <glyph glyph-name="Hbrevebelow" unicode="&#x1e2a;" horiz-adv-x="1276" 
d="M641 -297q-71 0 -139.5 47.5t-94.5 130.5l103 58q19 -44 55.5 -75.5t76 -31.5t75.5 31.5t55 75.5l103 -58q-26 -83 -94.5 -130.5t-139.5 -47.5zM123 0v1515h239v-619h552v619h239v-1515h-239v695h-552v-695h-239z" />
    <glyph glyph-name="hbrevebelow" unicode="&#x1e2b;" horiz-adv-x="997" 
d="M513 -297q-71 0 -139.5 47.5t-94.5 130.5l103 58q19 -44 55.5 -75.5t76 -31.5t75.5 31.5t55 75.5l103 -58q-26 -83 -94.5 -130.5t-139.5 -47.5zM901 791v-791h-214v735q0 72 -43.5 114.5t-103.5 42.5t-119 -35.5t-88 -70.5v-786h-214v1515h214v-572q130 130 270 130
q126 0 209 -66q89 -71 89 -216z" />
    <glyph glyph-name="Itildebelow" unicode="&#x1e2c;" horiz-adv-x="437" 
d="M541 -122q-71 -200 -223 -200q-84 0 -149.5 45t-105 45t-59.5 -21t-37 -62l-130 60q23 91 89.5 145t121.5 54t94 -14.5t63 -31.5q64 -46 112 -46q38 0 55 23q22 31 35 65zM99 0v1515h239v-1515h-239z" />
    <glyph glyph-name="itildebelow" unicode="&#x1e2d;" horiz-adv-x="434" 
d="M535 -124q-71 -200 -223 -200q-84 0 -149.5 45t-105 45t-59.5 -21t-37 -62l-130 60q23 91 89.5 145t121.5 54t94 -14.5t63 -31.5q64 -46 112 -46q38 0 55 23q22 31 35 65zM106 0v1055h214v-1055h-214zM91 1147v243h243v-243h-243z" />
    <glyph glyph-name="Idieresisacute" unicode="&#x1e2e;" horiz-adv-x="437" 
d="M585 2227l-356 -301l-87 86l327 338zM288 1665v243h242v-243h-242zM-92 1665v243h242v-243h-242zM99 0v1515h239v-1515h-239z" />
    <glyph glyph-name="idieresisacute" unicode="&#x1e2f;" horiz-adv-x="527" 
d="M570 1761l-356 -301l-87 86l327 338zM274 1195v243h242v-243h-242zM-106 1195v243h242v-243h-242zM96 0v1055h214v-1055h-214z" />
    <glyph glyph-name="Kacute" unicode="&#x1e30;" horiz-adv-x="1151" 
d="M975 1955l-356 -301l-87 86l327 338zM123 0v1515h241v-674l505 674h252l-449 -591l477 -924h-263l-367 723l-155 -204v-519h-241z" />
    <glyph glyph-name="kacute" unicode="&#x1e31;" horiz-adv-x="925" 
d="M580 1938l-356 -301l-87 86l327 338zM124 0v1515h214v-853l304 393h260l-306 -390l324 -665h-242l-230 476l-110 -139v-337h-214z" />
    <glyph glyph-name="Kdotbelow" unicode="&#x1e32;" horiz-adv-x="1151" 
d="M504 -272v243h244v-243h-244zM123 0v1515h241v-674l505 674h252l-449 -591l477 -924h-263l-367 723l-155 -204v-519h-241z" />
    <glyph glyph-name="kdotbelow" unicode="&#x1e33;" horiz-adv-x="925" 
d="M390 -272v243h244v-243h-244zM124 0v1515h214v-853l304 393h260l-306 -390l324 -665h-242l-230 476l-110 -139v-337h-214z" />
    <glyph glyph-name="Klinebelow" unicode="&#x1e34;" horiz-adv-x="1151" 
d="M382 -242v149h609v-149h-609zM123 0v1515h241v-674l505 674h252l-449 -591l477 -924h-263l-367 723l-155 -204v-519h-241z" />
    <glyph glyph-name="klinebelow" unicode="&#x1e35;" horiz-adv-x="925" 
d="M267 -242v149h609v-149h-609zM124 0v1515h214v-853l304 393h260l-306 -390l324 -665h-242l-230 476l-110 -139v-337h-214z" />
    <glyph glyph-name="Ldotbelow" unicode="&#x1e36;" horiz-adv-x="1017" 
d="M401 -272v243h244v-243h-244zM123 0v1515h239v-1285h626v-230h-865z" />
    <glyph glyph-name="ldotbelow" unicode="&#x1e37;" horiz-adv-x="451" 
d="M58 -274v243h244v-243h-244zM124 -3v1518h214v-1518h-214z" />
    <glyph glyph-name="Ldotbelowmacron" unicode="&#x1e38;" horiz-adv-x="1017" 
d="M-57 1626v149h609v-149h-609zM401 -272v243h244v-243h-244zM123 0v1515h239v-1285h626v-230h-865z" />
    <glyph glyph-name="ldotbelowmacron" unicode="&#x1e39;" horiz-adv-x="451" 
d="M-64 1609v149h609v-149h-609zM58 -274v243h244v-243h-244zM124 -3v1518h214v-1518h-214z" />
    <glyph glyph-name="Llinebelow" unicode="&#x1e3a;" horiz-adv-x="1017" 
d="M279 -242v149h609v-149h-609zM123 0v1515h239v-1285h626v-230h-865z" />
    <glyph glyph-name="llinebelow" unicode="&#x1e3b;" horiz-adv-x="451" 
d="M-64 -244v149h609v-149h-609zM124 -3v1518h214v-1518h-214z" />
    <glyph glyph-name="Lcircumflexbelow" unicode="&#x1e3c;" horiz-adv-x="1017" 
d="M290 -343l248 248l249 -249l-94 -92l-153 153l-155 -155zM123 0v1515h239v-1285h626v-230h-865z" />
    <glyph glyph-name="lcircumflexbelow" unicode="&#x1e3d;" horiz-adv-x="451" 
d="M-53 -345l248 248l249 -249l-94 -92l-153 153l-155 -155zM124 -3v1518h214v-1518h-214z" />
    <glyph glyph-name="Macute" unicode="&#x1e3e;" horiz-adv-x="1478" 
d="M1102 1955l-356 -301l-87 86l327 338zM350 1026v-1026h-234v1515h324l291 -1047h10l291 1047h324v-1515h-235v1026h-9l-284 -1026h-184l-284 1026h-10z" />
    <glyph glyph-name="macute" unicode="&#x1e3f;" horiz-adv-x="1595" 
d="M1276 1489l-356 -301l-87 86l327 338zM324 943q130 130 289 130q94 0 166 -37t106 -112q149 149 296 149q127 0 219 -66q99 -71 99 -216v-791h-214v735q0 71 -52 114t-113.5 43t-120.5 -35.5t-88 -70.5v-786h-214v735q0 72 -43.5 114.5t-104 42.5t-129.5 -36.5t-96 -69.5
v-786h-214v1055h214v-112z" />
    <glyph glyph-name="Mdotaccent" unicode="&#x1e40;" horiz-adv-x="1478" 
d="M604 1654v243h244v-243h-244zM350 1026v-1026h-234v1515h324l291 -1047h10l291 1047h324v-1515h-235v1026h-9l-284 -1026h-184l-284 1026h-10z" />
    <glyph glyph-name="mdotaccent" unicode="&#x1e41;" horiz-adv-x="1595" 
d="M676 1188v243h244v-243h-244zM324 943q130 130 289 130q94 0 166 -37t106 -112q149 149 296 149q127 0 219 -66q99 -71 99 -216v-791h-214v735q0 71 -52 114t-113.5 43t-120.5 -35.5t-88 -70.5v-786h-214v735q0 72 -43.5 114.5t-104 42.5t-129.5 -36.5t-96 -69.5v-786
h-214v1055h214v-112z" />
    <glyph glyph-name="Mdotbelow" unicode="&#x1e42;" horiz-adv-x="1478" 
d="M604 -272v243h244v-243h-244zM350 1026v-1026h-234v1515h324l291 -1047h10l291 1047h324v-1515h-235v1026h-9l-284 -1026h-184l-284 1026h-10z" />
    <glyph glyph-name="mdotbelow" unicode="&#x1e43;" horiz-adv-x="1595" 
d="M672 -272v243h244v-243h-244zM324 943q130 130 289 130q94 0 166 -37t106 -112q149 149 296 149q127 0 219 -66q99 -71 99 -216v-791h-214v735q0 71 -52 114t-113.5 43t-120.5 -35.5t-88 -70.5v-786h-214v735q0 72 -43.5 114.5t-104 42.5t-129.5 -36.5t-96 -69.5v-786
h-214v1055h214v-112z" />
    <glyph glyph-name="Ndotaccent" unicode="&#x1e44;" horiz-adv-x="1272" 
d="M504 1654v243h244v-243h-244zM917 585v930h238v-1515h-190l-612 1162v-1162h-238v1515h308z" />
    <glyph glyph-name="ndotaccent" unicode="&#x1e45;" horiz-adv-x="988" 
d="M368 1188v243h244v-243h-244zM892 791v-791h-214v735q0 72 -43.5 114.5t-103.5 42.5t-119 -35.5t-88 -70.5v-786h-214v1055h214v-112q58 58 121.5 94t148.5 36q130 0 214 -70.5t84 -211.5z" />
    <glyph glyph-name="Ndotbelow" unicode="&#x1e46;" horiz-adv-x="1272" 
d="M504 -272v243h244v-243h-244zM917 585v930h238v-1515h-190l-612 1162v-1162h-238v1515h308z" />
    <glyph glyph-name="ndotbelow" unicode="&#x1e47;" horiz-adv-x="988" 
d="M368 -272v243h244v-243h-244zM892 791v-791h-214v735q0 72 -43.5 114.5t-103.5 42.5t-119 -35.5t-88 -70.5v-786h-214v1055h214v-112q58 58 121.5 94t148.5 36q130 0 214 -70.5t84 -211.5z" />
    <glyph glyph-name="Nlinebelow" unicode="&#x1e48;" horiz-adv-x="1272" 
d="M381 -242v149h609v-149h-609zM917 585v930h238v-1515h-190l-612 1162v-1162h-238v1515h308z" />
    <glyph glyph-name="nlinebelow" unicode="&#x1e49;" horiz-adv-x="988" 
d="M245 -242v149h609v-149h-609zM892 791v-791h-214v735q0 72 -43.5 114.5t-103.5 42.5t-119 -35.5t-88 -70.5v-786h-214v1055h214v-112q58 58 121.5 94t148.5 36q130 0 214 -70.5t84 -211.5z" />
    <glyph glyph-name="Ncircumflexbelow" unicode="&#x1e4a;" horiz-adv-x="1272" 
d="M393 -343l248 248l249 -249l-94 -92l-153 153l-155 -155zM917 585v930h238v-1515h-190l-612 1162v-1162h-238v1515h308z" />
    <glyph glyph-name="ncircumflexbelow" unicode="&#x1e4b;" horiz-adv-x="988" 
d="M257 -343l248 248l249 -249l-94 -92l-153 153l-155 -155zM892 791v-791h-214v735q0 72 -43.5 114.5t-103.5 42.5t-119 -35.5t-88 -70.5v-786h-214v1055h214v-112q58 58 121.5 94t148.5 36q130 0 214 -70.5t84 -211.5z" />
    <glyph glyph-name="Otildeacute" unicode="&#x1e4c;" horiz-adv-x="1274" 
d="M1042 2274l-356 -301l-87 86l327 338zM970 1865q-71 -200 -223 -200q-84 0 -149.5 45t-105 45t-59.5 -21t-37 -62l-130 60q23 91 89.5 145t121.5 54t94 -14.5t63 -31.5q64 -46 112 -46q38 0 55 23q22 31 35 65zM306 858q-4 -52 -4 -106.5t4 -107.5t14.5 -112t26.5 -109
t43.5 -96.5t61.5 -79.5q77 -72 194 -72q325 0 325 578q0 471 -220 568q-48 21 -106.5 21t-108 -21t-84 -55.5t-62 -83.5t-43.5 -101t-26.5 -111.5t-14.5 -111.5zM73 601q-10 76 -10 151t9 151t30 154.5t52 148.5t78.5 132.5t106.5 107.5q127 97 309 97q250 0 400 -206
q162 -224 162 -585q0 -368 -156 -580q-146 -198 -406 -198q-247 0 -405 199q-134 168 -170 428z" />
    <glyph glyph-name="otildeacute" unicode="&#x1e4d;" horiz-adv-x="982" 
d="M731 1808l-356 -301l-87 86l327 338zM813 1395q-71 -200 -223 -200q-84 0 -149.5 45t-105 45t-59.5 -21t-37 -62l-130 60q23 91 89.5 145t121.5 54t94 -14.5t63 -31.5q64 -46 112 -46q38 0 55 23q22 31 35 65zM279 649q-6 -53 -6 -114t6 -110t21.5 -98t39.5 -85
q54 -80 152 -80q217 0 217 365q0 214 -64 297q-52 68 -153 68q-185 0 -213 -243zM59 528q0 250 115.5 397.5t317.5 147.5q134 0 232 -68q199 -139 199 -478q0 -423 -264 -519q-73 -27 -166.5 -27t-167.5 27t-123 75t-82 118q-61 130 -61 327z" />
    <glyph glyph-name="Otildedieresis" unicode="&#x1e4e;" horiz-adv-x="1274" 
d="M721 1973v243h242v-243h-242zM341 1973v243h242v-243h-242zM970 1865q-71 -200 -223 -200q-84 0 -149.5 45t-105 45t-59.5 -21t-37 -62l-130 60q23 91 89.5 145t121.5 54t94 -14.5t63 -31.5q64 -46 112 -46q38 0 55 23q22 31 35 65zM306 858q-4 -52 -4 -106.5t4 -107.5
t14.5 -112t26.5 -109t43.5 -96.5t61.5 -79.5q77 -72 194 -72q325 0 325 578q0 471 -220 568q-48 21 -106.5 21t-108 -21t-84 -55.5t-62 -83.5t-43.5 -101t-26.5 -111.5t-14.5 -111.5zM73 601q-10 76 -10 151t9 151t30 154.5t52 148.5t78.5 132.5t106.5 107.5q127 97 309 97
q250 0 400 -206q162 -224 162 -585q0 -368 -156 -580q-146 -198 -406 -198q-247 0 -405 199q-134 168 -170 428z" />
    <glyph glyph-name="otildedieresis" unicode="&#x1e4f;" horiz-adv-x="982" 
d="M587 1507v243h242v-243h-242zM207 1507v243h242v-243h-242zM813 1395q-71 -200 -223 -200q-84 0 -149.5 45t-105 45t-59.5 -21t-37 -62l-130 60q23 91 89.5 145t121.5 54t94 -14.5t63 -31.5q64 -46 112 -46q38 0 55 23q22 31 35 65zM279 649q-6 -53 -6 -114t6 -110
t21.5 -98t39.5 -85q54 -80 152 -80q217 0 217 365q0 214 -64 297q-52 68 -153 68q-185 0 -213 -243zM59 528q0 250 115.5 397.5t317.5 147.5q134 0 232 -68q199 -139 199 -478q0 -423 -264 -519q-73 -27 -166.5 -27t-167.5 27t-123 75t-82 118q-61 130 -61 327z" />
    <glyph glyph-name="Omacrongrave" unicode="&#x1e50;" horiz-adv-x="1274" 
d="M306 2168l116 123l327 -338l-87 -86zM393 1626v149h609v-149h-609zM306 858q-4 -52 -4 -106.5t4 -107.5t14.5 -112t26.5 -109t43.5 -96.5t61.5 -79.5q77 -72 194 -72q325 0 325 578q0 471 -220 568q-48 21 -106.5 21t-108 -21t-84 -55.5t-62 -83.5t-43.5 -101
t-26.5 -111.5t-14.5 -111.5zM73 601q-10 76 -10 151t9 151t30 154.5t52 148.5t78.5 132.5t106.5 107.5q127 97 309 97q250 0 400 -206q162 -224 162 -585q0 -368 -156 -580q-146 -198 -406 -198q-247 0 -405 199q-134 168 -170 428z" />
    <glyph glyph-name="omacrongrave" unicode="&#x1e51;" horiz-adv-x="982" 
d="M151 1702l116 123l327 -338l-87 -86zM238 1160v149h609v-149h-609zM279 649q-6 -53 -6 -114t6 -110t21.5 -98t39.5 -85q54 -80 152 -80q217 0 217 365q0 214 -64 297q-52 68 -153 68q-185 0 -213 -243zM59 528q0 250 115.5 397.5t317.5 147.5q134 0 232 -68
q199 -139 199 -478q0 -423 -264 -519q-73 -27 -166.5 -27t-167.5 27t-123 75t-82 118q-61 130 -61 327z" />
    <glyph glyph-name="Omacronacute" unicode="&#x1e52;" horiz-adv-x="1274" 
d="M1013 2169l-356 -301l-87 86l327 338zM393 1626v149h609v-149h-609zM306 858q-4 -52 -4 -106.5t4 -107.5t14.5 -112t26.5 -109t43.5 -96.5t61.5 -79.5q77 -72 194 -72q325 0 325 578q0 471 -220 568q-48 21 -106.5 21t-108 -21t-84 -55.5t-62 -83.5t-43.5 -101
t-26.5 -111.5t-14.5 -111.5zM73 601q-10 76 -10 151t9 151t30 154.5t52 148.5t78.5 132.5t106.5 107.5q127 97 309 97q250 0 400 -206q162 -224 162 -585q0 -368 -156 -580q-146 -198 -406 -198q-247 0 -405 199q-134 168 -170 428z" />
    <glyph glyph-name="omacronacute" unicode="&#x1e53;" horiz-adv-x="982" 
d="M858 1703l-356 -301l-87 86l327 338zM238 1160v149h609v-149h-609zM279 649q-6 -53 -6 -114t6 -110t21.5 -98t39.5 -85q54 -80 152 -80q217 0 217 365q0 214 -64 297q-52 68 -153 68q-185 0 -213 -243zM59 528q0 250 115.5 397.5t317.5 147.5q134 0 232 -68
q199 -139 199 -478q0 -423 -264 -519q-73 -27 -166.5 -27t-167.5 27t-123 75t-82 118q-61 130 -61 327z" />
    <glyph glyph-name="Pacute" unicode="&#x1e54;" horiz-adv-x="1151" 
d="M897 1955l-356 -301l-87 86l327 338zM861 1115q0 199 -334 199h-165v-455h165q154 0 244 66.5t90 189.5zM123 0v1515h517q282 0 395 -162q65 -94 65 -229q0 -240 -146 -372q-107 -95 -282 -95h-310v-657h-239z" />
    <glyph glyph-name="pacute" unicode="&#x1e55;" horiz-adv-x="1029" 
d="M934 1489l-356 -301l-87 86l327 338zM332 266q99 -103 216 -103q122 0 175 105q47 92 47 276q0 203 -66 281q-56 67 -166 67q-115 0 -192 -103q-13 -18 -14 -19v-504zM332 976q76 97 222 97q252 0 366 -233q64 -130 64 -293q0 -381 -188 -501q-100 -64 -256 -64
q-76 0 -133 30.5t-75 57.5v-480h-214v1465h214v-79z" />
    <glyph glyph-name="Pdotaccent" unicode="&#x1e56;" horiz-adv-x="1151" 
d="M401 1654v243h244v-243h-244zM861 1115q0 199 -334 199h-165v-455h165q154 0 244 66.5t90 189.5zM123 0v1515h517q282 0 395 -162q65 -94 65 -229q0 -240 -146 -372q-107 -95 -282 -95h-310v-657h-239z" />
    <glyph glyph-name="pdotaccent" unicode="&#x1e57;" horiz-adv-x="1029" 
d="M436 1188v243h244v-243h-244zM332 266q99 -103 216 -103q122 0 175 105q47 92 47 276q0 203 -66 281q-56 67 -166 67q-115 0 -192 -103q-13 -18 -14 -19v-504zM332 976q76 97 222 97q252 0 366 -233q64 -130 64 -293q0 -381 -188 -501q-100 -64 -256 -64q-76 0 -133 30.5
t-75 57.5v-480h-214v1465h214v-79z" />
    <glyph glyph-name="Rdotaccent" unicode="&#x1e58;" horiz-adv-x="1121" 
d="M419 1654v243h244v-243h-244zM362 859h253q105 0 175 57q74 61 74 187q0 211 -335 211h-167v-455zM123 0v1515h509q351 0 444 -251q27 -73 27 -151t-17.5 -142t-51.5 -119q-75 -120 -221 -151l280 -701h-245l-262 657h-224v-657h-239z" />
    <glyph glyph-name="rdotaccent" unicode="&#x1e59;" horiz-adv-x="651" 
d="M245 1188v243h244v-243h-244zM110 0v1055h214v-145q4 5 18 26l24 36q74 101 244 101q18 0 36 -3v-179q-182 -3 -262 -101q-36 -44 -60 -113v-677h-214z" />
    <glyph glyph-name="Rdotbelow" unicode="&#x1e5a;" horiz-adv-x="1121" 
d="M477 -272v243h244v-243h-244zM362 859h253q105 0 175 57q74 61 74 187q0 211 -335 211h-167v-455zM123 0v1515h509q351 0 444 -251q27 -73 27 -151t-17.5 -142t-51.5 -119q-75 -120 -221 -151l280 -701h-245l-262 657h-224v-657h-239z" />
    <glyph glyph-name="rdotbelow" unicode="&#x1e5b;" horiz-adv-x="651" 
d="M64 -272v243h244v-243h-244zM110 0v1055h214v-145q4 5 18 26l24 36q74 101 244 101q18 0 36 -3v-179q-182 -3 -262 -101q-36 -44 -60 -113v-677h-214z" />
    <glyph glyph-name="Rdotbelowmacron" unicode="&#x1e5c;" horiz-adv-x="1121" 
d="M296 1626v149h609v-149h-609zM477 -272v243h244v-243h-244zM362 859h253q105 0 175 57q74 61 74 187q0 211 -335 211h-167v-455zM123 0v1515h509q351 0 444 -251q27 -73 27 -151t-17.5 -142t-51.5 -119q-75 -120 -221 -151l280 -701h-245l-262 657h-224v-657h-239z" />
    <glyph glyph-name="rdotbelowmacron" unicode="&#x1e5d;" horiz-adv-x="651" 
d="M109 1160v149h609v-149h-609zM64 -272v243h244v-243h-244zM110 0v1055h214v-145q4 5 18 26l24 36q74 101 244 101q18 0 36 -3v-179q-182 -3 -262 -101q-36 -44 -60 -113v-677h-214z" />
    <glyph glyph-name="Rlinebelow" unicode="&#x1e5e;" horiz-adv-x="1121" 
d="M355 -242v149h609v-149h-609zM362 859h253q105 0 175 57q74 61 74 187q0 211 -335 211h-167v-455zM123 0v1515h509q351 0 444 -251q27 -73 27 -151t-17.5 -142t-51.5 -119q-75 -120 -221 -151l280 -701h-245l-262 657h-224v-657h-239z" />
    <glyph glyph-name="rlinebelow" unicode="&#x1e5f;" horiz-adv-x="651" 
d="M103 -242v149h609v-149h-609zM110 0v1055h214v-145q4 5 18 26l24 36q74 101 244 101q18 0 36 -3v-179q-182 -3 -262 -101q-36 -44 -60 -113v-677h-214z" />
    <glyph glyph-name="Sdotaccent" unicode="&#x1e60;" horiz-adv-x="1041" 
d="M366 1654v243h244v-243h-244zM24 388l192 63q1 0 4 -15t10.5 -39.5t21 -54t39.5 -59t61 -53.5q78 -55 194 -55t170.5 57t54.5 135.5t-16 127t-56 84.5q-67 60 -232 108q-291 85 -374 263q-43 93 -43 219q0 106 75 207q131 167 372 167q191 0 313 -115q87 -81 130 -204
l19 -53q9 -24 12 -31l-195 -69q-66 210 -206 259q-35 12 -73 12q-208 0 -208 -214q0 -98 58 -150q48 -45 126 -71l48 -16q41 -14 45 -15l44 -15q171 -60 231 -106q88 -68 115 -125q54 -117 54 -247q0 -102 -58 -207q-78 -141 -247 -185q-65 -17 -142 -17t-144.5 14
t-116.5 38t-90 55t-69 65.5t-49 69t-33.5 65.5t-20.5 55t-11.5 38t-4.5 14z" />
    <glyph glyph-name="sdotaccent" unicode="&#x1e61;" horiz-adv-x="890" 
d="M299 1188v243h244v-243h-244zM67 212l148 90q35 -50 65 -80q71 -70 179 -70q87 0 124 36q34 33 34 100q0 76 -49 114q-44 33 -87 45l-94 27q-163 46 -235 124q-73 79 -73 209q0 111 91 186q96 80 275 80q161 0 277 -110q50 -47 63 -79l-124 -98q-70 85 -140 105
q-36 11 -94.5 11t-100 -30t-41.5 -88q0 -67 59 -104q52 -33 105 -49l90 -25q212 -60 263 -203q21 -58 21 -137.5t-49.5 -145.5t-130.5 -102t-163.5 -36t-136 10t-103.5 35q-97 49 -173 185z" />
    <glyph glyph-name="Sdotbelow" unicode="&#x1e62;" horiz-adv-x="1041" 
d="M431 -288v243h244v-243h-244zM24 388l192 63q1 0 4 -15t10.5 -39.5t21 -54t39.5 -59t61 -53.5q78 -55 194 -55t170.5 57t54.5 135.5t-16 127t-56 84.5q-67 60 -232 108q-291 85 -374 263q-43 93 -43 219q0 106 75 207q131 167 372 167q191 0 313 -115q87 -81 130 -204
l19 -53q9 -24 12 -31l-195 -69q-66 210 -206 259q-35 12 -73 12q-208 0 -208 -214q0 -98 58 -150q48 -45 126 -71l48 -16q41 -14 45 -15l44 -15q171 -60 231 -106q88 -68 115 -125q54 -117 54 -247q0 -102 -58 -207q-78 -141 -247 -185q-65 -17 -142 -17t-144.5 14
t-116.5 38t-90 55t-69 65.5t-49 69t-33.5 65.5t-20.5 55t-11.5 38t-4.5 14z" />
    <glyph glyph-name="sdotbelow" unicode="&#x1e63;" horiz-adv-x="890" 
d="M331 -283v243h244v-243h-244zM67 212l148 90q35 -50 65 -80q71 -70 179 -70q87 0 124 36q34 33 34 100q0 76 -49 114q-44 33 -87 45l-94 27q-163 46 -235 124q-73 79 -73 209q0 111 91 186q96 80 275 80q161 0 277 -110q50 -47 63 -79l-124 -98q-70 85 -140 105
q-36 11 -94.5 11t-100 -30t-41.5 -88q0 -67 59 -104q52 -33 105 -49l90 -25q212 -60 263 -203q21 -58 21 -137.5t-49.5 -145.5t-130.5 -102t-163.5 -36t-136 10t-103.5 35q-97 49 -173 185z" />
    <glyph glyph-name="Sacutedotaccent" unicode="&#x1e64;" horiz-adv-x="1041" 
d="M376 2007v243h244v-243h-244zM864 1955l-356 -301l-87 86l327 338zM24 388l192 63q1 0 4 -15t10.5 -39.5t21 -54t39.5 -59t61 -53.5q78 -55 194 -55t170.5 57t54.5 135.5t-16 127t-56 84.5q-67 60 -232 108q-291 85 -374 263q-43 93 -43 219q0 106 75 207
q131 167 372 167q191 0 313 -115q87 -81 130 -204l19 -53q9 -24 12 -31l-195 -69q-66 210 -206 259q-35 12 -73 12q-208 0 -208 -214q0 -98 58 -150q48 -45 126 -71l48 -16q41 -14 45 -15l44 -15q171 -60 231 -106q88 -68 115 -125q54 -117 54 -247q0 -102 -58 -207
q-78 -141 -247 -185q-65 -17 -142 -17t-144.5 14t-116.5 38t-90 55t-69 65.5t-49 69t-33.5 65.5t-20.5 55t-11.5 38t-4.5 14z" />
    <glyph glyph-name="sacutedotaccent" unicode="&#x1e65;" horiz-adv-x="890" 
d="M328 1518v243h244v-243h-244zM849 1442l-356 -301l-87 86l327 338zM67 212l148 90q35 -50 65 -80q71 -70 179 -70q87 0 124 36q34 33 34 100q0 76 -49 114q-44 33 -87 45l-94 27q-163 46 -235 124q-73 79 -73 209q0 111 91 186q96 80 275 80q161 0 277 -110
q50 -47 63 -79l-124 -98q-70 85 -140 105q-36 11 -94.5 11t-100 -30t-41.5 -88q0 -67 59 -104q52 -33 105 -49l90 -25q212 -60 263 -203q21 -58 21 -137.5t-49.5 -145.5t-130.5 -102t-163.5 -36t-136 10t-103.5 35q-97 49 -173 185z" />
    <glyph glyph-name="Scarondotaccent" unicode="&#x1e66;" horiz-adv-x="1041" 
d="M368 2063v243h244v-243h-244zM752 1902l-248 -248l-249 249l94 92l153 -153l155 155zM24 388l192 63q1 0 4 -15t10.5 -39.5t21 -54t39.5 -59t61 -53.5q78 -55 194 -55t170.5 57t54.5 135.5t-16 127t-56 84.5q-67 60 -232 108q-291 85 -374 263q-43 93 -43 219
q0 106 75 207q131 167 372 167q191 0 313 -115q87 -81 130 -204l19 -53q9 -24 12 -31l-195 -69q-66 210 -206 259q-35 12 -73 12q-208 0 -208 -214q0 -98 58 -150q48 -45 126 -71l48 -16q41 -14 45 -15l44 -15q171 -60 231 -106q88 -68 115 -125q54 -117 54 -247
q0 -102 -58 -207q-78 -141 -247 -185q-65 -17 -142 -17t-144.5 14t-116.5 38t-90 55t-69 65.5t-49 69t-33.5 65.5t-20.5 55t-11.5 38t-4.5 14z" />
    <glyph glyph-name="scarondotaccent" unicode="&#x1e67;" horiz-adv-x="890" 
d="M307 1597v243h244v-243h-244zM685 1436l-248 -248l-249 249l94 92l153 -153l155 155zM67 212l148 90q35 -50 65 -80q71 -70 179 -70q87 0 124 36q34 33 34 100q0 76 -49 114q-44 33 -87 45l-94 27q-163 46 -235 124q-73 79 -73 209q0 111 91 186q96 80 275 80
q161 0 277 -110q50 -47 63 -79l-124 -98q-70 85 -140 105q-36 11 -94.5 11t-100 -30t-41.5 -88q0 -67 59 -104q52 -33 105 -49l90 -25q212 -60 263 -203q21 -58 21 -137.5t-49.5 -145.5t-130.5 -102t-163.5 -36t-136 10t-103.5 35q-97 49 -173 185z" />
    <glyph glyph-name="Sdotbelowdotaccent" unicode="&#x1e68;" horiz-adv-x="1041" 
d="M366 1654v243h244v-243h-244zM431 -288v243h244v-243h-244zM24 388l192 63q1 0 4 -15t10.5 -39.5t21 -54t39.5 -59t61 -53.5q78 -55 194 -55t170.5 57t54.5 135.5t-16 127t-56 84.5q-67 60 -232 108q-291 85 -374 263q-43 93 -43 219q0 106 75 207q131 167 372 167
q191 0 313 -115q87 -81 130 -204l19 -53q9 -24 12 -31l-195 -69q-66 210 -206 259q-35 12 -73 12q-208 0 -208 -214q0 -98 58 -150q48 -45 126 -71l48 -16q41 -14 45 -15l44 -15q171 -60 231 -106q88 -68 115 -125q54 -117 54 -247q0 -102 -58 -207q-78 -141 -247 -185
q-65 -17 -142 -17t-144.5 14t-116.5 38t-90 55t-69 65.5t-49 69t-33.5 65.5t-20.5 55t-11.5 38t-4.5 14z" />
    <glyph glyph-name="sdotbelowdotaccent" unicode="&#x1e69;" horiz-adv-x="890" 
d="M299 1188v243h244v-243h-244zM331 -283v243h244v-243h-244zM67 212l148 90q35 -50 65 -80q71 -70 179 -70q87 0 124 36q34 33 34 100q0 76 -49 114q-44 33 -87 45l-94 27q-163 46 -235 124q-73 79 -73 209q0 111 91 186q96 80 275 80q161 0 277 -110q50 -47 63 -79
l-124 -98q-70 85 -140 105q-36 11 -94.5 11t-100 -30t-41.5 -88q0 -67 59 -104q52 -33 105 -49l90 -25q212 -60 263 -203q21 -58 21 -137.5t-49.5 -145.5t-130.5 -102t-163.5 -36t-136 10t-103.5 35q-97 49 -173 185z" />
    <glyph glyph-name="Tdotaccent" unicode="&#x1e6a;" horiz-adv-x="1062" 
d="M399 1654v243h244v-243h-244zM2 1314v201h1057v-201h-409v-1314h-239v1314h-409z" />
    <glyph glyph-name="tdotaccent" unicode="&#x1e6b;" horiz-adv-x="614" 
d="M109 1562v243h244v-243h-244zM17 874v181h157v385h214v-385h221v-181h-221v-566q0 -85 30.5 -116.5t102.5 -31.5q29 0 58.5 4t29.5 5v-151q-54 -25 -83.5 -32t-72 -7t-63 1t-50 7t-51 16.5t-44.5 30.5t-38 48q-33 64 -33 166v626h-157z" />
    <glyph glyph-name="Tdotbelow" unicode="&#x1e6c;" horiz-adv-x="1062" 
d="M399 -272v243h244v-243h-244zM2 1314v201h1057v-201h-409v-1314h-239v1314h-409z" />
    <glyph glyph-name="tdotbelow" unicode="&#x1e6d;" horiz-adv-x="614" 
d="M260 -285v243h244v-243h-244zM17 874v181h157v385h214v-385h221v-181h-221v-566q0 -85 30.5 -116.5t102.5 -31.5q29 0 58.5 4t29.5 5v-151q-54 -25 -83.5 -32t-72 -7t-63 1t-50 7t-51 16.5t-44.5 30.5t-38 48q-33 64 -33 166v626h-157z" />
    <glyph glyph-name="Tlinebelow" unicode="&#x1e6e;" horiz-adv-x="1062" 
d="M277 -242v149h609v-149h-609zM2 1314v201h1057v-201h-409v-1314h-239v1314h-409z" />
    <glyph glyph-name="tlinebelow" unicode="&#x1e6f;" horiz-adv-x="614" 
d="M26 -267v149h609v-149h-609zM17 874v181h157v385h214v-385h221v-181h-221v-566q0 -85 30.5 -116.5t102.5 -31.5q29 0 58.5 4t29.5 5v-151q-54 -25 -83.5 -32t-72 -7t-63 1t-50 7t-51 16.5t-44.5 30.5t-38 48q-33 64 -33 166v626h-157z" />
    <glyph glyph-name="Tcircumflexbelow" unicode="&#x1e70;" horiz-adv-x="1062" 
d="M288 -343l248 248l249 -249l-94 -92l-153 153l-155 -155zM2 1314v201h1057v-201h-409v-1314h-239v1314h-409z" />
    <glyph glyph-name="tcircumflexbelow" unicode="&#x1e71;" horiz-adv-x="614" 
d="M149 -356l248 248l249 -249l-94 -92l-153 153l-155 -155zM17 874v181h157v385h214v-385h221v-181h-221v-566q0 -85 30.5 -116.5t102.5 -31.5q29 0 58.5 4t29.5 5v-151q-54 -25 -83.5 -32t-72 -7t-63 1t-50 7t-51 16.5t-44.5 30.5t-38 48q-33 64 -33 166v626h-157z" />
    <glyph glyph-name="Udieresisbelow" unicode="&#x1e72;" horiz-adv-x="1234" 
d="M689 -288v243h242v-243h-242zM309 -288v243h242v-243h-242zM123 448v1067h239v-1010q0 -253 163 -314q42 -16 94 -16t94 14t68 35t45 53.5t28 59.5t15 64q6 48 6 104v1010h244v-1067q0 -229 -151 -363q-125 -111 -348 -111q-339 0 -450 257q-47 106 -47 217z" />
    <glyph glyph-name="udieresisbelow" unicode="&#x1e73;" horiz-adv-x="998" 
d="M473 -283v243h242v-243h-242zM93 -283v243h242v-243h-242zM118 264v791h214v-735q0 -72 43.5 -114.5t103 -42.5t119 35.5t88.5 70.5v786h214v-1055h-214v112q-130 -130 -270 -130q-126 0 -209 66q-89 71 -89 216z" />
    <glyph glyph-name="Utildebelow" unicode="&#x1e74;" horiz-adv-x="1234" 
d="M942 -138q-71 -200 -223 -200q-84 0 -149.5 45t-105 45t-59.5 -21t-37 -62l-130 60q23 91 89.5 145t121.5 54t94 -14.5t63 -31.5q64 -46 112 -46q38 0 55 23q22 31 35 65zM123 448v1067h239v-1010q0 -253 163 -314q42 -16 94 -16t94 14t68 35t45 53.5t28 59.5t15 64
q6 48 6 104v1010h244v-1067q0 -229 -151 -363q-125 -111 -348 -111q-339 0 -450 257q-47 106 -47 217z" />
    <glyph glyph-name="utildebelow" unicode="&#x1e75;" horiz-adv-x="998" 
d="M829 -133q-71 -200 -223 -200q-84 0 -149.5 45t-105 45t-59.5 -21t-37 -62l-130 60q23 91 89.5 145t121.5 54t94 -14.5t63 -31.5q64 -46 112 -46q38 0 55 23q22 31 35 65zM118 264v791h214v-735q0 -72 43.5 -114.5t103 -42.5t119 35.5t88.5 70.5v786h214v-1055h-214v112
q-130 -130 -270 -130q-126 0 -209 66q-89 71 -89 216z" />
    <glyph glyph-name="Ucircumflexbelow" unicode="&#x1e76;" horiz-adv-x="1234" 
d="M377 -359l248 248l249 -249l-94 -92l-153 153l-155 -155zM123 448v1067h239v-1010q0 -253 163 -314q42 -16 94 -16t94 14t68 35t45 53.5t28 59.5t15 64q6 48 6 104v1010h244v-1067q0 -229 -151 -363q-125 -111 -348 -111q-339 0 -450 257q-47 106 -47 217z" />
    <glyph glyph-name="ucircumflexbelow" unicode="&#x1e77;" horiz-adv-x="998" 
d="M238 -354l248 248l249 -249l-94 -92l-153 153l-155 -155zM118 264v791h214v-735q0 -72 43.5 -114.5t103 -42.5t119 35.5t88.5 70.5v786h214v-1055h-214v112q-130 -130 -270 -130q-126 0 -209 66q-89 71 -89 216z" />
    <glyph glyph-name="Utildeacute" unicode="&#x1e78;" horiz-adv-x="1234" 
d="M1034 2274l-356 -301l-87 86l327 338zM976 1851q-71 -200 -223 -200q-84 0 -149.5 45t-105 45t-59.5 -21t-37 -62l-130 60q23 91 89.5 145t121.5 54t94 -14.5t63 -31.5q64 -46 112 -46q38 0 55 23q22 31 35 65zM123 448v1067h239v-1010q0 -253 163 -314q42 -16 94 -16
t94 14t68 35t45 53.5t28 59.5t15 64q6 48 6 104v1010h244v-1067q0 -229 -151 -363q-125 -111 -348 -111q-339 0 -450 257q-47 106 -47 217z" />
    <glyph glyph-name="utildeacute" unicode="&#x1e79;" horiz-adv-x="998" 
d="M947 1808l-356 -301l-87 86l327 338zM866 1385q-71 -200 -223 -200q-84 0 -149.5 45t-105 45t-59.5 -21t-37 -62l-130 60q23 91 89.5 145t121.5 54t94 -14.5t63 -31.5q64 -46 112 -46q38 0 55 23q22 31 35 65zM118 264v791h214v-735q0 -72 43.5 -114.5t103 -42.5
t119 35.5t88.5 70.5v786h214v-1055h-214v112q-130 -130 -270 -130q-126 0 -209 66q-89 71 -89 216z" />
    <glyph glyph-name="Umacrondieresis" unicode="&#x1e7a;" horiz-adv-x="1234" 
d="M689 1868v243h242v-243h-242zM309 1868v243h242v-243h-242zM365 1626v149h609v-149h-609zM123 448v1067h239v-1010q0 -253 163 -314q42 -16 94 -16t94 14t68 35t45 53.5t28 59.5t15 64q6 48 6 104v1010h244v-1067q0 -229 -151 -363q-125 -111 -348 -111q-339 0 -450 257
q-47 106 -47 217z" />
    <glyph glyph-name="umacrondieresis" unicode="&#x1e7b;" horiz-adv-x="998" 
d="M579 1402v243h242v-243h-242zM199 1402v243h242v-243h-242zM256 1160v149h609v-149h-609zM118 264v791h214v-735q0 -72 43.5 -114.5t103 -42.5t119 35.5t88.5 70.5v786h214v-1055h-214v112q-130 -130 -270 -130q-126 0 -209 66q-89 71 -89 216z" />
    <glyph glyph-name="Vtilde" unicode="&#x1e7c;" horiz-adv-x="1104" 
d="M874 1851q-71 -200 -223 -200q-84 0 -149.5 45t-105 45t-59.5 -21t-37 -62l-130 60q23 91 89.5 145t121.5 54t94 -14.5t63 -31.5q64 -46 112 -46q38 0 55 23q22 31 35 65zM552 516l297 999h253l-450 -1515h-200l-450 1515h253z" />
    <glyph glyph-name="vtilde" unicode="&#x1e7d;" horiz-adv-x="901" 
d="M772 1385q-71 -200 -223 -200q-84 0 -149.5 45t-105 45t-59.5 -21t-37 -62l-130 60q23 91 89.5 145t121.5 54t94 -14.5t63 -31.5q64 -46 112 -46q38 0 55 23q22 31 35 65zM5 1055h226l217 -744l221 744h226l-324 -1055h-248z" />
    <glyph glyph-name="Vdotbelow" unicode="&#x1e7e;" horiz-adv-x="1104" 
d="M420 -272v243h244v-243h-244zM552 516l297 999h253l-450 -1515h-200l-450 1515h253z" />
    <glyph glyph-name="vdotbelow" unicode="&#x1e7f;" horiz-adv-x="901" 
d="M318 -272v243h244v-243h-244zM5 1055h226l217 -744l221 744h226l-324 -1055h-248z" />
    <glyph glyph-name="Wgrave" unicode="&#x1e80;" horiz-adv-x="1614" 
d="M466 1954l116 123l327 -338l-87 -86zM2 1515h247l222 -1017h9l218 1017h226l214 -1017h12l222 1017h240l-351 -1515h-223l-222 1057h-10l-226 -1057h-227z" />
    <glyph glyph-name="wgrave" unicode="&#x1e81;" horiz-adv-x="1318" 
d="M338 1488l116 123l327 -338l-87 -86zM510 0h-218l-286 1055h222l184 -684l156 684h184l156 -682l183 682h223l-288 -1055h-218l-148 652z" />
    <glyph glyph-name="Wacute" unicode="&#x1e82;" horiz-adv-x="1614" 
d="M1173 1955l-356 -301l-87 86l327 338zM2 1515h247l222 -1017h9l218 1017h226l214 -1017h12l222 1017h240l-351 -1515h-223l-222 1057h-10l-226 -1057h-227z" />
    <glyph glyph-name="wacute" unicode="&#x1e83;" horiz-adv-x="1318" 
d="M1044 1489l-356 -301l-87 86l327 338zM510 0h-218l-286 1055h222l184 -684l156 684h184l156 -682l183 682h223l-288 -1055h-218l-148 652z" />
    <glyph glyph-name="Wdieresis" unicode="&#x1e84;" horiz-adv-x="1614" 
d="M876 1654v243h242v-243h-242zM496 1654v243h242v-243h-242zM2 1515h247l222 -1017h9l218 1017h226l214 -1017h12l222 1017h240l-351 -1515h-223l-222 1057h-10l-226 -1057h-227z" />
    <glyph glyph-name="wdieresis" unicode="&#x1e85;" horiz-adv-x="1318" 
d="M748 1188v243h242v-243h-242zM368 1188v243h242v-243h-242zM510 0h-218l-286 1055h222l184 -684l156 684h184l156 -682l183 682h223l-288 -1055h-218l-148 652z" />
    <glyph glyph-name="Wdotaccent" unicode="&#x1e86;" horiz-adv-x="1614" 
d="M675 1654v243h244v-243h-244zM2 1515h247l222 -1017h9l218 1017h226l214 -1017h12l222 1017h240l-351 -1515h-223l-222 1057h-10l-226 -1057h-227z" />
    <glyph glyph-name="wdotaccent" unicode="&#x1e87;" horiz-adv-x="1318" 
d="M546 1188v243h244v-243h-244zM510 0h-218l-286 1055h222l184 -684l156 684h184l156 -682l183 682h223l-288 -1055h-218l-148 652z" />
    <glyph glyph-name="Wdotbelow" unicode="&#x1e88;" horiz-adv-x="1614" 
d="M675 -272v243h244v-243h-244zM2 1515h247l222 -1017h9l218 1017h226l214 -1017h12l222 1017h240l-351 -1515h-223l-222 1057h-10l-226 -1057h-227z" />
    <glyph glyph-name="wdotbelow" unicode="&#x1e89;" horiz-adv-x="1318" 
d="M540 -272v243h244v-243h-244zM510 0h-218l-286 1055h222l184 -684l156 684h184l156 -682l183 682h223l-288 -1055h-218l-148 652z" />
    <glyph glyph-name="Xdotaccent" unicode="&#x1e8a;" horiz-adv-x="1106" 
d="M422 1654v243h244v-243h-244zM1104 0h-246l-302 536l-303 -536h-247l426 754l-430 761h244l302 -532l292 532h245l-417 -745z" />
    <glyph glyph-name="xdotaccent" unicode="&#x1e8b;" horiz-adv-x="899" 
d="M268 1188v243h244v-243h-244zM2 1055h230l195 -311l204 311h229l-321 -490l355 -565h-230l-220 350l-211 -350h-231l326 536z" />
    <glyph glyph-name="Xdieresis" unicode="&#x1e8c;" horiz-adv-x="1106" 
d="M624 1654v243h242v-243h-242zM244 1654v243h242v-243h-242zM1104 0h-246l-302 536l-303 -536h-247l426 754l-430 761h244l302 -532l292 532h245l-417 -745z" />
    <glyph glyph-name="xdieresis" unicode="&#x1e8d;" horiz-adv-x="899" 
d="M469 1188v243h242v-243h-242zM89 1188v243h242v-243h-242zM2 1055h230l195 -311l204 311h229l-321 -490l355 -565h-230l-220 350l-211 -350h-231l326 536z" />
    <glyph glyph-name="Ydotaccent" unicode="&#x1e8e;" horiz-adv-x="1122" 
d="M429 1654v243h244v-243h-244zM680 701v-701h-238v701l-440 814h252l307 -573l307 573h252z" />
    <glyph glyph-name="ydotaccent" unicode="&#x1e8f;" horiz-adv-x="903" 
d="M318 1188v243h244v-243h-244zM2 1055h238l222 -633l198 633h238l-352 -1087q-53 -164 -88 -216t-63.5 -82t-61.5 -48q-105 -59 -310 -28l-9 1l10 199q37 -16 97.5 -16t97 16t59 41t38.5 55.5t24 61.5q15 61 16 112z" />
    <glyph glyph-name="Zcircumflex" unicode="&#x1e90;" horiz-adv-x="1157" 
d="M346 1720l248 248l249 -249l-94 -92l-153 153l-155 -155zM44 0v136l733 1172h-679v207h998v-161l-693 -1124h710v-230h-1069z" />
    <glyph glyph-name="zcircumflex" unicode="&#x1e91;" horiz-adv-x="795" 
d="M171 1254l248 248l249 -249l-94 -92l-153 153l-155 -155zM2 0v137l474 737h-420v181h716v-120l-470 -741h488v-194h-788z" />
    <glyph glyph-name="Zdotbelow" unicode="&#x1e92;" horiz-adv-x="1157" 
d="M435 -272v243h244v-243h-244zM44 0v136l733 1172h-679v207h998v-161l-693 -1124h710v-230h-1069z" />
    <glyph glyph-name="zdotbelow" unicode="&#x1e93;" horiz-adv-x="795" 
d="M256 -272v243h244v-243h-244zM2 0v137l474 737h-420v181h716v-120l-470 -741h488v-194h-788z" />
    <glyph glyph-name="Zlinebelow" unicode="&#x1e94;" horiz-adv-x="1157" 
d="M312 -242v149h609v-149h-609zM44 0v136l733 1172h-679v207h998v-161l-693 -1124h710v-230h-1069z" />
    <glyph glyph-name="zlinebelow" unicode="&#x1e95;" horiz-adv-x="795" 
d="M133 -242v149h609v-149h-609zM2 0v137l474 737h-420v181h716v-120l-470 -741h488v-194h-788z" />
    <glyph glyph-name="hlinebelow" unicode="&#x1e96;" horiz-adv-x="997" 
d="M256 -242v149h609v-149h-609zM901 791v-791h-214v735q0 72 -43.5 114.5t-103.5 42.5t-119 -35.5t-88 -70.5v-786h-214v1515h214v-572q130 130 270 130q126 0 209 -66q89 -71 89 -216z" />
    <glyph glyph-name="tdieresis" unicode="&#x1e97;" horiz-adv-x="614" 
d="M311 1562v243h242v-243h-242zM-69 1562v243h242v-243h-242zM17 874v181h157v385h214v-385h221v-181h-221v-566q0 -85 30.5 -116.5t102.5 -31.5q29 0 58.5 4t29.5 5v-151q-54 -25 -83.5 -32t-72 -7t-63 1t-50 7t-51 16.5t-44.5 30.5t-38 48q-33 64 -33 166v626h-157z" />
    <glyph glyph-name="wring" unicode="&#x1e98;" horiz-adv-x="1318" 
d="M513 1449q0 -57 40 -97t97 -40t97 40t40 97t-40 97t-97 40t-97 -40t-40 -97zM363 1449q0 119 84.5 203t203 84t202.5 -84t84 -203t-84 -203t-202.5 -84t-203 84t-84.5 203zM510 0h-218l-286 1055h222l184 -684l156 684h184l156 -682l183 682h223l-288 -1055h-218
l-148 652z" />
    <glyph glyph-name="yring" unicode="&#x1e99;" horiz-adv-x="903" 
d="M285 1449q0 -57 40 -97t97 -40t97 40t40 97t-40 97t-97 40t-97 -40t-40 -97zM135 1449q0 119 84.5 203t203 84t202.5 -84t84 -203t-84 -203t-202.5 -84t-203 84t-84.5 203zM2 1055h238l222 -633l198 633h238l-352 -1087q-53 -164 -88 -216t-63.5 -82t-61.5 -48
q-105 -59 -310 -28l-9 1l10 199q37 -16 97.5 -16t97 16t59 41t38.5 55.5t24 61.5q15 61 16 112z" />
    <glyph glyph-name="slongdotaccent" unicode="&#x1e9b;" horiz-adv-x="611" 
d="M276 1647v243h244v-243h-244zM499 1530q74 0 79 -15v-179h-68q-81 -1 -106 -19q-44 -33 -44 -82v-1235h-214v874h-152v181h152v226q0 249 353 249z" />
    <glyph glyph-name="Ssharp" unicode="&#x1e9e;" horiz-adv-x="1761" 
d="M1388 1329l-398 -393q88 2 159.5 -25t107 -49t71.5 -58t61 -81q57 -101 57 -226t-36 -213.5t-101.5 -155.5t-164.5 -106t-241 -39t-273 76t-215 201l156 129l22 -31q124 -174 332 -174q123 0 202.5 83t79.5 205q0 167 -123 235q-153 85 -404 22v233l347 325
q-84 67 -200.5 67t-192 -30.5t-124.5 -79.5t-82 -116q-61 -122 -61 -275v-853h-244v902q0 211 101 372q177 282 568 282q402 0 547 -158q28 -31 38 -49t11 -20z" />
    <glyph glyph-name="Adotbelow" unicode="&#x1ea0;" horiz-adv-x="1130" 
d="M433 -272v243h244v-243h-244zM432 640h283l-141 489zM2 0l432 1515h262l432 -1515h-231l-125 439h-397l-125 -439h-248z" />
    <glyph glyph-name="adotbelow" unicode="&#x1ea1;" 
d="M238 -279v243h244v-243h-244zM284 272q0 -59 29 -85.5t72 -26.5t64.5 5t42.5 15l37 19q16 9 36 25l29 23q8 7 26 23l18 17v247q-224 -52 -293 -112q-61 -54 -61 -150zM668 0q-30 18 -30 93l-19 -22q-86 -92 -246 -92q-194 0 -266 137q-37 68 -37 157t31.5 158.5
t102.5 122.5q129 96 434 157q0 71 -4.5 87t-10 30t-13.5 21.5t-20 16.5t-28 13q-39 10 -86.5 10t-89 -14.5t-66 -32.5t-44.5 -42q-26 -32 -37 -56l-140 86q44 91 76 121.5t63 52.5t66 35q84 31 171 31t138.5 -9.5t98 -34t76.5 -65.5q64 -89 64 -260v-552q0 -28 10.5 -79
t19.5 -70h-214z" />
    <glyph glyph-name="Acircumflexacute" unicode="&#x1ea4;" horiz-adv-x="1130" 
d="M931 2364l-356 -301l-87 86l327 338zM323 1760l248 248l249 -249l-94 -92l-153 153l-155 -155zM432 640h283l-141 489zM2 0l432 1515h262l432 -1515h-231l-125 439h-397l-125 -439h-248z" />
    <glyph glyph-name="acircumflexacute" unicode="&#x1ea5;" 
d="M784 1898l-356 -301l-87 86l327 338zM255 1254l248 248l249 -249l-94 -92l-153 153l-155 -155zM284 272q0 -59 29 -85.5t72 -26.5t64.5 5t42.5 15l37 19q16 9 36 25l29 23q8 7 26 23l18 17v247q-224 -52 -293 -112q-61 -54 -61 -150zM668 0q-30 18 -30 93l-19 -22
q-86 -92 -246 -92q-194 0 -266 137q-37 68 -37 157t31.5 158.5t102.5 122.5q129 96 434 157q0 71 -4.5 87t-10 30t-13.5 21.5t-20 16.5t-28 13q-39 10 -86.5 10t-89 -14.5t-66 -32.5t-44.5 -42q-26 -32 -37 -56l-140 86q44 91 76 121.5t63 52.5t66 35q84 31 171 31
t138.5 -9.5t98 -34t76.5 -65.5q64 -89 64 -260v-552q0 -28 10.5 -79t19.5 -70h-214z" />
    <glyph glyph-name="Acircumflexgrave" unicode="&#x1ea6;" horiz-adv-x="1130" 
d="M224 2363l116 123l327 -338l-87 -86zM323 1760l248 248l249 -249l-94 -92l-153 153l-155 -155zM432 640h283l-141 489zM2 0l432 1515h262l432 -1515h-231l-125 439h-397l-125 -439h-248z" />
    <glyph glyph-name="acircumflexgrave" unicode="&#x1ea7;" 
d="M77 1897l116 123l327 -338l-87 -86zM255 1254l248 248l249 -249l-94 -92l-153 153l-155 -155zM284 272q0 -59 29 -85.5t72 -26.5t64.5 5t42.5 15l37 19q16 9 36 25l29 23q8 7 26 23l18 17v247q-224 -52 -293 -112q-61 -54 -61 -150zM668 0q-30 18 -30 93l-19 -22
q-86 -92 -246 -92q-194 0 -266 137q-37 68 -37 157t31.5 158.5t102.5 122.5q129 96 434 157q0 71 -4.5 87t-10 30t-13.5 21.5t-20 16.5t-28 13q-39 10 -86.5 10t-89 -14.5t-66 -32.5t-44.5 -42q-26 -32 -37 -56l-140 86q44 91 76 121.5t63 52.5t66 35q84 31 171 31
t138.5 -9.5t98 -34t76.5 -65.5q64 -89 64 -260v-552q0 -28 10.5 -79t19.5 -70h-214z" />
    <glyph glyph-name="Acircumflextilde" unicode="&#x1eaa;" horiz-adv-x="1130" 
d="M887 2260q-71 -200 -223 -200q-84 0 -149.5 45t-105 45t-59.5 -21t-37 -62l-130 60q23 91 89.5 145t121.5 54t94 -14.5t63 -31.5q64 -46 112 -46q38 0 55 23q22 31 35 65zM323 1760l248 248l249 -249l-94 -92l-153 153l-155 -155zM432 640h283l-141 489zM2 0l432 1515
h262l432 -1515h-231l-125 439h-397l-125 -439h-248z" />
    <glyph glyph-name="acircumflextilde" unicode="&#x1eab;" 
d="M740 1794q-71 -200 -223 -200q-84 0 -149.5 45t-105 45t-59.5 -21t-37 -62l-130 60q23 91 89.5 145t121.5 54t94 -14.5t63 -31.5q64 -46 112 -46q38 0 55 23q22 31 35 65zM255 1254l248 248l249 -249l-94 -92l-153 153l-155 -155zM284 272q0 -59 29 -85.5t72 -26.5
t64.5 5t42.5 15l37 19q16 9 36 25l29 23q8 7 26 23l18 17v247q-224 -52 -293 -112q-61 -54 -61 -150zM668 0q-30 18 -30 93l-19 -22q-86 -92 -246 -92q-194 0 -266 137q-37 68 -37 157t31.5 158.5t102.5 122.5q129 96 434 157q0 71 -4.5 87t-10 30t-13.5 21.5t-20 16.5
t-28 13q-39 10 -86.5 10t-89 -14.5t-66 -32.5t-44.5 -42q-26 -32 -37 -56l-140 86q44 91 76 121.5t63 52.5t66 35q84 31 171 31t138.5 -9.5t98 -34t76.5 -65.5q64 -89 64 -260v-552q0 -28 10.5 -79t19.5 -70h-214z" />
    </font>
</defs>
</svg>
